<?xml version="1.0" encoding="utf-8" standalone="no"?>
<!DOCTYPE svg PUBLIC "-//W3C//DTD SVG 1.1//EN"
  "http://www.w3.org/Graphics/SVG/1.1/DTD/svg11.dtd">
<!-- Created with matplotlib (https://matplotlib.org/) -->
<svg height="288pt" version="1.1" viewBox="0 0 432 288" width="432pt" xmlns="http://www.w3.org/2000/svg" xmlns:xlink="http://www.w3.org/1999/xlink">
 <defs>
  <style type="text/css">
*{stroke-linecap:butt;stroke-linejoin:round;white-space:pre;}
  </style>
 </defs>
 <g id="figure_1">
  <g id="patch_1">
   <path d="M 0 288 
L 432 288 
L 432 0 
L 0 0 
z
" style="fill:#ffffff;"/>
  </g>
  <g id="axes_1">
   <g id="patch_2">
    <path d="M 54 252 
L 388.8 252 
L 388.8 34.56 
L 54 34.56 
z
" style="fill:#ffffff;"/>
   </g>
   <g id="PolyCollection_1">
    <defs>
     <path d="M 95.932812 -138.71862 
L 95.767188 -138.71862 
L 95.729459 -139.777588 
L 95.679111 -140.836555 
L 95.61391 -141.895522 
L 95.53193 -142.954489 
L 95.431786 -144.013456 
L 95.312821 -145.072423 
L 95.175211 -146.13139 
L 95.019951 -147.190357 
L 94.848694 -148.249324 
L 94.663476 -149.308291 
L 94.46636 -150.367259 
L 94.259067 -151.426226 
L 94.042666 -152.485193 
L 93.8174 -153.54416 
L 93.582666 -154.603127 
L 93.337162 -155.662094 
L 93.079168 -156.721061 
L 92.80691 -157.780028 
L 92.518955 -158.838995 
L 92.214568 -159.897962 
L 91.894014 -160.95693 
L 91.558763 -162.015897 
L 91.211578 -163.074864 
L 90.856456 -164.133831 
L 90.4984 -165.192798 
L 90.143017 -166.251765 
L 89.795943 -167.310732 
L 89.462166 -168.369699 
L 89.145343 -169.428666 
L 88.84722 -170.487634 
L 88.567296 -171.546601 
L 88.302781 -172.605568 
L 88.048875 -173.664535 
L 87.799296 -174.723502 
L 87.546942 -175.782469 
L 87.284544 -176.841436 
L 87.005175 -177.900403 
L 86.702562 -178.95937 
L 86.371188 -180.018337 
L 86.00627 -181.077305 
L 85.603716 -182.136272 
L 85.160205 -183.195239 
L 84.673458 -184.254206 
L 84.142736 -185.313173 
L 83.569491 -186.37214 
L 82.95801 -187.431107 
L 82.315837 -188.490074 
L 81.653754 -189.549041 
L 80.985148 -190.608008 
L 80.324718 -191.666976 
L 79.686621 -192.725943 
L 79.082348 -193.78491 
L 78.51871 -194.843877 
L 77.996386 -195.902844 
L 77.509397 -196.961811 
L 77.045704 -198.020778 
L 76.588884 -199.079745 
L 76.120595 -200.138712 
L 75.623326 -201.19768 
L 75.082899 -202.256647 
L 74.490199 -203.315614 
L 73.841853 -204.374581 
L 73.139806 -205.433548 
L 72.390054 -206.492515 
L 71.60098 -207.551482 
L 70.781844 -208.610449 
L 69.941921 -209.669416 
L 69.090566 -210.728383 
L 68.238263 -211.787351 
L 67.398378 -212.846318 
L 66.589157 -213.905285 
L 65.835387 -214.964252 
L 65.169181 -216.023219 
L 64.629503 -217.082186 
L 64.260315 -218.141153 
L 64.107452 -219.20012 
L 64.214606 -220.259087 
L 64.618904 -221.318054 
L 65.346638 -222.377022 
L 66.409684 -223.435989 
L 67.803028 -224.494956 
L 69.503735 -225.553923 
L 71.4715 -226.61289 
L 73.650815 -227.671857 
L 75.974575 -228.730824 
L 78.368819 -229.789791 
L 80.758113 -230.848758 
L 83.071032 -231.907726 
L 85.245101 -232.966693 
L 87.230678 -234.02566 
L 88.993358 -235.084627 
L 90.514731 -236.143594 
L 91.791544 -237.202561 
L 92.833547 -238.261528 
L 93.660463 -239.320495 
L 94.298567 -240.379462 
L 94.777346 -241.438429 
L 95.126619 -242.497397 
L 95.374333 -243.556364 
L 96.325667 -243.556364 
L 96.325667 -243.556364 
L 96.573381 -242.497397 
L 96.922654 -241.438429 
L 97.401433 -240.379462 
L 98.039537 -239.320495 
L 98.866453 -238.261528 
L 99.908456 -237.202561 
L 101.185269 -236.143594 
L 102.706642 -235.084627 
L 104.469322 -234.02566 
L 106.454899 -232.966693 
L 108.628968 -231.907726 
L 110.941887 -230.848758 
L 113.331181 -229.789791 
L 115.725425 -228.730824 
L 118.049185 -227.671857 
L 120.2285 -226.61289 
L 122.196265 -225.553923 
L 123.896972 -224.494956 
L 125.290316 -223.435989 
L 126.353362 -222.377022 
L 127.081096 -221.318054 
L 127.485394 -220.259087 
L 127.592548 -219.20012 
L 127.439685 -218.141153 
L 127.070497 -217.082186 
L 126.530819 -216.023219 
L 125.864613 -214.964252 
L 125.110843 -213.905285 
L 124.301622 -212.846318 
L 123.461737 -211.787351 
L 122.609434 -210.728383 
L 121.758079 -209.669416 
L 120.918156 -208.610449 
L 120.09902 -207.551482 
L 119.309946 -206.492515 
L 118.560194 -205.433548 
L 117.858147 -204.374581 
L 117.209801 -203.315614 
L 116.617101 -202.256647 
L 116.076674 -201.19768 
L 115.579405 -200.138712 
L 115.111116 -199.079745 
L 114.654296 -198.020778 
L 114.190603 -196.961811 
L 113.703614 -195.902844 
L 113.18129 -194.843877 
L 112.617652 -193.78491 
L 112.013379 -192.725943 
L 111.375282 -191.666976 
L 110.714852 -190.608008 
L 110.046246 -189.549041 
L 109.384163 -188.490074 
L 108.74199 -187.431107 
L 108.130509 -186.37214 
L 107.557264 -185.313173 
L 107.026542 -184.254206 
L 106.539795 -183.195239 
L 106.096284 -182.136272 
L 105.69373 -181.077305 
L 105.328812 -180.018337 
L 104.997438 -178.95937 
L 104.694825 -177.900403 
L 104.415456 -176.841436 
L 104.153058 -175.782469 
L 103.900704 -174.723502 
L 103.651125 -173.664535 
L 103.397219 -172.605568 
L 103.132704 -171.546601 
L 102.85278 -170.487634 
L 102.554657 -169.428666 
L 102.237834 -168.369699 
L 101.904057 -167.310732 
L 101.556983 -166.251765 
L 101.2016 -165.192798 
L 100.843544 -164.133831 
L 100.488422 -163.074864 
L 100.141237 -162.015897 
L 99.805986 -160.95693 
L 99.485432 -159.897962 
L 99.181045 -158.838995 
L 98.89309 -157.780028 
L 98.620832 -156.721061 
L 98.362838 -155.662094 
L 98.117334 -154.603127 
L 97.8826 -153.54416 
L 97.657334 -152.485193 
L 97.440933 -151.426226 
L 97.23364 -150.367259 
L 97.036524 -149.308291 
L 96.851306 -148.249324 
L 96.680049 -147.190357 
L 96.524789 -146.13139 
L 96.387179 -145.072423 
L 96.268214 -144.013456 
L 96.16807 -142.954489 
L 96.08609 -141.895522 
L 96.020889 -140.836555 
L 95.970541 -139.777588 
L 95.932812 -138.71862 
z
" id="m34253b5c0a" style="stroke:#3d3d3d;stroke-width:1.5;"/>
    </defs>
    <g clip-path="url(#p3cd0b6958b)">
     <use style="fill:#3274a1;stroke:#3d3d3d;stroke-width:1.5;" x="0" xlink:href="#m34253b5c0a" y="288"/>
    </g>
   </g>
   <g id="PolyCollection_2">
    <defs>
     <path d="M 179.590698 -45.883636 
L 179.509302 -45.883636 
L 179.48052 -47.748933 
L 179.440801 -49.614229 
L 179.391959 -51.479526 
L 179.339238 -53.344822 
L 179.290639 -55.210119 
L 179.254568 -57.075416 
L 179.236432 -58.940712 
L 179.235614 -60.806009 
L 179.244483 -62.671305 
L 179.250303 -64.536602 
L 179.239702 -66.401898 
L 179.204108 -68.267195 
L 179.144031 -70.132491 
L 179.07029 -71.997788 
L 179.001319 -73.863084 
L 178.957216 -75.728381 
L 178.952762 -77.593677 
L 178.992304 -79.458974 
L 179.068711 -81.32427 
L 179.166639 -83.189567 
L 179.268326 -85.054863 
L 179.35914 -86.92016 
L 179.430728 -88.785457 
L 179.481183 -90.650753 
L 179.513092 -92.51605 
L 179.530891 -94.381346 
L 179.538647 -96.246643 
L 179.538674 -98.111939 
L 179.530909 -99.977236 
L 179.512808 -101.842532 
L 179.479738 -103.707829 
L 179.426014 -105.573125 
L 179.346682 -107.438422 
L 179.239738 -109.303718 
L 179.107881 -111.169015 
L 178.958651 -113.034311 
L 178.802211 -114.899608 
L 178.647277 -116.764904 
L 178.496898 -118.630201 
L 178.346247 -120.495498 
L 178.183628 -122.360794 
L 177.994085 -124.226091 
L 177.763427 -126.091387 
L 177.480238 -127.956684 
L 177.134621 -129.82198 
L 176.714478 -131.687277 
L 176.201686 -133.552573 
L 175.571008 -135.41787 
L 174.793676 -137.283166 
L 173.845773 -139.148463 
L 172.719265 -141.013759 
L 171.43159 -142.879056 
L 170.028868 -144.744352 
L 168.579045 -146.609649 
L 167.155021 -148.474946 
L 165.812755 -150.340242 
L 164.573074 -152.205539 
L 163.415792 -154.070835 
L 162.289868 -155.936132 
L 161.135579 -157.801428 
L 159.908411 -159.666725 
L 158.59357 -161.532021 
L 157.205966 -163.397318 
L 155.779574 -165.262614 
L 154.356033 -167.127911 
L 152.981027 -168.993207 
L 151.709582 -170.858504 
L 150.613669 -172.7238 
L 149.783006 -174.589097 
L 149.314107 -176.454393 
L 149.290117 -178.31969 
L 149.760069 -180.184987 
L 150.727179 -182.050283 
L 152.151363 -183.91558 
L 153.963656 -185.780876 
L 156.084133 -187.646173 
L 158.433881 -189.511469 
L 160.936468 -191.376766 
L 163.511917 -193.242062 
L 166.071145 -195.107359 
L 168.51796 -196.972655 
L 170.759983 -198.837952 
L 172.723687 -200.703248 
L 174.366368 -202.568545 
L 175.680094 -204.433841 
L 176.687212 -206.299138 
L 177.430589 -208.164434 
L 177.962763 -210.029731 
L 178.336965 -211.895028 
L 178.601057 -213.760324 
L 178.794052 -215.625621 
L 178.94453 -217.490917 
L 179.070542 -219.356214 
L 179.180905 -221.22151 
L 179.277747 -223.086807 
L 179.359739 -224.952103 
L 179.425073 -226.8174 
L 179.473388 -228.682696 
L 179.506305 -230.547993 
L 179.593695 -230.547993 
L 179.593695 -230.547993 
L 179.626612 -228.682696 
L 179.674927 -226.8174 
L 179.740261 -224.952103 
L 179.822253 -223.086807 
L 179.919095 -221.22151 
L 180.029458 -219.356214 
L 180.15547 -217.490917 
L 180.305948 -215.625621 
L 180.498943 -213.760324 
L 180.763035 -211.895028 
L 181.137237 -210.029731 
L 181.669411 -208.164434 
L 182.412788 -206.299138 
L 183.419906 -204.433841 
L 184.733632 -202.568545 
L 186.376313 -200.703248 
L 188.340017 -198.837952 
L 190.58204 -196.972655 
L 193.028855 -195.107359 
L 195.588083 -193.242062 
L 198.163532 -191.376766 
L 200.666119 -189.511469 
L 203.015867 -187.646173 
L 205.136344 -185.780876 
L 206.948637 -183.91558 
L 208.372821 -182.050283 
L 209.339931 -180.184987 
L 209.809883 -178.31969 
L 209.785893 -176.454393 
L 209.316994 -174.589097 
L 208.486331 -172.7238 
L 207.390418 -170.858504 
L 206.118973 -168.993207 
L 204.743967 -167.127911 
L 203.320426 -165.262614 
L 201.894034 -163.397318 
L 200.50643 -161.532021 
L 199.191589 -159.666725 
L 197.964421 -157.801428 
L 196.810132 -155.936132 
L 195.684208 -154.070835 
L 194.526926 -152.205539 
L 193.287245 -150.340242 
L 191.944979 -148.474946 
L 190.520955 -146.609649 
L 189.071132 -144.744352 
L 187.66841 -142.879056 
L 186.380735 -141.013759 
L 185.254227 -139.148463 
L 184.306324 -137.283166 
L 183.528992 -135.41787 
L 182.898314 -133.552573 
L 182.385522 -131.687277 
L 181.965379 -129.82198 
L 181.619762 -127.956684 
L 181.336573 -126.091387 
L 181.105915 -124.226091 
L 180.916372 -122.360794 
L 180.753753 -120.495498 
L 180.603102 -118.630201 
L 180.452723 -116.764904 
L 180.297789 -114.899608 
L 180.141349 -113.034311 
L 179.992119 -111.169015 
L 179.860262 -109.303718 
L 179.753318 -107.438422 
L 179.673986 -105.573125 
L 179.620262 -103.707829 
L 179.587192 -101.842532 
L 179.569091 -99.977236 
L 179.561326 -98.111939 
L 179.561353 -96.246643 
L 179.569109 -94.381346 
L 179.586908 -92.51605 
L 179.618817 -90.650753 
L 179.669272 -88.785457 
L 179.74086 -86.92016 
L 179.831674 -85.054863 
L 179.933361 -83.189567 
L 180.031289 -81.32427 
L 180.107696 -79.458974 
L 180.147238 -77.593677 
L 180.142784 -75.728381 
L 180.098681 -73.863084 
L 180.02971 -71.997788 
L 179.955969 -70.132491 
L 179.895892 -68.267195 
L 179.860298 -66.401898 
L 179.849697 -64.536602 
L 179.855517 -62.671305 
L 179.864386 -60.806009 
L 179.863568 -58.940712 
L 179.845432 -57.075416 
L 179.809361 -55.210119 
L 179.760762 -53.344822 
L 179.708041 -51.479526 
L 179.659199 -49.614229 
L 179.61948 -47.748933 
L 179.590698 -45.883636 
z
" id="m1ae6a110bf" style="stroke:#3d3d3d;stroke-width:1.5;"/>
    </defs>
    <g clip-path="url(#p3cd0b6958b)">
     <use style="fill:#e1812c;stroke:#3d3d3d;stroke-width:1.5;" x="0" xlink:href="#m1ae6a110bf" y="288"/>
    </g>
   </g>
   <g id="PolyCollection_3">
    <defs>
     <path d="M 263.31392 -78.051097 
L 263.18608 -78.051097 
L 263.137921 -79.574158 
L 263.065899 -81.09722 
L 262.966532 -82.620281 
L 262.840637 -84.143343 
L 262.695267 -85.666404 
L 262.54426 -87.189466 
L 262.406552 -88.712527 
L 262.302125 -90.235589 
L 262.246551 -91.75865 
L 262.246064 -93.281712 
L 262.295242 -94.804773 
L 262.378571 -96.327835 
L 262.475472 -97.850896 
L 262.566758 -99.373957 
L 262.639815 -100.897019 
L 262.690507 -102.42008 
L 262.72155 -103.943142 
L 262.738834 -105.466203 
L 262.747898 -106.989265 
L 262.752118 -108.512326 
L 262.752661 -110.035388 
L 262.748999 -111.558449 
L 262.738532 -113.081511 
L 262.714816 -114.604572 
L 262.665209 -116.127634 
L 262.569553 -117.650695 
L 262.401293 -119.173757 
L 262.131311 -120.696818 
L 261.733586 -122.21988 
L 261.191077 -123.742941 
L 260.500263 -125.266003 
L 259.67321 -126.789064 
L 258.736587 -128.312126 
L 257.727499 -129.835187 
L 256.686533 -131.358249 
L 255.649142 -132.88131 
L 254.637275 -134.404371 
L 253.653641 -135.927433 
L 252.680659 -137.450494 
L 251.685017 -138.973556 
L 250.62696 -140.496617 
L 249.471716 -142.019679 
L 248.199427 -143.54274 
L 246.810197 -145.065802 
L 245.322587 -146.588863 
L 243.766655 -148.111925 
L 242.175042 -149.634986 
L 240.57629 -151.158048 
L 238.992892 -152.681109 
L 237.443676 -154.204171 
L 235.947982 -155.727232 
L 234.529151 -157.250294 
L 233.216506 -158.773355 
L 232.046479 -160.296417 
L 231.06336 -161.819478 
L 230.318894 -163.34254 
L 229.869386 -164.865601 
L 229.77 -166.388662 
L 230.067628 -167.911724 
L 230.79422 -169.434785 
L 231.961309 -170.957847 
L 233.555189 -172.480908 
L 235.532693 -174.00397 
L 237.819506 -175.527031 
L 240.314172 -177.050093 
L 242.899297 -178.573154 
L 245.457658 -180.096216 
L 247.887883 -181.619277 
L 250.114723 -183.142339 
L 252.092208 -184.6654 
L 253.801529 -186.188462 
L 255.246837 -187.711523 
L 256.450948 -189.234585 
L 257.450942 -190.757646 
L 258.292574 -192.280708 
L 259.022898 -193.803769 
L 259.681978 -195.326831 
L 260.295865 -196.849892 
L 260.873304 -198.372954 
L 261.407522 -199.896015 
L 261.882441 -201.419076 
L 262.280785 -202.942138 
L 262.59099 -204.465199 
L 262.810731 -205.988261 
L 262.946812 -207.511322 
L 263.012719 -209.034384 
L 263.025649 -210.557445 
L 263.004161 -212.080507 
L 262.966557 -213.603568 
L 262.929445 -215.12663 
L 262.906041 -216.649691 
L 262.904432 -218.172753 
L 262.926517 -219.695814 
L 262.968366 -221.218876 
L 263.022093 -222.741937 
L 263.078618 -224.264999 
L 263.130251 -225.78806 
L 263.172256 -227.311122 
L 263.203103 -228.834183 
L 263.296897 -228.834183 
L 263.296897 -228.834183 
L 263.327744 -227.311122 
L 263.369749 -225.78806 
L 263.421382 -224.264999 
L 263.477907 -222.741937 
L 263.531634 -221.218876 
L 263.573483 -219.695814 
L 263.595568 -218.172753 
L 263.593959 -216.649691 
L 263.570555 -215.12663 
L 263.533443 -213.603568 
L 263.495839 -212.080507 
L 263.474351 -210.557445 
L 263.487281 -209.034384 
L 263.553188 -207.511322 
L 263.689269 -205.988261 
L 263.90901 -204.465199 
L 264.219215 -202.942138 
L 264.617559 -201.419076 
L 265.092478 -199.896015 
L 265.626696 -198.372954 
L 266.204135 -196.849892 
L 266.818022 -195.326831 
L 267.477102 -193.803769 
L 268.207426 -192.280708 
L 269.049058 -190.757646 
L 270.049052 -189.234585 
L 271.253163 -187.711523 
L 272.698471 -186.188462 
L 274.407792 -184.6654 
L 276.385277 -183.142339 
L 278.612117 -181.619277 
L 281.042342 -180.096216 
L 283.600703 -178.573154 
L 286.185828 -177.050093 
L 288.680494 -175.527031 
L 290.967307 -174.00397 
L 292.944811 -172.480908 
L 294.538691 -170.957847 
L 295.70578 -169.434785 
L 296.432372 -167.911724 
L 296.73 -166.388662 
L 296.630614 -164.865601 
L 296.181106 -163.34254 
L 295.43664 -161.819478 
L 294.453521 -160.296417 
L 293.283494 -158.773355 
L 291.970849 -157.250294 
L 290.552018 -155.727232 
L 289.056324 -154.204171 
L 287.507108 -152.681109 
L 285.92371 -151.158048 
L 284.324958 -149.634986 
L 282.733345 -148.111925 
L 281.177413 -146.588863 
L 279.689803 -145.065802 
L 278.300573 -143.54274 
L 277.028284 -142.019679 
L 275.87304 -140.496617 
L 274.814983 -138.973556 
L 273.819341 -137.450494 
L 272.846359 -135.927433 
L 271.862725 -134.404371 
L 270.850858 -132.88131 
L 269.813467 -131.358249 
L 268.772501 -129.835187 
L 267.763413 -128.312126 
L 266.82679 -126.789064 
L 265.999737 -125.266003 
L 265.308923 -123.742941 
L 264.766414 -122.21988 
L 264.368689 -120.696818 
L 264.098707 -119.173757 
L 263.930447 -117.650695 
L 263.834791 -116.127634 
L 263.785184 -114.604572 
L 263.761468 -113.081511 
L 263.751001 -111.558449 
L 263.747339 -110.035388 
L 263.747882 -108.512326 
L 263.752102 -106.989265 
L 263.761166 -105.466203 
L 263.77845 -103.943142 
L 263.809493 -102.42008 
L 263.860185 -100.897019 
L 263.933242 -99.373957 
L 264.024528 -97.850896 
L 264.121429 -96.327835 
L 264.204758 -94.804773 
L 264.253936 -93.281712 
L 264.253449 -91.75865 
L 264.197875 -90.235589 
L 264.093448 -88.712527 
L 263.95574 -87.189466 
L 263.804733 -85.666404 
L 263.659363 -84.143343 
L 263.533468 -82.620281 
L 263.434101 -81.09722 
L 263.362079 -79.574158 
L 263.31392 -78.051097 
z
" id="mdc9c95f049" style="stroke:#3d3d3d;stroke-width:1.5;"/>
    </defs>
    <g clip-path="url(#p3cd0b6958b)">
     <use style="fill:#3a923a;stroke:#3d3d3d;stroke-width:1.5;" x="0" xlink:href="#mdc9c95f049" y="288"/>
    </g>
   </g>
   <g id="PolyCollection_4">
    <defs>
     <path d="M 346.993865 -64.031298 
L 346.906135 -64.031298 
L 346.876466 -65.704289 
L 346.835835 -67.37728 
L 346.785797 -69.050271 
L 346.731064 -70.723262 
L 346.678993 -72.396253 
L 346.637556 -74.069244 
L 346.612163 -75.742234 
L 346.602452 -77.415225 
L 346.600494 -79.088216 
L 346.591553 -80.761207 
L 346.557682 -82.434198 
L 346.483426 -84.107189 
L 346.362041 -85.78018 
L 346.200062 -87.453171 
L 346.018123 -89.126162 
L 345.846756 -90.799153 
L 345.71763 -92.472144 
L 345.652822 -94.145135 
L 345.656024 -95.818126 
L 345.709275 -97.491117 
L 345.77665 -99.164107 
L 345.813506 -100.837098 
L 345.777821 -102.510089 
L 345.639838 -104.18308 
L 345.387379 -105.856071 
L 345.026088 -107.529062 
L 344.575419 -109.202053 
L 344.062187 -110.875044 
L 343.513699 -112.548035 
L 342.952188 -114.221026 
L 342.391403 -115.894017 
L 341.835267 -117.567008 
L 341.277802 -119.239999 
L 340.703562 -120.91299 
L 340.088446 -122.58598 
L 339.401522 -124.258971 
L 338.608644 -125.931962 
L 337.677975 -127.604953 
L 336.586346 -129.277944 
L 335.324618 -130.950935 
L 333.900465 -132.623926 
L 332.338193 -134.296917 
L 330.676457 -135.969908 
L 328.964922 -137.642899 
L 327.26013 -139.31589 
L 325.619896 -140.988881 
L 324.095838 -142.661872 
L 322.725006 -144.334863 
L 321.522906 -146.007853 
L 320.480359 -147.680844 
L 319.565795 -149.353835 
L 318.733879 -151.026826 
L 317.940997 -152.699817 
L 317.16671 -154.372808 
L 316.436428 -156.045799 
L 315.835759 -157.71879 
L 315.505683 -159.391781 
L 315.613488 -161.064772 
L 316.305951 -162.737763 
L 317.661744 -164.410754 
L 319.662191 -166.083745 
L 322.191478 -167.756736 
L 325.064214 -169.429726 
L 328.067794 -171.102717 
L 331.004095 -172.775708 
L 333.719133 -174.448699 
L 336.116294 -176.12169 
L 338.154877 -177.794681 
L 339.839006 -179.467672 
L 341.202693 -181.140663 
L 342.295579 -182.813654 
L 343.171677 -184.486645 
L 343.881461 -186.159636 
L 344.466628 -187.832627 
L 344.957064 -189.505618 
L 345.370177 -191.178609 
L 345.71302 -192.851599 
L 345.986902 -194.52459 
L 346.193073 -196.197581 
L 346.337286 -197.870572 
L 346.431348 -199.543563 
L 346.491158 -201.216554 
L 346.532365 -202.889545 
L 346.565949 -204.562536 
L 346.595937 -206.235527 
L 346.620316 -207.908518 
L 346.634552 -209.581509 
L 346.635893 -211.2545 
L 346.626323 -212.927491 
L 346.612843 -214.600482 
L 346.605087 -216.273472 
L 346.611571 -217.946463 
L 346.63644 -219.619454 
L 346.678169 -221.292445 
L 346.730605 -222.965436 
L 346.785582 -224.638427 
L 346.835746 -226.311418 
L 346.876433 -227.984409 
L 346.906124 -229.6574 
L 346.993876 -229.6574 
L 346.993876 -229.6574 
L 347.023567 -227.984409 
L 347.064254 -226.311418 
L 347.114418 -224.638427 
L 347.169395 -222.965436 
L 347.221831 -221.292445 
L 347.26356 -219.619454 
L 347.288429 -217.946463 
L 347.294913 -216.273472 
L 347.287157 -214.600482 
L 347.273677 -212.927491 
L 347.264107 -211.2545 
L 347.265448 -209.581509 
L 347.279684 -207.908518 
L 347.304063 -206.235527 
L 347.334051 -204.562536 
L 347.367635 -202.889545 
L 347.408842 -201.216554 
L 347.468652 -199.543563 
L 347.562714 -197.870572 
L 347.706927 -196.197581 
L 347.913098 -194.52459 
L 348.18698 -192.851599 
L 348.529823 -191.178609 
L 348.942936 -189.505618 
L 349.433372 -187.832627 
L 350.018539 -186.159636 
L 350.728323 -184.486645 
L 351.604421 -182.813654 
L 352.697307 -181.140663 
L 354.060994 -179.467672 
L 355.745123 -177.794681 
L 357.783706 -176.12169 
L 360.180867 -174.448699 
L 362.895905 -172.775708 
L 365.832206 -171.102717 
L 368.835786 -169.429726 
L 371.708522 -167.756736 
L 374.237809 -166.083745 
L 376.238256 -164.410754 
L 377.594049 -162.737763 
L 378.286512 -161.064772 
L 378.394317 -159.391781 
L 378.064241 -157.71879 
L 377.463572 -156.045799 
L 376.73329 -154.372808 
L 375.959003 -152.699817 
L 375.166121 -151.026826 
L 374.334205 -149.353835 
L 373.419641 -147.680844 
L 372.377094 -146.007853 
L 371.174994 -144.334863 
L 369.804162 -142.661872 
L 368.280104 -140.988881 
L 366.63987 -139.31589 
L 364.935078 -137.642899 
L 363.223543 -135.969908 
L 361.561807 -134.296917 
L 359.999535 -132.623926 
L 358.575382 -130.950935 
L 357.313654 -129.277944 
L 356.222025 -127.604953 
L 355.291356 -125.931962 
L 354.498478 -124.258971 
L 353.811554 -122.58598 
L 353.196438 -120.91299 
L 352.622198 -119.239999 
L 352.064733 -117.567008 
L 351.508597 -115.894017 
L 350.947812 -114.221026 
L 350.386301 -112.548035 
L 349.837813 -110.875044 
L 349.324581 -109.202053 
L 348.873912 -107.529062 
L 348.512621 -105.856071 
L 348.260162 -104.18308 
L 348.122179 -102.510089 
L 348.086494 -100.837098 
L 348.12335 -99.164107 
L 348.190725 -97.491117 
L 348.243976 -95.818126 
L 348.247178 -94.145135 
L 348.18237 -92.472144 
L 348.053244 -90.799153 
L 347.881877 -89.126162 
L 347.699938 -87.453171 
L 347.537959 -85.78018 
L 347.416574 -84.107189 
L 347.342318 -82.434198 
L 347.308447 -80.761207 
L 347.299506 -79.088216 
L 347.297548 -77.415225 
L 347.287837 -75.742234 
L 347.262444 -74.069244 
L 347.221007 -72.396253 
L 347.168936 -70.723262 
L 347.114203 -69.050271 
L 347.064165 -67.37728 
L 347.023534 -65.704289 
L 346.993865 -64.031298 
z
" id="mac00dbaced" style="stroke:#3d3d3d;stroke-width:1.5;"/>
    </defs>
    <g clip-path="url(#p3cd0b6958b)">
     <use style="fill:#c03d3e;stroke:#3d3d3d;stroke-width:1.5;" x="0" xlink:href="#mac00dbaced" y="288"/>
    </g>
   </g>
   <g id="matplotlib.axis_1">
    <g id="xtick_1">
     <g id="line2d_1">
      <defs>
       <path d="M 0 0 
L 0 3.5 
" id="m7213c9d7ed" style="stroke:#000000;stroke-width:0.8;"/>
      </defs>
      <g>
       <use style="stroke:#000000;stroke-width:0.8;" x="95.85" xlink:href="#m7213c9d7ed" y="252"/>
      </g>
     </g>
     <g id="text_1">
      <!-- 2 -->
      <defs>
       <path d="M 19.1875 8.296875 
L 53.609375 8.296875 
L 53.609375 0 
L 7.328125 0 
L 7.328125 8.296875 
Q 12.9375 14.109375 22.625 23.890625 
Q 32.328125 33.6875 34.8125 36.53125 
Q 39.546875 41.84375 41.421875 45.53125 
Q 43.3125 49.21875 43.3125 52.78125 
Q 43.3125 58.59375 39.234375 62.25 
Q 35.15625 65.921875 28.609375 65.921875 
Q 23.96875 65.921875 18.8125 64.3125 
Q 13.671875 62.703125 7.8125 59.421875 
L 7.8125 69.390625 
Q 13.765625 71.78125 18.9375 73 
Q 24.125 74.21875 28.421875 74.21875 
Q 39.75 74.21875 46.484375 68.546875 
Q 53.21875 62.890625 53.21875 53.421875 
Q 53.21875 48.921875 51.53125 44.890625 
Q 49.859375 40.875 45.40625 35.40625 
Q 44.1875 33.984375 37.640625 27.21875 
Q 31.109375 20.453125 19.1875 8.296875 
z
" id="DejaVuSans-50"/>
      </defs>
      <g transform="translate(92.66875 266.598437)scale(0.1 -0.1)">
       <use xlink:href="#DejaVuSans-50"/>
      </g>
     </g>
    </g>
    <g id="xtick_2">
     <g id="line2d_2">
      <g>
       <use style="stroke:#000000;stroke-width:0.8;" x="179.55" xlink:href="#m7213c9d7ed" y="252"/>
      </g>
     </g>
     <g id="text_2">
      <!-- 5 -->
      <defs>
       <path d="M 10.796875 72.90625 
L 49.515625 72.90625 
L 49.515625 64.59375 
L 19.828125 64.59375 
L 19.828125 46.734375 
Q 21.96875 47.46875 24.109375 47.828125 
Q 26.265625 48.1875 28.421875 48.1875 
Q 40.625 48.1875 47.75 41.5 
Q 54.890625 34.8125 54.890625 23.390625 
Q 54.890625 11.625 47.5625 5.09375 
Q 40.234375 -1.421875 26.90625 -1.421875 
Q 22.3125 -1.421875 17.546875 -0.640625 
Q 12.796875 0.140625 7.71875 1.703125 
L 7.71875 11.625 
Q 12.109375 9.234375 16.796875 8.0625 
Q 21.484375 6.890625 26.703125 6.890625 
Q 35.15625 6.890625 40.078125 11.328125 
Q 45.015625 15.765625 45.015625 23.390625 
Q 45.015625 31 40.078125 35.4375 
Q 35.15625 39.890625 26.703125 39.890625 
Q 22.75 39.890625 18.8125 39.015625 
Q 14.890625 38.140625 10.796875 36.28125 
z
" id="DejaVuSans-53"/>
      </defs>
      <g transform="translate(176.36875 266.598437)scale(0.1 -0.1)">
       <use xlink:href="#DejaVuSans-53"/>
      </g>
     </g>
    </g>
    <g id="xtick_3">
     <g id="line2d_3">
      <g>
       <use style="stroke:#000000;stroke-width:0.8;" x="263.25" xlink:href="#m7213c9d7ed" y="252"/>
      </g>
     </g>
     <g id="text_3">
      <!-- 7 -->
      <defs>
       <path d="M 8.203125 72.90625 
L 55.078125 72.90625 
L 55.078125 68.703125 
L 28.609375 0 
L 18.3125 0 
L 43.21875 64.59375 
L 8.203125 64.59375 
z
" id="DejaVuSans-55"/>
      </defs>
      <g transform="translate(260.06875 266.598437)scale(0.1 -0.1)">
       <use xlink:href="#DejaVuSans-55"/>
      </g>
     </g>
    </g>
    <g id="xtick_4">
     <g id="line2d_4">
      <g>
       <use style="stroke:#000000;stroke-width:0.8;" x="346.95" xlink:href="#m7213c9d7ed" y="252"/>
      </g>
     </g>
     <g id="text_4">
      <!-- 10 -->
      <defs>
       <path d="M 12.40625 8.296875 
L 28.515625 8.296875 
L 28.515625 63.921875 
L 10.984375 60.40625 
L 10.984375 69.390625 
L 28.421875 72.90625 
L 38.28125 72.90625 
L 38.28125 8.296875 
L 54.390625 8.296875 
L 54.390625 0 
L 12.40625 0 
z
" id="DejaVuSans-49"/>
       <path d="M 31.78125 66.40625 
Q 24.171875 66.40625 20.328125 58.90625 
Q 16.5 51.421875 16.5 36.375 
Q 16.5 21.390625 20.328125 13.890625 
Q 24.171875 6.390625 31.78125 6.390625 
Q 39.453125 6.390625 43.28125 13.890625 
Q 47.125 21.390625 47.125 36.375 
Q 47.125 51.421875 43.28125 58.90625 
Q 39.453125 66.40625 31.78125 66.40625 
z
M 31.78125 74.21875 
Q 44.046875 74.21875 50.515625 64.515625 
Q 56.984375 54.828125 56.984375 36.375 
Q 56.984375 17.96875 50.515625 8.265625 
Q 44.046875 -1.421875 31.78125 -1.421875 
Q 19.53125 -1.421875 13.0625 8.265625 
Q 6.59375 17.96875 6.59375 36.375 
Q 6.59375 54.828125 13.0625 64.515625 
Q 19.53125 74.21875 31.78125 74.21875 
z
" id="DejaVuSans-48"/>
      </defs>
      <g transform="translate(340.5875 266.598437)scale(0.1 -0.1)">
       <use xlink:href="#DejaVuSans-49"/>
       <use x="63.623047" xlink:href="#DejaVuSans-48"/>
      </g>
     </g>
    </g>
    <g id="text_5">
     <!-- k -->
     <defs>
      <path d="M 9.078125 75.984375 
L 18.109375 75.984375 
L 18.109375 31.109375 
L 44.921875 54.6875 
L 56.390625 54.6875 
L 27.390625 29.109375 
L 57.625 0 
L 45.90625 0 
L 18.109375 26.703125 
L 18.109375 0 
L 9.078125 0 
z
" id="DejaVuSans-107"/>
     </defs>
     <g transform="translate(218.504688 280.276563)scale(0.1 -0.1)">
      <use xlink:href="#DejaVuSans-107"/>
     </g>
    </g>
   </g>
   <g id="matplotlib.axis_2">
    <g id="ytick_1">
     <g id="line2d_5">
      <defs>
       <path d="M 0 0 
L -3.5 0 
" id="mf4b635d410" style="stroke:#000000;stroke-width:0.8;"/>
      </defs>
      <g>
       <use style="stroke:#000000;stroke-width:0.8;" x="54" xlink:href="#mf4b635d410" y="249.875184"/>
      </g>
     </g>
     <g id="text_6">
      <!-- 0.3 -->
      <defs>
       <path d="M 10.6875 12.40625 
L 21 12.40625 
L 21 0 
L 10.6875 0 
z
" id="DejaVuSans-46"/>
       <path d="M 40.578125 39.3125 
Q 47.65625 37.796875 51.625 33 
Q 55.609375 28.21875 55.609375 21.1875 
Q 55.609375 10.40625 48.1875 4.484375 
Q 40.765625 -1.421875 27.09375 -1.421875 
Q 22.515625 -1.421875 17.65625 -0.515625 
Q 12.796875 0.390625 7.625 2.203125 
L 7.625 11.71875 
Q 11.71875 9.328125 16.59375 8.109375 
Q 21.484375 6.890625 26.8125 6.890625 
Q 36.078125 6.890625 40.9375 10.546875 
Q 45.796875 14.203125 45.796875 21.1875 
Q 45.796875 27.640625 41.28125 31.265625 
Q 36.765625 34.90625 28.71875 34.90625 
L 20.21875 34.90625 
L 20.21875 43.015625 
L 29.109375 43.015625 
Q 36.375 43.015625 40.234375 45.921875 
Q 44.09375 48.828125 44.09375 54.296875 
Q 44.09375 59.90625 40.109375 62.90625 
Q 36.140625 65.921875 28.71875 65.921875 
Q 24.65625 65.921875 20.015625 65.03125 
Q 15.375 64.15625 9.8125 62.3125 
L 9.8125 71.09375 
Q 15.4375 72.65625 20.34375 73.4375 
Q 25.25 74.21875 29.59375 74.21875 
Q 40.828125 74.21875 47.359375 69.109375 
Q 53.90625 64.015625 53.90625 55.328125 
Q 53.90625 49.265625 50.4375 45.09375 
Q 46.96875 40.921875 40.578125 39.3125 
z
" id="DejaVuSans-51"/>
      </defs>
      <g transform="translate(31.096875 253.674403)scale(0.1 -0.1)">
       <use xlink:href="#DejaVuSans-48"/>
       <use x="63.623047" xlink:href="#DejaVuSans-46"/>
       <use x="95.410156" xlink:href="#DejaVuSans-51"/>
      </g>
     </g>
    </g>
    <g id="ytick_2">
     <g id="line2d_6">
      <g>
       <use style="stroke:#000000;stroke-width:0.8;" x="54" xlink:href="#mf4b635d410" y="222.263874"/>
      </g>
     </g>
     <g id="text_7">
      <!-- 0.4 -->
      <defs>
       <path d="M 37.796875 64.3125 
L 12.890625 25.390625 
L 37.796875 25.390625 
z
M 35.203125 72.90625 
L 47.609375 72.90625 
L 47.609375 25.390625 
L 58.015625 25.390625 
L 58.015625 17.1875 
L 47.609375 17.1875 
L 47.609375 0 
L 37.796875 0 
L 37.796875 17.1875 
L 4.890625 17.1875 
L 4.890625 26.703125 
z
" id="DejaVuSans-52"/>
      </defs>
      <g transform="translate(31.096875 226.063093)scale(0.1 -0.1)">
       <use xlink:href="#DejaVuSans-48"/>
       <use x="63.623047" xlink:href="#DejaVuSans-46"/>
       <use x="95.410156" xlink:href="#DejaVuSans-52"/>
      </g>
     </g>
    </g>
    <g id="ytick_3">
     <g id="line2d_7">
      <g>
       <use style="stroke:#000000;stroke-width:0.8;" x="54" xlink:href="#mf4b635d410" y="194.652564"/>
      </g>
     </g>
     <g id="text_8">
      <!-- 0.5 -->
      <g transform="translate(31.096875 198.451783)scale(0.1 -0.1)">
       <use xlink:href="#DejaVuSans-48"/>
       <use x="63.623047" xlink:href="#DejaVuSans-46"/>
       <use x="95.410156" xlink:href="#DejaVuSans-53"/>
      </g>
     </g>
    </g>
    <g id="ytick_4">
     <g id="line2d_8">
      <g>
       <use style="stroke:#000000;stroke-width:0.8;" x="54" xlink:href="#mf4b635d410" y="167.041254"/>
      </g>
     </g>
     <g id="text_9">
      <!-- 0.6 -->
      <defs>
       <path d="M 33.015625 40.375 
Q 26.375 40.375 22.484375 35.828125 
Q 18.609375 31.296875 18.609375 23.390625 
Q 18.609375 15.53125 22.484375 10.953125 
Q 26.375 6.390625 33.015625 6.390625 
Q 39.65625 6.390625 43.53125 10.953125 
Q 47.40625 15.53125 47.40625 23.390625 
Q 47.40625 31.296875 43.53125 35.828125 
Q 39.65625 40.375 33.015625 40.375 
z
M 52.59375 71.296875 
L 52.59375 62.3125 
Q 48.875 64.0625 45.09375 64.984375 
Q 41.3125 65.921875 37.59375 65.921875 
Q 27.828125 65.921875 22.671875 59.328125 
Q 17.53125 52.734375 16.796875 39.40625 
Q 19.671875 43.65625 24.015625 45.921875 
Q 28.375 48.1875 33.59375 48.1875 
Q 44.578125 48.1875 50.953125 41.515625 
Q 57.328125 34.859375 57.328125 23.390625 
Q 57.328125 12.15625 50.6875 5.359375 
Q 44.046875 -1.421875 33.015625 -1.421875 
Q 20.359375 -1.421875 13.671875 8.265625 
Q 6.984375 17.96875 6.984375 36.375 
Q 6.984375 53.65625 15.1875 63.9375 
Q 23.390625 74.21875 37.203125 74.21875 
Q 40.921875 74.21875 44.703125 73.484375 
Q 48.484375 72.75 52.59375 71.296875 
z
" id="DejaVuSans-54"/>
      </defs>
      <g transform="translate(31.096875 170.840473)scale(0.1 -0.1)">
       <use xlink:href="#DejaVuSans-48"/>
       <use x="63.623047" xlink:href="#DejaVuSans-46"/>
       <use x="95.410156" xlink:href="#DejaVuSans-54"/>
      </g>
     </g>
    </g>
    <g id="ytick_5">
     <g id="line2d_9">
      <g>
       <use style="stroke:#000000;stroke-width:0.8;" x="54" xlink:href="#mf4b635d410" y="139.429944"/>
      </g>
     </g>
     <g id="text_10">
      <!-- 0.7 -->
      <g transform="translate(31.096875 143.229163)scale(0.1 -0.1)">
       <use xlink:href="#DejaVuSans-48"/>
       <use x="63.623047" xlink:href="#DejaVuSans-46"/>
       <use x="95.410156" xlink:href="#DejaVuSans-55"/>
      </g>
     </g>
    </g>
    <g id="ytick_6">
     <g id="line2d_10">
      <g>
       <use style="stroke:#000000;stroke-width:0.8;" x="54" xlink:href="#mf4b635d410" y="111.818634"/>
      </g>
     </g>
     <g id="text_11">
      <!-- 0.8 -->
      <defs>
       <path d="M 31.78125 34.625 
Q 24.75 34.625 20.71875 30.859375 
Q 16.703125 27.09375 16.703125 20.515625 
Q 16.703125 13.921875 20.71875 10.15625 
Q 24.75 6.390625 31.78125 6.390625 
Q 38.8125 6.390625 42.859375 10.171875 
Q 46.921875 13.96875 46.921875 20.515625 
Q 46.921875 27.09375 42.890625 30.859375 
Q 38.875 34.625 31.78125 34.625 
z
M 21.921875 38.8125 
Q 15.578125 40.375 12.03125 44.71875 
Q 8.5 49.078125 8.5 55.328125 
Q 8.5 64.0625 14.71875 69.140625 
Q 20.953125 74.21875 31.78125 74.21875 
Q 42.671875 74.21875 48.875 69.140625 
Q 55.078125 64.0625 55.078125 55.328125 
Q 55.078125 49.078125 51.53125 44.71875 
Q 48 40.375 41.703125 38.8125 
Q 48.828125 37.15625 52.796875 32.3125 
Q 56.78125 27.484375 56.78125 20.515625 
Q 56.78125 9.90625 50.3125 4.234375 
Q 43.84375 -1.421875 31.78125 -1.421875 
Q 19.734375 -1.421875 13.25 4.234375 
Q 6.78125 9.90625 6.78125 20.515625 
Q 6.78125 27.484375 10.78125 32.3125 
Q 14.796875 37.15625 21.921875 38.8125 
z
M 18.3125 54.390625 
Q 18.3125 48.734375 21.84375 45.5625 
Q 25.390625 42.390625 31.78125 42.390625 
Q 38.140625 42.390625 41.71875 45.5625 
Q 45.3125 48.734375 45.3125 54.390625 
Q 45.3125 60.0625 41.71875 63.234375 
Q 38.140625 66.40625 31.78125 66.40625 
Q 25.390625 66.40625 21.84375 63.234375 
Q 18.3125 60.0625 18.3125 54.390625 
z
" id="DejaVuSans-56"/>
      </defs>
      <g transform="translate(31.096875 115.617853)scale(0.1 -0.1)">
       <use xlink:href="#DejaVuSans-48"/>
       <use x="63.623047" xlink:href="#DejaVuSans-46"/>
       <use x="95.410156" xlink:href="#DejaVuSans-56"/>
      </g>
     </g>
    </g>
    <g id="ytick_7">
     <g id="line2d_11">
      <g>
       <use style="stroke:#000000;stroke-width:0.8;" x="54" xlink:href="#mf4b635d410" y="84.207324"/>
      </g>
     </g>
     <g id="text_12">
      <!-- 0.9 -->
      <defs>
       <path d="M 10.984375 1.515625 
L 10.984375 10.5 
Q 14.703125 8.734375 18.5 7.8125 
Q 22.3125 6.890625 25.984375 6.890625 
Q 35.75 6.890625 40.890625 13.453125 
Q 46.046875 20.015625 46.78125 33.40625 
Q 43.953125 29.203125 39.59375 26.953125 
Q 35.25 24.703125 29.984375 24.703125 
Q 19.046875 24.703125 12.671875 31.3125 
Q 6.296875 37.9375 6.296875 49.421875 
Q 6.296875 60.640625 12.9375 67.421875 
Q 19.578125 74.21875 30.609375 74.21875 
Q 43.265625 74.21875 49.921875 64.515625 
Q 56.59375 54.828125 56.59375 36.375 
Q 56.59375 19.140625 48.40625 8.859375 
Q 40.234375 -1.421875 26.421875 -1.421875 
Q 22.703125 -1.421875 18.890625 -0.6875 
Q 15.09375 0.046875 10.984375 1.515625 
z
M 30.609375 32.421875 
Q 37.25 32.421875 41.125 36.953125 
Q 45.015625 41.5 45.015625 49.421875 
Q 45.015625 57.28125 41.125 61.84375 
Q 37.25 66.40625 30.609375 66.40625 
Q 23.96875 66.40625 20.09375 61.84375 
Q 16.21875 57.28125 16.21875 49.421875 
Q 16.21875 41.5 20.09375 36.953125 
Q 23.96875 32.421875 30.609375 32.421875 
z
" id="DejaVuSans-57"/>
      </defs>
      <g transform="translate(31.096875 88.006543)scale(0.1 -0.1)">
       <use xlink:href="#DejaVuSans-48"/>
       <use x="63.623047" xlink:href="#DejaVuSans-46"/>
       <use x="95.410156" xlink:href="#DejaVuSans-57"/>
      </g>
     </g>
    </g>
    <g id="ytick_8">
     <g id="line2d_12">
      <g>
       <use style="stroke:#000000;stroke-width:0.8;" x="54" xlink:href="#mf4b635d410" y="56.596014"/>
      </g>
     </g>
     <g id="text_13">
      <!-- 1.0 -->
      <g transform="translate(31.096875 60.395233)scale(0.1 -0.1)">
       <use xlink:href="#DejaVuSans-49"/>
       <use x="63.623047" xlink:href="#DejaVuSans-46"/>
       <use x="95.410156" xlink:href="#DejaVuSans-48"/>
      </g>
     </g>
    </g>
    <g id="text_14">
     <!-- train_accuracy_mean -->
     <defs>
      <path d="M 18.3125 70.21875 
L 18.3125 54.6875 
L 36.8125 54.6875 
L 36.8125 47.703125 
L 18.3125 47.703125 
L 18.3125 18.015625 
Q 18.3125 11.328125 20.140625 9.421875 
Q 21.96875 7.515625 27.59375 7.515625 
L 36.8125 7.515625 
L 36.8125 0 
L 27.59375 0 
Q 17.1875 0 13.234375 3.875 
Q 9.28125 7.765625 9.28125 18.015625 
L 9.28125 47.703125 
L 2.6875 47.703125 
L 2.6875 54.6875 
L 9.28125 54.6875 
L 9.28125 70.21875 
z
" id="DejaVuSans-116"/>
      <path d="M 41.109375 46.296875 
Q 39.59375 47.171875 37.8125 47.578125 
Q 36.03125 48 33.890625 48 
Q 26.265625 48 22.1875 43.046875 
Q 18.109375 38.09375 18.109375 28.8125 
L 18.109375 0 
L 9.078125 0 
L 9.078125 54.6875 
L 18.109375 54.6875 
L 18.109375 46.1875 
Q 20.953125 51.171875 25.484375 53.578125 
Q 30.03125 56 36.53125 56 
Q 37.453125 56 38.578125 55.875 
Q 39.703125 55.765625 41.0625 55.515625 
z
" id="DejaVuSans-114"/>
      <path d="M 34.28125 27.484375 
Q 23.390625 27.484375 19.1875 25 
Q 14.984375 22.515625 14.984375 16.5 
Q 14.984375 11.71875 18.140625 8.90625 
Q 21.296875 6.109375 26.703125 6.109375 
Q 34.1875 6.109375 38.703125 11.40625 
Q 43.21875 16.703125 43.21875 25.484375 
L 43.21875 27.484375 
z
M 52.203125 31.203125 
L 52.203125 0 
L 43.21875 0 
L 43.21875 8.296875 
Q 40.140625 3.328125 35.546875 0.953125 
Q 30.953125 -1.421875 24.3125 -1.421875 
Q 15.921875 -1.421875 10.953125 3.296875 
Q 6 8.015625 6 15.921875 
Q 6 25.140625 12.171875 29.828125 
Q 18.359375 34.515625 30.609375 34.515625 
L 43.21875 34.515625 
L 43.21875 35.40625 
Q 43.21875 41.609375 39.140625 45 
Q 35.0625 48.390625 27.6875 48.390625 
Q 23 48.390625 18.546875 47.265625 
Q 14.109375 46.140625 10.015625 43.890625 
L 10.015625 52.203125 
Q 14.9375 54.109375 19.578125 55.046875 
Q 24.21875 56 28.609375 56 
Q 40.484375 56 46.34375 49.84375 
Q 52.203125 43.703125 52.203125 31.203125 
z
" id="DejaVuSans-97"/>
      <path d="M 9.421875 54.6875 
L 18.40625 54.6875 
L 18.40625 0 
L 9.421875 0 
z
M 9.421875 75.984375 
L 18.40625 75.984375 
L 18.40625 64.59375 
L 9.421875 64.59375 
z
" id="DejaVuSans-105"/>
      <path d="M 54.890625 33.015625 
L 54.890625 0 
L 45.90625 0 
L 45.90625 32.71875 
Q 45.90625 40.484375 42.875 44.328125 
Q 39.84375 48.1875 33.796875 48.1875 
Q 26.515625 48.1875 22.3125 43.546875 
Q 18.109375 38.921875 18.109375 30.90625 
L 18.109375 0 
L 9.078125 0 
L 9.078125 54.6875 
L 18.109375 54.6875 
L 18.109375 46.1875 
Q 21.34375 51.125 25.703125 53.5625 
Q 30.078125 56 35.796875 56 
Q 45.21875 56 50.046875 50.171875 
Q 54.890625 44.34375 54.890625 33.015625 
z
" id="DejaVuSans-110"/>
      <path d="M 50.984375 -16.609375 
L 50.984375 -23.578125 
L -0.984375 -23.578125 
L -0.984375 -16.609375 
z
" id="DejaVuSans-95"/>
      <path d="M 48.78125 52.59375 
L 48.78125 44.1875 
Q 44.96875 46.296875 41.140625 47.34375 
Q 37.3125 48.390625 33.40625 48.390625 
Q 24.65625 48.390625 19.8125 42.84375 
Q 14.984375 37.3125 14.984375 27.296875 
Q 14.984375 17.28125 19.8125 11.734375 
Q 24.65625 6.203125 33.40625 6.203125 
Q 37.3125 6.203125 41.140625 7.25 
Q 44.96875 8.296875 48.78125 10.40625 
L 48.78125 2.09375 
Q 45.015625 0.34375 40.984375 -0.53125 
Q 36.96875 -1.421875 32.421875 -1.421875 
Q 20.0625 -1.421875 12.78125 6.34375 
Q 5.515625 14.109375 5.515625 27.296875 
Q 5.515625 40.671875 12.859375 48.328125 
Q 20.21875 56 33.015625 56 
Q 37.15625 56 41.109375 55.140625 
Q 45.0625 54.296875 48.78125 52.59375 
z
" id="DejaVuSans-99"/>
      <path d="M 8.5 21.578125 
L 8.5 54.6875 
L 17.484375 54.6875 
L 17.484375 21.921875 
Q 17.484375 14.15625 20.5 10.265625 
Q 23.53125 6.390625 29.59375 6.390625 
Q 36.859375 6.390625 41.078125 11.03125 
Q 45.3125 15.671875 45.3125 23.6875 
L 45.3125 54.6875 
L 54.296875 54.6875 
L 54.296875 0 
L 45.3125 0 
L 45.3125 8.40625 
Q 42.046875 3.421875 37.71875 1 
Q 33.40625 -1.421875 27.6875 -1.421875 
Q 18.265625 -1.421875 13.375 4.4375 
Q 8.5 10.296875 8.5 21.578125 
z
M 31.109375 56 
z
" id="DejaVuSans-117"/>
      <path d="M 32.171875 -5.078125 
Q 28.375 -14.84375 24.75 -17.8125 
Q 21.140625 -20.796875 15.09375 -20.796875 
L 7.90625 -20.796875 
L 7.90625 -13.28125 
L 13.1875 -13.28125 
Q 16.890625 -13.28125 18.9375 -11.515625 
Q 21 -9.765625 23.484375 -3.21875 
L 25.09375 0.875 
L 2.984375 54.6875 
L 12.5 54.6875 
L 29.59375 11.921875 
L 46.6875 54.6875 
L 56.203125 54.6875 
z
" id="DejaVuSans-121"/>
      <path d="M 52 44.1875 
Q 55.375 50.25 60.0625 53.125 
Q 64.75 56 71.09375 56 
Q 79.640625 56 84.28125 50.015625 
Q 88.921875 44.046875 88.921875 33.015625 
L 88.921875 0 
L 79.890625 0 
L 79.890625 32.71875 
Q 79.890625 40.578125 77.09375 44.375 
Q 74.3125 48.1875 68.609375 48.1875 
Q 61.625 48.1875 57.5625 43.546875 
Q 53.515625 38.921875 53.515625 30.90625 
L 53.515625 0 
L 44.484375 0 
L 44.484375 32.71875 
Q 44.484375 40.625 41.703125 44.40625 
Q 38.921875 48.1875 33.109375 48.1875 
Q 26.21875 48.1875 22.15625 43.53125 
Q 18.109375 38.875 18.109375 30.90625 
L 18.109375 0 
L 9.078125 0 
L 9.078125 54.6875 
L 18.109375 54.6875 
L 18.109375 46.1875 
Q 21.1875 51.21875 25.484375 53.609375 
Q 29.78125 56 35.6875 56 
Q 41.65625 56 45.828125 52.96875 
Q 50 49.953125 52 44.1875 
z
" id="DejaVuSans-109"/>
      <path d="M 56.203125 29.59375 
L 56.203125 25.203125 
L 14.890625 25.203125 
Q 15.484375 15.921875 20.484375 11.0625 
Q 25.484375 6.203125 34.421875 6.203125 
Q 39.59375 6.203125 44.453125 7.46875 
Q 49.3125 8.734375 54.109375 11.28125 
L 54.109375 2.78125 
Q 49.265625 0.734375 44.1875 -0.34375 
Q 39.109375 -1.421875 33.890625 -1.421875 
Q 20.796875 -1.421875 13.15625 6.1875 
Q 5.515625 13.8125 5.515625 26.8125 
Q 5.515625 40.234375 12.765625 48.109375 
Q 20.015625 56 32.328125 56 
Q 43.359375 56 49.78125 48.890625 
Q 56.203125 41.796875 56.203125 29.59375 
z
M 47.21875 32.234375 
Q 47.125 39.59375 43.09375 43.984375 
Q 39.0625 48.390625 32.421875 48.390625 
Q 24.90625 48.390625 20.390625 44.140625 
Q 15.875 39.890625 15.1875 32.171875 
z
" id="DejaVuSans-101"/>
     </defs>
     <g transform="translate(24.739062 196.656563)rotate(-90)scale(0.1 -0.1)">
      <use xlink:href="#DejaVuSans-116"/>
      <use x="39.208984" xlink:href="#DejaVuSans-114"/>
      <use x="80.322266" xlink:href="#DejaVuSans-97"/>
      <use x="141.601562" xlink:href="#DejaVuSans-105"/>
      <use x="169.384766" xlink:href="#DejaVuSans-110"/>
      <use x="232.763672" xlink:href="#DejaVuSans-95"/>
      <use x="282.763672" xlink:href="#DejaVuSans-97"/>
      <use x="344.042969" xlink:href="#DejaVuSans-99"/>
      <use x="399.023438" xlink:href="#DejaVuSans-99"/>
      <use x="454.003906" xlink:href="#DejaVuSans-117"/>
      <use x="517.382812" xlink:href="#DejaVuSans-114"/>
      <use x="558.496094" xlink:href="#DejaVuSans-97"/>
      <use x="619.775391" xlink:href="#DejaVuSans-99"/>
      <use x="674.755859" xlink:href="#DejaVuSans-121"/>
      <use x="733.935547" xlink:href="#DejaVuSans-95"/>
      <use x="783.935547" xlink:href="#DejaVuSans-109"/>
      <use x="881.347656" xlink:href="#DejaVuSans-101"/>
      <use x="942.871094" xlink:href="#DejaVuSans-97"/>
      <use x="1004.150391" xlink:href="#DejaVuSans-110"/>
     </g>
    </g>
   </g>
   <g id="line2d_13">
    <path clip-path="url(#p3cd0b6958b)" d="M 95.85 133.294098 
L 95.85 56.596014 
" style="fill:none;stroke:#3d3d3d;stroke-linecap:square;stroke-width:1.5;"/>
   </g>
   <g id="line2d_14">
    <path clip-path="url(#p3cd0b6958b)" d="M 95.85 93.908595 
L 95.85 67.190343 
" style="fill:none;stroke:#3d3d3d;stroke-linecap:square;stroke-width:4.5;"/>
   </g>
   <g id="line2d_15">
    <path clip-path="url(#p3cd0b6958b)" d="M 179.55 160.138427 
L 179.55 70.401669 
" style="fill:none;stroke:#3d3d3d;stroke-linecap:square;stroke-width:1.5;"/>
   </g>
   <g id="line2d_16">
    <path clip-path="url(#p3cd0b6958b)" d="M 179.55 127.311921 
L 179.55 104.500252 
" style="fill:none;stroke:#3d3d3d;stroke-linecap:square;stroke-width:4.5;"/>
   </g>
   <g id="line2d_17">
    <path clip-path="url(#p3cd0b6958b)" d="M 263.25 162.439369 
L 263.25 91.110152 
" style="fill:none;stroke:#3d3d3d;stroke-linecap:square;stroke-width:1.5;"/>
   </g>
   <g id="line2d_18">
    <path clip-path="url(#p3cd0b6958b)" d="M 263.25 136.541926 
L 263.25 115.396305 
" style="fill:none;stroke:#3d3d3d;stroke-linecap:square;stroke-width:4.5;"/>
   </g>
   <g id="line2d_19">
    <path clip-path="url(#p3cd0b6958b)" d="M 346.95 175.933032 
L 346.95 97.200882 
" style="fill:none;stroke:#3d3d3d;stroke-linecap:square;stroke-width:1.5;"/>
   </g>
   <g id="line2d_20">
    <path clip-path="url(#p3cd0b6958b)" d="M 346.95 146.180722 
L 346.95 124.697751 
" style="fill:none;stroke:#3d3d3d;stroke-linecap:square;stroke-width:4.5;"/>
   </g>
   <g id="patch_3">
    <path d="M 54 252 
L 54 34.56 
" style="fill:none;stroke:#000000;stroke-linecap:square;stroke-linejoin:miter;stroke-width:0.8;"/>
   </g>
   <g id="patch_4">
    <path d="M 388.8 252 
L 388.8 34.56 
" style="fill:none;stroke:#000000;stroke-linecap:square;stroke-linejoin:miter;stroke-width:0.8;"/>
   </g>
   <g id="patch_5">
    <path d="M 54 252 
L 388.8 252 
" style="fill:none;stroke:#000000;stroke-linecap:square;stroke-linejoin:miter;stroke-width:0.8;"/>
   </g>
   <g id="patch_6">
    <path d="M 54 34.56 
L 388.8 34.56 
" style="fill:none;stroke:#000000;stroke-linecap:square;stroke-linejoin:miter;stroke-width:0.8;"/>
   </g>
   <g id="PathCollection_1">
    <defs>
     <path d="M 0 1.5 
C 0.397805 1.5 0.77937 1.341951 1.06066 1.06066 
C 1.341951 0.77937 1.5 0.397805 1.5 0 
C 1.5 -0.397805 1.341951 -0.77937 1.06066 -1.06066 
C 0.77937 -1.341951 0.397805 -1.5 0 -1.5 
C -0.397805 -1.5 -0.77937 -1.341951 -1.06066 -1.06066 
C -1.341951 -0.77937 -1.5 -0.397805 -1.5 0 
C -1.5 0.397805 -1.341951 0.77937 -1.06066 1.06066 
C -0.77937 1.341951 -0.397805 1.5 0 1.5 
z
" id="m1dec9d2ad9" style="stroke:#3d3d3d;"/>
    </defs>
    <g clip-path="url(#p3cd0b6958b)">
     <use style="fill:#ffffff;stroke:#3d3d3d;" x="95.85" xlink:href="#m1dec9d2ad9" y="78.753238"/>
    </g>
   </g>
   <g id="PathCollection_2">
    <g clip-path="url(#p3cd0b6958b)">
     <use style="fill:#ffffff;stroke:#3d3d3d;" x="179.55" xlink:href="#m1dec9d2ad9" y="115.004555"/>
    </g>
   </g>
   <g id="PathCollection_3">
    <g clip-path="url(#p3cd0b6958b)">
     <use style="fill:#ffffff;stroke:#3d3d3d;" x="263.25" xlink:href="#m1dec9d2ad9" y="125.124084"/>
    </g>
   </g>
   <g id="PathCollection_4">
    <g clip-path="url(#p3cd0b6958b)">
     <use style="fill:#ffffff;stroke:#3d3d3d;" x="346.95" xlink:href="#m1dec9d2ad9" y="134.800337"/>
    </g>
   </g>
   <g id="text_15">
    <!-- Train accuracies for each k -->
    <defs>
     <path d="M -0.296875 72.90625 
L 61.375 72.90625 
L 61.375 64.59375 
L 35.5 64.59375 
L 35.5 0 
L 25.59375 0 
L 25.59375 64.59375 
L -0.296875 64.59375 
z
" id="DejaVuSans-84"/>
     <path id="DejaVuSans-32"/>
     <path d="M 44.28125 53.078125 
L 44.28125 44.578125 
Q 40.484375 46.53125 36.375 47.5 
Q 32.28125 48.484375 27.875 48.484375 
Q 21.1875 48.484375 17.84375 46.4375 
Q 14.5 44.390625 14.5 40.28125 
Q 14.5 37.15625 16.890625 35.375 
Q 19.28125 33.59375 26.515625 31.984375 
L 29.59375 31.296875 
Q 39.15625 29.25 43.1875 25.515625 
Q 47.21875 21.78125 47.21875 15.09375 
Q 47.21875 7.46875 41.1875 3.015625 
Q 35.15625 -1.421875 24.609375 -1.421875 
Q 20.21875 -1.421875 15.453125 -0.5625 
Q 10.6875 0.296875 5.421875 2 
L 5.421875 11.28125 
Q 10.40625 8.6875 15.234375 7.390625 
Q 20.0625 6.109375 24.8125 6.109375 
Q 31.15625 6.109375 34.5625 8.28125 
Q 37.984375 10.453125 37.984375 14.40625 
Q 37.984375 18.0625 35.515625 20.015625 
Q 33.0625 21.96875 24.703125 23.78125 
L 21.578125 24.515625 
Q 13.234375 26.265625 9.515625 29.90625 
Q 5.8125 33.546875 5.8125 39.890625 
Q 5.8125 47.609375 11.28125 51.796875 
Q 16.75 56 26.8125 56 
Q 31.78125 56 36.171875 55.265625 
Q 40.578125 54.546875 44.28125 53.078125 
z
" id="DejaVuSans-115"/>
     <path d="M 37.109375 75.984375 
L 37.109375 68.5 
L 28.515625 68.5 
Q 23.6875 68.5 21.796875 66.546875 
Q 19.921875 64.59375 19.921875 59.515625 
L 19.921875 54.6875 
L 34.71875 54.6875 
L 34.71875 47.703125 
L 19.921875 47.703125 
L 19.921875 0 
L 10.890625 0 
L 10.890625 47.703125 
L 2.296875 47.703125 
L 2.296875 54.6875 
L 10.890625 54.6875 
L 10.890625 58.5 
Q 10.890625 67.625 15.140625 71.796875 
Q 19.390625 75.984375 28.609375 75.984375 
z
" id="DejaVuSans-102"/>
     <path d="M 30.609375 48.390625 
Q 23.390625 48.390625 19.1875 42.75 
Q 14.984375 37.109375 14.984375 27.296875 
Q 14.984375 17.484375 19.15625 11.84375 
Q 23.34375 6.203125 30.609375 6.203125 
Q 37.796875 6.203125 41.984375 11.859375 
Q 46.1875 17.53125 46.1875 27.296875 
Q 46.1875 37.015625 41.984375 42.703125 
Q 37.796875 48.390625 30.609375 48.390625 
z
M 30.609375 56 
Q 42.328125 56 49.015625 48.375 
Q 55.71875 40.765625 55.71875 27.296875 
Q 55.71875 13.875 49.015625 6.21875 
Q 42.328125 -1.421875 30.609375 -1.421875 
Q 18.84375 -1.421875 12.171875 6.21875 
Q 5.515625 13.875 5.515625 27.296875 
Q 5.515625 40.765625 12.171875 48.375 
Q 18.84375 56 30.609375 56 
z
" id="DejaVuSans-111"/>
     <path d="M 54.890625 33.015625 
L 54.890625 0 
L 45.90625 0 
L 45.90625 32.71875 
Q 45.90625 40.484375 42.875 44.328125 
Q 39.84375 48.1875 33.796875 48.1875 
Q 26.515625 48.1875 22.3125 43.546875 
Q 18.109375 38.921875 18.109375 30.90625 
L 18.109375 0 
L 9.078125 0 
L 9.078125 75.984375 
L 18.109375 75.984375 
L 18.109375 46.1875 
Q 21.34375 51.125 25.703125 53.5625 
Q 30.078125 56 35.796875 56 
Q 45.21875 56 50.046875 50.171875 
Q 54.890625 44.34375 54.890625 33.015625 
z
" id="DejaVuSans-104"/>
    </defs>
    <g transform="translate(140.309063 28.56)scale(0.12 -0.12)">
     <use xlink:href="#DejaVuSans-84"/>
     <use x="60.865234" xlink:href="#DejaVuSans-114"/>
     <use x="101.978516" xlink:href="#DejaVuSans-97"/>
     <use x="163.257812" xlink:href="#DejaVuSans-105"/>
     <use x="191.041016" xlink:href="#DejaVuSans-110"/>
     <use x="254.419922" xlink:href="#DejaVuSans-32"/>
     <use x="286.207031" xlink:href="#DejaVuSans-97"/>
     <use x="347.486328" xlink:href="#DejaVuSans-99"/>
     <use x="402.466797" xlink:href="#DejaVuSans-99"/>
     <use x="457.447266" xlink:href="#DejaVuSans-117"/>
     <use x="520.826172" xlink:href="#DejaVuSans-114"/>
     <use x="561.939453" xlink:href="#DejaVuSans-97"/>
     <use x="623.21875" xlink:href="#DejaVuSans-99"/>
     <use x="678.199219" xlink:href="#DejaVuSans-105"/>
     <use x="705.982422" xlink:href="#DejaVuSans-101"/>
     <use x="767.505859" xlink:href="#DejaVuSans-115"/>
     <use x="819.605469" xlink:href="#DejaVuSans-32"/>
     <use x="851.392578" xlink:href="#DejaVuSans-102"/>
     <use x="886.597656" xlink:href="#DejaVuSans-111"/>
     <use x="947.779297" xlink:href="#DejaVuSans-114"/>
     <use x="988.892578" xlink:href="#DejaVuSans-32"/>
     <use x="1020.679688" xlink:href="#DejaVuSans-101"/>
     <use x="1082.203125" xlink:href="#DejaVuSans-97"/>
     <use x="1143.482422" xlink:href="#DejaVuSans-99"/>
     <use x="1198.462891" xlink:href="#DejaVuSans-104"/>
     <use x="1261.841797" xlink:href="#DejaVuSans-32"/>
     <use x="1293.628906" xlink:href="#DejaVuSans-107"/>
    </g>
   </g>
  </g>
 </g>
 <defs>
  <clipPath id="p3cd0b6958b">
   <rect height="217.44" width="334.8" x="54" y="34.56"/>
  </clipPath>
 </defs>
</svg>
