<?xml version="1.0" encoding="utf-8" standalone="no"?>
<!DOCTYPE svg PUBLIC "-//W3C//DTD SVG 1.1//EN"
  "http://www.w3.org/Graphics/SVG/1.1/DTD/svg11.dtd">
<!-- Created with matplotlib (https://matplotlib.org/) -->
<svg height="288pt" version="1.1" viewBox="0 0 432 288" width="432pt" xmlns="http://www.w3.org/2000/svg" xmlns:xlink="http://www.w3.org/1999/xlink">
 <defs>
  <style type="text/css">
*{stroke-linecap:butt;stroke-linejoin:round;white-space:pre;}
  </style>
 </defs>
 <g id="figure_1">
  <g id="patch_1">
   <path d="M 0 288 
L 432 288 
L 432 0 
L 0 0 
z
" style="fill:#ffffff;"/>
  </g>
  <g id="axes_1">
   <g id="patch_2">
    <path d="M 54 252 
L 388.8 252 
L 388.8 34.56 
L 54 34.56 
z
" style="fill:#ffffff;"/>
   </g>
   <g id="PolyCollection_1">
    <defs>
     <path d="M 95.90502 -151.580333 
L 95.79498 -151.580333 
L 95.768972 -152.509384 
L 95.734201 -153.438435 
L 95.689323 -154.367486 
L 95.633413 -155.296536 
L 95.566172 -156.225587 
L 95.4881 -157.154638 
L 95.400553 -158.083689 
L 95.30567 -159.01274 
L 95.206141 -159.94179 
L 95.104844 -160.870841 
L 95.004399 -161.799892 
L 94.90672 -162.728943 
L 94.812656 -163.657994 
L 94.7218 -164.587044 
L 94.632522 -165.516095 
L 94.542223 -166.445146 
L 94.447768 -167.374197 
L 94.346008 -168.303248 
L 94.234269 -169.232299 
L 94.110695 -170.161349 
L 93.974364 -171.0904 
L 93.825152 -172.019451 
L 93.66341 -172.948502 
L 93.489574 -173.877553 
L 93.303859 -174.806603 
L 93.106187 -175.735654 
L 92.896405 -176.664705 
L 92.674761 -177.593756 
L 92.442481 -178.522807 
L 92.20223 -179.451857 
L 91.95825 -180.380908 
L 91.716026 -181.309959 
L 91.481498 -182.23901 
L 91.259974 -183.168061 
L 91.05501 -184.097112 
L 90.867552 -185.026162 
L 90.695567 -185.955213 
L 90.534251 -186.884264 
L 90.376763 -187.813315 
L 90.215264 -188.742366 
L 90.04201 -189.671416 
L 89.850233 -190.600467 
L 89.63464 -191.529518 
L 89.391466 -192.458569 
L 89.11814 -193.38762 
L 88.812723 -194.316671 
L 88.473315 -195.245721 
L 88.097645 -196.174772 
L 87.682999 -197.103823 
L 87.226567 -198.032874 
L 86.726189 -198.961925 
L 86.18134 -199.890975 
L 85.594142 -200.820026 
L 84.970077 -201.749077 
L 84.318134 -202.678128 
L 83.650168 -203.607179 
L 82.979444 -204.536229 
L 82.318517 -205.46528 
L 81.676841 -206.394331 
L 81.05861 -207.323382 
L 80.461369 -208.252433 
L 79.875795 -209.181484 
L 79.286787 -210.110534 
L 78.67569 -211.039585 
L 78.023197 -211.968636 
L 77.312295 -212.897687 
L 76.530698 -213.826738 
L 75.672346 -214.755788 
L 74.737938 -215.684839 
L 73.734728 -216.61389 
L 72.676054 -217.542941 
L 71.581096 -218.471992 
L 70.475162 -219.401042 
L 69.390508 -220.330093 
L 68.367323 -221.259144 
L 67.454235 -222.188195 
L 66.707625 -223.117246 
L 66.189162 -224.046297 
L 65.961357 -224.975347 
L 66.081402 -225.904398 
L 66.594047 -226.833449 
L 67.524657 -227.7625 
L 68.873683 -228.691551 
L 70.613692 -229.620601 
L 72.689695 -230.549652 
L 75.022966 -231.478703 
L 77.517924 -232.407754 
L 80.071121 -233.336805 
L 82.580983 -234.265856 
L 84.956893 -235.194906 
L 87.126354 -236.123957 
L 89.03936 -237.053008 
L 90.66968 -237.982059 
L 92.013269 -238.91111 
L 93.084459 -239.84016 
L 93.910859 -240.769211 
L 94.527904 -241.698262 
L 94.973867 -242.627313 
L 95.285876 -243.556364 
L 96.414124 -243.556364 
L 96.414124 -243.556364 
L 96.726133 -242.627313 
L 97.172096 -241.698262 
L 97.789141 -240.769211 
L 98.615541 -239.84016 
L 99.686731 -238.91111 
L 101.03032 -237.982059 
L 102.66064 -237.053008 
L 104.573646 -236.123957 
L 106.743107 -235.194906 
L 109.119017 -234.265856 
L 111.628879 -233.336805 
L 114.182076 -232.407754 
L 116.677034 -231.478703 
L 119.010305 -230.549652 
L 121.086308 -229.620601 
L 122.826317 -228.691551 
L 124.175343 -227.7625 
L 125.105953 -226.833449 
L 125.618598 -225.904398 
L 125.738643 -224.975347 
L 125.510838 -224.046297 
L 124.992375 -223.117246 
L 124.245765 -222.188195 
L 123.332677 -221.259144 
L 122.309492 -220.330093 
L 121.224838 -219.401042 
L 120.118904 -218.471992 
L 119.023946 -217.542941 
L 117.965272 -216.61389 
L 116.962062 -215.684839 
L 116.027654 -214.755788 
L 115.169302 -213.826738 
L 114.387705 -212.897687 
L 113.676803 -211.968636 
L 113.02431 -211.039585 
L 112.413213 -210.110534 
L 111.824205 -209.181484 
L 111.238631 -208.252433 
L 110.64139 -207.323382 
L 110.023159 -206.394331 
L 109.381483 -205.46528 
L 108.720556 -204.536229 
L 108.049832 -203.607179 
L 107.381866 -202.678128 
L 106.729923 -201.749077 
L 106.105858 -200.820026 
L 105.51866 -199.890975 
L 104.973811 -198.961925 
L 104.473433 -198.032874 
L 104.017001 -197.103823 
L 103.602355 -196.174772 
L 103.226685 -195.245721 
L 102.887277 -194.316671 
L 102.58186 -193.38762 
L 102.308534 -192.458569 
L 102.06536 -191.529518 
L 101.849767 -190.600467 
L 101.65799 -189.671416 
L 101.484736 -188.742366 
L 101.323237 -187.813315 
L 101.165749 -186.884264 
L 101.004433 -185.955213 
L 100.832448 -185.026162 
L 100.64499 -184.097112 
L 100.440026 -183.168061 
L 100.218502 -182.23901 
L 99.983974 -181.309959 
L 99.74175 -180.380908 
L 99.49777 -179.451857 
L 99.257519 -178.522807 
L 99.025239 -177.593756 
L 98.803595 -176.664705 
L 98.593813 -175.735654 
L 98.396141 -174.806603 
L 98.210426 -173.877553 
L 98.03659 -172.948502 
L 97.874848 -172.019451 
L 97.725636 -171.0904 
L 97.589305 -170.161349 
L 97.465731 -169.232299 
L 97.353992 -168.303248 
L 97.252232 -167.374197 
L 97.157777 -166.445146 
L 97.067478 -165.516095 
L 96.9782 -164.587044 
L 96.887344 -163.657994 
L 96.79328 -162.728943 
L 96.695601 -161.799892 
L 96.595156 -160.870841 
L 96.493859 -159.94179 
L 96.39433 -159.01274 
L 96.299447 -158.083689 
L 96.2119 -157.154638 
L 96.133828 -156.225587 
L 96.066587 -155.296536 
L 96.010677 -154.367486 
L 95.965799 -153.438435 
L 95.931028 -152.509384 
L 95.90502 -151.580333 
z
" id="m62497b824e" style="stroke:#3d3d3d;stroke-width:1.5;"/>
    </defs>
    <g clip-path="url(#p65d376abbf)">
     <use style="fill:#3274a1;stroke:#3d3d3d;stroke-width:1.5;" x="0" xlink:href="#m62497b824e" y="288"/>
    </g>
   </g>
   <g id="PolyCollection_2">
    <defs>
     <path d="M 179.592101 -100.330501 
L 179.507899 -100.330501 
L 179.475189 -101.678624 
L 179.429378 -103.026748 
L 179.37352 -104.374872 
L 179.315695 -105.722996 
L 179.26769 -107.07112 
L 179.241213 -108.419244 
L 179.243116 -109.767368 
L 179.272107 -111.115491 
L 179.318801 -112.463615 
L 179.368994 -113.811739 
L 179.408311 -115.159863 
L 179.426133 -116.507987 
L 179.417841 -117.856111 
L 179.385568 -119.204235 
L 179.33787 -120.552358 
L 179.288093 -121.900482 
L 179.251026 -123.248606 
L 179.238285 -124.59673 
L 179.254189 -125.944854 
L 179.29424 -127.292978 
L 179.347056 -128.641102 
L 179.398605 -129.989225 
L 179.436453 -131.337349 
L 179.452353 -132.685473 
L 179.44308 -134.033597 
L 179.410498 -135.381721 
L 179.361543 -136.729845 
L 179.307709 -138.077969 
L 179.262998 -139.426092 
L 179.240046 -140.774216 
L 179.245728 -142.12234 
L 179.278534 -143.470464 
L 179.32929 -144.818588 
L 179.384764 -146.166712 
L 179.432014 -147.514836 
L 179.461242 -148.862959 
L 179.466393 -150.211083 
L 179.444392 -151.559207 
L 179.394487 -152.907331 
L 179.318377 -154.255455 
L 179.2206 -155.603579 
L 179.108006 -156.951703 
L 178.987691 -158.299826 
L 178.863954 -159.64795 
L 178.73573 -160.996074 
L 178.595806 -162.344198 
L 178.432244 -163.692322 
L 178.231481 -165.040446 
L 177.981937 -166.38857 
L 177.676548 -167.736693 
L 177.312469 -169.084817 
L 176.886951 -170.432941 
L 176.390573 -171.781065 
L 175.80158 -173.129189 
L 175.085719 -174.477313 
L 174.203237 -175.825437 
L 173.12037 -177.17356 
L 171.820554 -178.521684 
L 170.312379 -179.869808 
L 168.634295 -181.217932 
L 166.855783 -182.566056 
L 165.071201 -183.91418 
L 163.381101 -185.262304 
L 161.86174 -186.610427 
L 160.534074 -187.958551 
L 159.349363 -189.306675 
L 158.202385 -190.654799 
L 156.96851 -192.002923 
L 155.548796 -193.351047 
L 153.906154 -194.699171 
L 152.083434 -196.047294 
L 150.202746 -197.395418 
L 148.448949 -198.743542 
L 147.040388 -200.091666 
L 146.190892 -201.43979 
L 146.07 -202.787914 
L 146.771314 -204.136038 
L 148.298252 -205.484162 
L 150.570447 -206.832285 
L 153.444884 -208.180409 
L 156.739896 -209.528533 
L 160.253047 -210.876657 
L 163.773873 -212.224781 
L 167.09973 -213.572905 
L 170.059729 -214.921029 
L 172.540784 -216.269152 
L 174.502769 -217.617276 
L 175.973956 -218.9654 
L 177.029416 -220.313524 
L 177.763598 -221.661648 
L 178.267962 -223.009772 
L 178.618207 -224.357896 
L 178.869828 -225.706019 
L 179.058861 -227.054143 
L 179.20551 -228.402267 
L 179.319343 -229.750391 
L 179.404691 -231.098515 
L 179.464811 -232.446639 
L 179.503886 -233.794763 
L 179.596114 -233.794763 
L 179.596114 -233.794763 
L 179.635189 -232.446639 
L 179.695309 -231.098515 
L 179.780657 -229.750391 
L 179.89449 -228.402267 
L 180.041139 -227.054143 
L 180.230172 -225.706019 
L 180.481793 -224.357896 
L 180.832038 -223.009772 
L 181.336402 -221.661648 
L 182.070584 -220.313524 
L 183.126044 -218.9654 
L 184.597231 -217.617276 
L 186.559216 -216.269152 
L 189.040271 -214.921029 
L 192.00027 -213.572905 
L 195.326127 -212.224781 
L 198.846953 -210.876657 
L 202.360104 -209.528533 
L 205.655116 -208.180409 
L 208.529553 -206.832285 
L 210.801748 -205.484162 
L 212.328686 -204.136038 
L 213.03 -202.787914 
L 212.909108 -201.43979 
L 212.059612 -200.091666 
L 210.651051 -198.743542 
L 208.897254 -197.395418 
L 207.016566 -196.047294 
L 205.193846 -194.699171 
L 203.551204 -193.351047 
L 202.13149 -192.002923 
L 200.897615 -190.654799 
L 199.750637 -189.306675 
L 198.565926 -187.958551 
L 197.23826 -186.610427 
L 195.718899 -185.262304 
L 194.028799 -183.91418 
L 192.244217 -182.566056 
L 190.465705 -181.217932 
L 188.787621 -179.869808 
L 187.279446 -178.521684 
L 185.97963 -177.17356 
L 184.896763 -175.825437 
L 184.014281 -174.477313 
L 183.29842 -173.129189 
L 182.709427 -171.781065 
L 182.213049 -170.432941 
L 181.787531 -169.084817 
L 181.423452 -167.736693 
L 181.118063 -166.38857 
L 180.868519 -165.040446 
L 180.667756 -163.692322 
L 180.504194 -162.344198 
L 180.36427 -160.996074 
L 180.236046 -159.64795 
L 180.112309 -158.299826 
L 179.991994 -156.951703 
L 179.8794 -155.603579 
L 179.781623 -154.255455 
L 179.705513 -152.907331 
L 179.655608 -151.559207 
L 179.633607 -150.211083 
L 179.638758 -148.862959 
L 179.667986 -147.514836 
L 179.715236 -146.166712 
L 179.77071 -144.818588 
L 179.821466 -143.470464 
L 179.854272 -142.12234 
L 179.859954 -140.774216 
L 179.837002 -139.426092 
L 179.792291 -138.077969 
L 179.738457 -136.729845 
L 179.689502 -135.381721 
L 179.65692 -134.033597 
L 179.647647 -132.685473 
L 179.663547 -131.337349 
L 179.701395 -129.989225 
L 179.752944 -128.641102 
L 179.80576 -127.292978 
L 179.845811 -125.944854 
L 179.861715 -124.59673 
L 179.848974 -123.248606 
L 179.811907 -121.900482 
L 179.76213 -120.552358 
L 179.714432 -119.204235 
L 179.682159 -117.856111 
L 179.673867 -116.507987 
L 179.691689 -115.159863 
L 179.731006 -113.811739 
L 179.781199 -112.463615 
L 179.827893 -111.115491 
L 179.856884 -109.767368 
L 179.858787 -108.419244 
L 179.83231 -107.07112 
L 179.784305 -105.722996 
L 179.72648 -104.374872 
L 179.670622 -103.026748 
L 179.624811 -101.678624 
L 179.592101 -100.330501 
z
" id="m1b52c5f94c" style="stroke:#3d3d3d;stroke-width:1.5;"/>
    </defs>
    <g clip-path="url(#p65d376abbf)">
     <use style="fill:#e1812c;stroke:#3d3d3d;stroke-width:1.5;" x="0" xlink:href="#m1b52c5f94c" y="288"/>
    </g>
   </g>
   <g id="PolyCollection_3">
    <defs>
     <path d="M 263.289508 -49.977519 
L 263.210492 -49.977519 
L 263.168293 -51.839993 
L 263.106487 -53.702467 
L 263.035914 -55.56494 
L 262.97876 -57.427414 
L 262.958133 -59.289888 
L 262.983264 -61.152362 
L 263.042965 -63.014835 
L 263.113519 -64.877309 
L 263.173587 -66.739783 
L 263.213665 -68.602256 
L 263.235326 -70.46473 
L 263.244967 -72.327204 
L 263.248534 -74.189677 
L 263.249637 -76.052151 
L 263.249924 -77.914625 
L 263.249986 -79.777098 
L 263.249998 -81.639572 
L 263.25 -83.502046 
L 263.25 -85.364519 
L 263.25 -87.226993 
L 263.25 -89.089467 
L 263.25 -90.95194 
L 263.25 -92.814414 
L 263.25 -94.676888 
L 263.25 -96.539361 
L 263.25 -98.401835 
L 263.249998 -100.264309 
L 263.249984 -102.126782 
L 263.249913 -103.989256 
L 263.249591 -105.85173 
L 263.248369 -107.714204 
L 263.244474 -109.576677 
L 263.234103 -111.439151 
L 263.211157 -113.301625 
L 263.169394 -115.164098 
L 263.107934 -117.026572 
L 263.037344 -118.889046 
L 262.979644 -120.751519 
L 262.958064 -122.613993 
L 262.982162 -124.476467 
L 263.040849 -126.33894 
L 263.109585 -128.201414 
L 263.16449 -130.063888 
L 263.19116 -131.926361 
L 263.184437 -133.788835 
L 263.145491 -135.651309 
L 263.082739 -137.513782 
L 263.014695 -139.376256 
L 262.966799 -141.23873 
L 262.958972 -143.101203 
L 262.991889 -144.963677 
L 263.044159 -146.826151 
L 263.083369 -148.688624 
L 263.082078 -150.551098 
L 263.02793 -152.413572 
L 262.923197 -154.276046 
L 262.774316 -156.138519 
L 262.575654 -158.000993 
L 262.296594 -159.863467 
L 261.882484 -161.72594 
L 261.271644 -163.588414 
L 260.418566 -165.450888 
L 259.311008 -167.313361 
L 257.976966 -169.175835 
L 256.481153 -171.038309 
L 254.902565 -172.900782 
L 253.28749 -174.763256 
L 251.602994 -176.62573 
L 249.738749 -178.488203 
L 247.572508 -180.350677 
L 245.05449 -182.213151 
L 242.252458 -184.075624 
L 239.339265 -185.938098 
L 236.54069 -187.800572 
L 234.071985 -189.663045 
L 232.098422 -191.525519 
L 230.750933 -193.387993 
L 230.185475 -195.250466 
L 230.617879 -197.11294 
L 232.26361 -198.975414 
L 235.189506 -200.837888 
L 239.178807 -202.700361 
L 243.729759 -204.562835 
L 248.221991 -206.425309 
L 252.155711 -208.287782 
L 255.306799 -210.150256 
L 257.708679 -212.01273 
L 259.511242 -213.875203 
L 260.846493 -215.737677 
L 261.786897 -217.600151 
L 262.381431 -219.462624 
L 262.700526 -221.325098 
L 262.843045 -223.187572 
L 262.908287 -225.050045 
L 262.963464 -226.912519 
L 263.031879 -228.774993 
L 263.105575 -230.637466 
L 263.168117 -232.49994 
L 263.210462 -234.362414 
L 263.289538 -234.362414 
L 263.289538 -234.362414 
L 263.331883 -232.49994 
L 263.394425 -230.637466 
L 263.468121 -228.774993 
L 263.536536 -226.912519 
L 263.591713 -225.050045 
L 263.656955 -223.187572 
L 263.799474 -221.325098 
L 264.118569 -219.462624 
L 264.713103 -217.600151 
L 265.653507 -215.737677 
L 266.988758 -213.875203 
L 268.791321 -212.01273 
L 271.193201 -210.150256 
L 274.344289 -208.287782 
L 278.278009 -206.425309 
L 282.770241 -204.562835 
L 287.321193 -202.700361 
L 291.310494 -200.837888 
L 294.23639 -198.975414 
L 295.882121 -197.11294 
L 296.314525 -195.250466 
L 295.749067 -193.387993 
L 294.401578 -191.525519 
L 292.428015 -189.663045 
L 289.95931 -187.800572 
L 287.160735 -185.938098 
L 284.247542 -184.075624 
L 281.44551 -182.213151 
L 278.927492 -180.350677 
L 276.761251 -178.488203 
L 274.897006 -176.62573 
L 273.21251 -174.763256 
L 271.597435 -172.900782 
L 270.018847 -171.038309 
L 268.523034 -169.175835 
L 267.188992 -167.313361 
L 266.081434 -165.450888 
L 265.228356 -163.588414 
L 264.617516 -161.72594 
L 264.203406 -159.863467 
L 263.924346 -158.000993 
L 263.725684 -156.138519 
L 263.576803 -154.276046 
L 263.47207 -152.413572 
L 263.417922 -150.551098 
L 263.416631 -148.688624 
L 263.455841 -146.826151 
L 263.508111 -144.963677 
L 263.541028 -143.101203 
L 263.533201 -141.23873 
L 263.485305 -139.376256 
L 263.417261 -137.513782 
L 263.354509 -135.651309 
L 263.315563 -133.788835 
L 263.30884 -131.926361 
L 263.33551 -130.063888 
L 263.390415 -128.201414 
L 263.459151 -126.33894 
L 263.517838 -124.476467 
L 263.541936 -122.613993 
L 263.520356 -120.751519 
L 263.462656 -118.889046 
L 263.392066 -117.026572 
L 263.330606 -115.164098 
L 263.288843 -113.301625 
L 263.265897 -111.439151 
L 263.255526 -109.576677 
L 263.251631 -107.714204 
L 263.250409 -105.85173 
L 263.250087 -103.989256 
L 263.250016 -102.126782 
L 263.250002 -100.264309 
L 263.25 -98.401835 
L 263.25 -96.539361 
L 263.25 -94.676888 
L 263.25 -92.814414 
L 263.25 -90.95194 
L 263.25 -89.089467 
L 263.25 -87.226993 
L 263.25 -85.364519 
L 263.25 -83.502046 
L 263.250002 -81.639572 
L 263.250014 -79.777098 
L 263.250076 -77.914625 
L 263.250363 -76.052151 
L 263.251466 -74.189677 
L 263.255033 -72.327204 
L 263.264674 -70.46473 
L 263.286335 -68.602256 
L 263.326413 -66.739783 
L 263.386481 -64.877309 
L 263.457035 -63.014835 
L 263.516736 -61.152362 
L 263.541867 -59.289888 
L 263.52124 -57.427414 
L 263.464086 -55.56494 
L 263.393513 -53.702467 
L 263.331707 -51.839993 
L 263.289508 -49.977519 
z
" id="mce684f4250" style="stroke:#3d3d3d;stroke-width:1.5;"/>
    </defs>
    <g clip-path="url(#p65d376abbf)">
     <use style="fill:#3a923a;stroke:#3d3d3d;stroke-width:1.5;" x="0" xlink:href="#mce684f4250" y="288"/>
    </g>
   </g>
   <g id="PolyCollection_4">
    <defs>
     <path d="M 347.032375 -45.883636 
L 346.867625 -45.883636 
L 346.808384 -47.828815 
L 346.726474 -49.773993 
L 346.626075 -51.719172 
L 346.519014 -53.66435 
L 346.423518 -55.609528 
L 346.359519 -57.554707 
L 346.341962 -59.499885 
L 346.37514 -61.445063 
L 346.450983 -63.390242 
L 346.552215 -65.33542 
L 346.658659 -67.280599 
L 346.753514 -69.225777 
L 346.826907 -71.170955 
L 346.875961 -73.116134 
L 346.902449 -75.061312 
L 346.90992 -77.006491 
L 346.901803 -78.951669 
L 346.881033 -80.896847 
L 346.850821 -82.842026 
L 346.815647 -84.787204 
L 346.781499 -86.732383 
L 346.754828 -88.677561 
L 346.740491 -90.622739 
L 346.739684 -92.567918 
L 346.74909 -94.513096 
L 346.761984 -96.458274 
L 346.770983 -98.403453 
L 346.771251 -100.348631 
L 346.762647 -102.29381 
L 346.749783 -104.238988 
L 346.739978 -106.184166 
L 346.740062 -108.129345 
L 346.753545 -110.074523 
L 346.77936 -112.019702 
L 346.812527 -113.96488 
L 346.846023 -115.910058 
L 346.872654 -117.855237 
L 346.885929 -119.800415 
L 346.879761 -121.745594 
L 346.847671 -123.690772 
L 346.782522 -125.63595 
L 346.677556 -127.581129 
L 346.52872 -129.526307 
L 346.337244 -131.471485 
L 346.111 -133.416664 
L 345.863427 -135.361842 
L 345.610029 -137.307021 
L 345.363767 -139.252199 
L 345.131349 -141.197377 
L 344.911929 -143.142556 
L 344.698309 -145.087734 
L 344.47935 -147.032913 
L 344.241651 -148.978091 
L 343.96906 -150.923269 
L 343.640093 -152.868448 
L 343.225087 -154.813626 
L 342.685962 -156.758805 
L 341.980926 -158.703983 
L 341.074138 -160.649161 
L 339.947283 -162.59434 
L 338.607947 -164.539518 
L 337.090206 -166.484696 
L 335.446059 -168.429875 
L 333.73082 -170.375053 
L 331.98901 -172.320232 
L 330.247486 -174.26541 
L 328.519281 -176.210588 
L 326.816449 -178.155767 
L 325.166436 -180.100945 
L 323.625983 -182.046124 
L 322.288751 -183.991302 
L 321.28451 -185.93648 
L 320.767199 -187.881659 
L 320.888671 -189.826837 
L 321.759053 -191.772016 
L 323.403902 -193.717194 
L 325.736668 -195.662372 
L 328.563461 -197.607551 
L 331.623309 -199.552729 
L 334.648913 -201.497907 
L 337.42288 -203.443086 
L 339.809169 -205.388264 
L 341.754521 -207.333443 
L 343.268988 -209.278621 
L 344.400073 -211.223799 
L 345.211333 -213.168978 
L 345.769048 -215.114156 
L 346.135441 -217.059335 
L 346.365506 -219.004513 
L 346.505439 -220.949691 
L 346.59177 -222.89487 
L 346.651016 -224.840048 
L 346.69993 -226.785227 
L 346.746608 -228.730405 
L 346.792596 -230.675583 
L 346.835703 -232.620762 
L 346.872789 -234.56594 
L 346.901725 -236.511118 
L 346.92215 -238.456297 
L 346.97785 -238.456297 
L 346.97785 -238.456297 
L 346.998275 -236.511118 
L 347.027211 -234.56594 
L 347.064297 -232.620762 
L 347.107404 -230.675583 
L 347.153392 -228.730405 
L 347.20007 -226.785227 
L 347.248984 -224.840048 
L 347.30823 -222.89487 
L 347.394561 -220.949691 
L 347.534494 -219.004513 
L 347.764559 -217.059335 
L 348.130952 -215.114156 
L 348.688667 -213.168978 
L 349.499927 -211.223799 
L 350.631012 -209.278621 
L 352.145479 -207.333443 
L 354.090831 -205.388264 
L 356.47712 -203.443086 
L 359.251087 -201.497907 
L 362.276691 -199.552729 
L 365.336539 -197.607551 
L 368.163332 -195.662372 
L 370.496098 -193.717194 
L 372.140947 -191.772016 
L 373.011329 -189.826837 
L 373.132801 -187.881659 
L 372.61549 -185.93648 
L 371.611249 -183.991302 
L 370.274017 -182.046124 
L 368.733564 -180.100945 
L 367.083551 -178.155767 
L 365.380719 -176.210588 
L 363.652514 -174.26541 
L 361.91099 -172.320232 
L 360.16918 -170.375053 
L 358.453941 -168.429875 
L 356.809794 -166.484696 
L 355.292053 -164.539518 
L 353.952717 -162.59434 
L 352.825862 -160.649161 
L 351.919074 -158.703983 
L 351.214038 -156.758805 
L 350.674913 -154.813626 
L 350.259907 -152.868448 
L 349.93094 -150.923269 
L 349.658349 -148.978091 
L 349.42065 -147.032913 
L 349.201691 -145.087734 
L 348.988071 -143.142556 
L 348.768651 -141.197377 
L 348.536233 -139.252199 
L 348.289971 -137.307021 
L 348.036573 -135.361842 
L 347.789 -133.416664 
L 347.562756 -131.471485 
L 347.37128 -129.526307 
L 347.222444 -127.581129 
L 347.117478 -125.63595 
L 347.052329 -123.690772 
L 347.020239 -121.745594 
L 347.014071 -119.800415 
L 347.027346 -117.855237 
L 347.053977 -115.910058 
L 347.087473 -113.96488 
L 347.12064 -112.019702 
L 347.146455 -110.074523 
L 347.159938 -108.129345 
L 347.160022 -106.184166 
L 347.150217 -104.238988 
L 347.137353 -102.29381 
L 347.128749 -100.348631 
L 347.129017 -98.403453 
L 347.138016 -96.458274 
L 347.15091 -94.513096 
L 347.160316 -92.567918 
L 347.159509 -90.622739 
L 347.145172 -88.677561 
L 347.118501 -86.732383 
L 347.084353 -84.787204 
L 347.049179 -82.842026 
L 347.018967 -80.896847 
L 346.998197 -78.951669 
L 346.99008 -77.006491 
L 346.997551 -75.061312 
L 347.024039 -73.116134 
L 347.073093 -71.170955 
L 347.146486 -69.225777 
L 347.241341 -67.280599 
L 347.347785 -65.33542 
L 347.449017 -63.390242 
L 347.52486 -61.445063 
L 347.558038 -59.499885 
L 347.540481 -57.554707 
L 347.476482 -55.609528 
L 347.380986 -53.66435 
L 347.273925 -51.719172 
L 347.173526 -49.773993 
L 347.091616 -47.828815 
L 347.032375 -45.883636 
z
" id="m26dd960904" style="stroke:#3d3d3d;stroke-width:1.5;"/>
    </defs>
    <g clip-path="url(#p65d376abbf)">
     <use style="fill:#c03d3e;stroke:#3d3d3d;stroke-width:1.5;" x="0" xlink:href="#m26dd960904" y="288"/>
    </g>
   </g>
   <g id="matplotlib.axis_1">
    <g id="xtick_1">
     <g id="line2d_1">
      <defs>
       <path d="M 0 0 
L 0 3.5 
" id="mc4b4736318" style="stroke:#000000;stroke-width:0.8;"/>
      </defs>
      <g>
       <use style="stroke:#000000;stroke-width:0.8;" x="95.85" xlink:href="#mc4b4736318" y="252"/>
      </g>
     </g>
     <g id="text_1">
      <!-- 2 -->
      <defs>
       <path d="M 19.1875 8.296875 
L 53.609375 8.296875 
L 53.609375 0 
L 7.328125 0 
L 7.328125 8.296875 
Q 12.9375 14.109375 22.625 23.890625 
Q 32.328125 33.6875 34.8125 36.53125 
Q 39.546875 41.84375 41.421875 45.53125 
Q 43.3125 49.21875 43.3125 52.78125 
Q 43.3125 58.59375 39.234375 62.25 
Q 35.15625 65.921875 28.609375 65.921875 
Q 23.96875 65.921875 18.8125 64.3125 
Q 13.671875 62.703125 7.8125 59.421875 
L 7.8125 69.390625 
Q 13.765625 71.78125 18.9375 73 
Q 24.125 74.21875 28.421875 74.21875 
Q 39.75 74.21875 46.484375 68.546875 
Q 53.21875 62.890625 53.21875 53.421875 
Q 53.21875 48.921875 51.53125 44.890625 
Q 49.859375 40.875 45.40625 35.40625 
Q 44.1875 33.984375 37.640625 27.21875 
Q 31.109375 20.453125 19.1875 8.296875 
z
" id="DejaVuSans-50"/>
      </defs>
      <g transform="translate(92.66875 266.598437)scale(0.1 -0.1)">
       <use xlink:href="#DejaVuSans-50"/>
      </g>
     </g>
    </g>
    <g id="xtick_2">
     <g id="line2d_2">
      <g>
       <use style="stroke:#000000;stroke-width:0.8;" x="179.55" xlink:href="#mc4b4736318" y="252"/>
      </g>
     </g>
     <g id="text_2">
      <!-- 5 -->
      <defs>
       <path d="M 10.796875 72.90625 
L 49.515625 72.90625 
L 49.515625 64.59375 
L 19.828125 64.59375 
L 19.828125 46.734375 
Q 21.96875 47.46875 24.109375 47.828125 
Q 26.265625 48.1875 28.421875 48.1875 
Q 40.625 48.1875 47.75 41.5 
Q 54.890625 34.8125 54.890625 23.390625 
Q 54.890625 11.625 47.5625 5.09375 
Q 40.234375 -1.421875 26.90625 -1.421875 
Q 22.3125 -1.421875 17.546875 -0.640625 
Q 12.796875 0.140625 7.71875 1.703125 
L 7.71875 11.625 
Q 12.109375 9.234375 16.796875 8.0625 
Q 21.484375 6.890625 26.703125 6.890625 
Q 35.15625 6.890625 40.078125 11.328125 
Q 45.015625 15.765625 45.015625 23.390625 
Q 45.015625 31 40.078125 35.4375 
Q 35.15625 39.890625 26.703125 39.890625 
Q 22.75 39.890625 18.8125 39.015625 
Q 14.890625 38.140625 10.796875 36.28125 
z
" id="DejaVuSans-53"/>
      </defs>
      <g transform="translate(176.36875 266.598437)scale(0.1 -0.1)">
       <use xlink:href="#DejaVuSans-53"/>
      </g>
     </g>
    </g>
    <g id="xtick_3">
     <g id="line2d_3">
      <g>
       <use style="stroke:#000000;stroke-width:0.8;" x="263.25" xlink:href="#mc4b4736318" y="252"/>
      </g>
     </g>
     <g id="text_3">
      <!-- 7 -->
      <defs>
       <path d="M 8.203125 72.90625 
L 55.078125 72.90625 
L 55.078125 68.703125 
L 28.609375 0 
L 18.3125 0 
L 43.21875 64.59375 
L 8.203125 64.59375 
z
" id="DejaVuSans-55"/>
      </defs>
      <g transform="translate(260.06875 266.598437)scale(0.1 -0.1)">
       <use xlink:href="#DejaVuSans-55"/>
      </g>
     </g>
    </g>
    <g id="xtick_4">
     <g id="line2d_4">
      <g>
       <use style="stroke:#000000;stroke-width:0.8;" x="346.95" xlink:href="#mc4b4736318" y="252"/>
      </g>
     </g>
     <g id="text_4">
      <!-- 10 -->
      <defs>
       <path d="M 12.40625 8.296875 
L 28.515625 8.296875 
L 28.515625 63.921875 
L 10.984375 60.40625 
L 10.984375 69.390625 
L 28.421875 72.90625 
L 38.28125 72.90625 
L 38.28125 8.296875 
L 54.390625 8.296875 
L 54.390625 0 
L 12.40625 0 
z
" id="DejaVuSans-49"/>
       <path d="M 31.78125 66.40625 
Q 24.171875 66.40625 20.328125 58.90625 
Q 16.5 51.421875 16.5 36.375 
Q 16.5 21.390625 20.328125 13.890625 
Q 24.171875 6.390625 31.78125 6.390625 
Q 39.453125 6.390625 43.28125 13.890625 
Q 47.125 21.390625 47.125 36.375 
Q 47.125 51.421875 43.28125 58.90625 
Q 39.453125 66.40625 31.78125 66.40625 
z
M 31.78125 74.21875 
Q 44.046875 74.21875 50.515625 64.515625 
Q 56.984375 54.828125 56.984375 36.375 
Q 56.984375 17.96875 50.515625 8.265625 
Q 44.046875 -1.421875 31.78125 -1.421875 
Q 19.53125 -1.421875 13.0625 8.265625 
Q 6.59375 17.96875 6.59375 36.375 
Q 6.59375 54.828125 13.0625 64.515625 
Q 19.53125 74.21875 31.78125 74.21875 
z
" id="DejaVuSans-48"/>
      </defs>
      <g transform="translate(340.5875 266.598437)scale(0.1 -0.1)">
       <use xlink:href="#DejaVuSans-49"/>
       <use x="63.623047" xlink:href="#DejaVuSans-48"/>
      </g>
     </g>
    </g>
    <g id="text_5">
     <!-- k -->
     <defs>
      <path d="M 9.078125 75.984375 
L 18.109375 75.984375 
L 18.109375 31.109375 
L 44.921875 54.6875 
L 56.390625 54.6875 
L 27.390625 29.109375 
L 57.625 0 
L 45.90625 0 
L 18.109375 26.703125 
L 18.109375 0 
L 9.078125 0 
z
" id="DejaVuSans-107"/>
     </defs>
     <g transform="translate(218.504688 280.276563)scale(0.1 -0.1)">
      <use xlink:href="#DejaVuSans-107"/>
     </g>
    </g>
   </g>
   <g id="matplotlib.axis_2">
    <g id="ytick_1">
     <g id="line2d_5">
      <defs>
       <path d="M 0 0 
L -3.5 0 
" id="m0c7f3231ef" style="stroke:#000000;stroke-width:0.8;"/>
      </defs>
      <g>
       <use style="stroke:#000000;stroke-width:0.8;" x="54" xlink:href="#m0c7f3231ef" y="228.805583"/>
      </g>
     </g>
     <g id="text_6">
      <!-- 0.0 -->
      <defs>
       <path d="M 10.6875 12.40625 
L 21 12.40625 
L 21 0 
L 10.6875 0 
z
" id="DejaVuSans-46"/>
      </defs>
      <g transform="translate(31.096875 232.604802)scale(0.1 -0.1)">
       <use xlink:href="#DejaVuSans-48"/>
       <use x="63.623047" xlink:href="#DejaVuSans-46"/>
       <use x="95.410156" xlink:href="#DejaVuSans-48"/>
      </g>
     </g>
    </g>
    <g id="ytick_2">
     <g id="line2d_6">
      <g>
       <use style="stroke:#000000;stroke-width:0.8;" x="54" xlink:href="#m0c7f3231ef" y="193.955852"/>
      </g>
     </g>
     <g id="text_7">
      <!-- 0.2 -->
      <g transform="translate(31.096875 197.755071)scale(0.1 -0.1)">
       <use xlink:href="#DejaVuSans-48"/>
       <use x="63.623047" xlink:href="#DejaVuSans-46"/>
       <use x="95.410156" xlink:href="#DejaVuSans-50"/>
      </g>
     </g>
    </g>
    <g id="ytick_3">
     <g id="line2d_7">
      <g>
       <use style="stroke:#000000;stroke-width:0.8;" x="54" xlink:href="#m0c7f3231ef" y="159.106121"/>
      </g>
     </g>
     <g id="text_8">
      <!-- 0.4 -->
      <defs>
       <path d="M 37.796875 64.3125 
L 12.890625 25.390625 
L 37.796875 25.390625 
z
M 35.203125 72.90625 
L 47.609375 72.90625 
L 47.609375 25.390625 
L 58.015625 25.390625 
L 58.015625 17.1875 
L 47.609375 17.1875 
L 47.609375 0 
L 37.796875 0 
L 37.796875 17.1875 
L 4.890625 17.1875 
L 4.890625 26.703125 
z
" id="DejaVuSans-52"/>
      </defs>
      <g transform="translate(31.096875 162.90534)scale(0.1 -0.1)">
       <use xlink:href="#DejaVuSans-48"/>
       <use x="63.623047" xlink:href="#DejaVuSans-46"/>
       <use x="95.410156" xlink:href="#DejaVuSans-52"/>
      </g>
     </g>
    </g>
    <g id="ytick_4">
     <g id="line2d_8">
      <g>
       <use style="stroke:#000000;stroke-width:0.8;" x="54" xlink:href="#m0c7f3231ef" y="124.25639"/>
      </g>
     </g>
     <g id="text_9">
      <!-- 0.6 -->
      <defs>
       <path d="M 33.015625 40.375 
Q 26.375 40.375 22.484375 35.828125 
Q 18.609375 31.296875 18.609375 23.390625 
Q 18.609375 15.53125 22.484375 10.953125 
Q 26.375 6.390625 33.015625 6.390625 
Q 39.65625 6.390625 43.53125 10.953125 
Q 47.40625 15.53125 47.40625 23.390625 
Q 47.40625 31.296875 43.53125 35.828125 
Q 39.65625 40.375 33.015625 40.375 
z
M 52.59375 71.296875 
L 52.59375 62.3125 
Q 48.875 64.0625 45.09375 64.984375 
Q 41.3125 65.921875 37.59375 65.921875 
Q 27.828125 65.921875 22.671875 59.328125 
Q 17.53125 52.734375 16.796875 39.40625 
Q 19.671875 43.65625 24.015625 45.921875 
Q 28.375 48.1875 33.59375 48.1875 
Q 44.578125 48.1875 50.953125 41.515625 
Q 57.328125 34.859375 57.328125 23.390625 
Q 57.328125 12.15625 50.6875 5.359375 
Q 44.046875 -1.421875 33.015625 -1.421875 
Q 20.359375 -1.421875 13.671875 8.265625 
Q 6.984375 17.96875 6.984375 36.375 
Q 6.984375 53.65625 15.1875 63.9375 
Q 23.390625 74.21875 37.203125 74.21875 
Q 40.921875 74.21875 44.703125 73.484375 
Q 48.484375 72.75 52.59375 71.296875 
z
" id="DejaVuSans-54"/>
      </defs>
      <g transform="translate(31.096875 128.055609)scale(0.1 -0.1)">
       <use xlink:href="#DejaVuSans-48"/>
       <use x="63.623047" xlink:href="#DejaVuSans-46"/>
       <use x="95.410156" xlink:href="#DejaVuSans-54"/>
      </g>
     </g>
    </g>
    <g id="ytick_5">
     <g id="line2d_9">
      <g>
       <use style="stroke:#000000;stroke-width:0.8;" x="54" xlink:href="#m0c7f3231ef" y="89.40666"/>
      </g>
     </g>
     <g id="text_10">
      <!-- 0.8 -->
      <defs>
       <path d="M 31.78125 34.625 
Q 24.75 34.625 20.71875 30.859375 
Q 16.703125 27.09375 16.703125 20.515625 
Q 16.703125 13.921875 20.71875 10.15625 
Q 24.75 6.390625 31.78125 6.390625 
Q 38.8125 6.390625 42.859375 10.171875 
Q 46.921875 13.96875 46.921875 20.515625 
Q 46.921875 27.09375 42.890625 30.859375 
Q 38.875 34.625 31.78125 34.625 
z
M 21.921875 38.8125 
Q 15.578125 40.375 12.03125 44.71875 
Q 8.5 49.078125 8.5 55.328125 
Q 8.5 64.0625 14.71875 69.140625 
Q 20.953125 74.21875 31.78125 74.21875 
Q 42.671875 74.21875 48.875 69.140625 
Q 55.078125 64.0625 55.078125 55.328125 
Q 55.078125 49.078125 51.53125 44.71875 
Q 48 40.375 41.703125 38.8125 
Q 48.828125 37.15625 52.796875 32.3125 
Q 56.78125 27.484375 56.78125 20.515625 
Q 56.78125 9.90625 50.3125 4.234375 
Q 43.84375 -1.421875 31.78125 -1.421875 
Q 19.734375 -1.421875 13.25 4.234375 
Q 6.78125 9.90625 6.78125 20.515625 
Q 6.78125 27.484375 10.78125 32.3125 
Q 14.796875 37.15625 21.921875 38.8125 
z
M 18.3125 54.390625 
Q 18.3125 48.734375 21.84375 45.5625 
Q 25.390625 42.390625 31.78125 42.390625 
Q 38.140625 42.390625 41.71875 45.5625 
Q 45.3125 48.734375 45.3125 54.390625 
Q 45.3125 60.0625 41.71875 63.234375 
Q 38.140625 66.40625 31.78125 66.40625 
Q 25.390625 66.40625 21.84375 63.234375 
Q 18.3125 60.0625 18.3125 54.390625 
z
" id="DejaVuSans-56"/>
      </defs>
      <g transform="translate(31.096875 93.205878)scale(0.1 -0.1)">
       <use xlink:href="#DejaVuSans-48"/>
       <use x="63.623047" xlink:href="#DejaVuSans-46"/>
       <use x="95.410156" xlink:href="#DejaVuSans-56"/>
      </g>
     </g>
    </g>
    <g id="ytick_6">
     <g id="line2d_10">
      <g>
       <use style="stroke:#000000;stroke-width:0.8;" x="54" xlink:href="#m0c7f3231ef" y="54.556929"/>
      </g>
     </g>
     <g id="text_11">
      <!-- 1.0 -->
      <g transform="translate(31.096875 58.356147)scale(0.1 -0.1)">
       <use xlink:href="#DejaVuSans-49"/>
       <use x="63.623047" xlink:href="#DejaVuSans-46"/>
       <use x="95.410156" xlink:href="#DejaVuSans-48"/>
      </g>
     </g>
    </g>
    <g id="text_12">
     <!-- train_f1_mean -->
     <defs>
      <path d="M 18.3125 70.21875 
L 18.3125 54.6875 
L 36.8125 54.6875 
L 36.8125 47.703125 
L 18.3125 47.703125 
L 18.3125 18.015625 
Q 18.3125 11.328125 20.140625 9.421875 
Q 21.96875 7.515625 27.59375 7.515625 
L 36.8125 7.515625 
L 36.8125 0 
L 27.59375 0 
Q 17.1875 0 13.234375 3.875 
Q 9.28125 7.765625 9.28125 18.015625 
L 9.28125 47.703125 
L 2.6875 47.703125 
L 2.6875 54.6875 
L 9.28125 54.6875 
L 9.28125 70.21875 
z
" id="DejaVuSans-116"/>
      <path d="M 41.109375 46.296875 
Q 39.59375 47.171875 37.8125 47.578125 
Q 36.03125 48 33.890625 48 
Q 26.265625 48 22.1875 43.046875 
Q 18.109375 38.09375 18.109375 28.8125 
L 18.109375 0 
L 9.078125 0 
L 9.078125 54.6875 
L 18.109375 54.6875 
L 18.109375 46.1875 
Q 20.953125 51.171875 25.484375 53.578125 
Q 30.03125 56 36.53125 56 
Q 37.453125 56 38.578125 55.875 
Q 39.703125 55.765625 41.0625 55.515625 
z
" id="DejaVuSans-114"/>
      <path d="M 34.28125 27.484375 
Q 23.390625 27.484375 19.1875 25 
Q 14.984375 22.515625 14.984375 16.5 
Q 14.984375 11.71875 18.140625 8.90625 
Q 21.296875 6.109375 26.703125 6.109375 
Q 34.1875 6.109375 38.703125 11.40625 
Q 43.21875 16.703125 43.21875 25.484375 
L 43.21875 27.484375 
z
M 52.203125 31.203125 
L 52.203125 0 
L 43.21875 0 
L 43.21875 8.296875 
Q 40.140625 3.328125 35.546875 0.953125 
Q 30.953125 -1.421875 24.3125 -1.421875 
Q 15.921875 -1.421875 10.953125 3.296875 
Q 6 8.015625 6 15.921875 
Q 6 25.140625 12.171875 29.828125 
Q 18.359375 34.515625 30.609375 34.515625 
L 43.21875 34.515625 
L 43.21875 35.40625 
Q 43.21875 41.609375 39.140625 45 
Q 35.0625 48.390625 27.6875 48.390625 
Q 23 48.390625 18.546875 47.265625 
Q 14.109375 46.140625 10.015625 43.890625 
L 10.015625 52.203125 
Q 14.9375 54.109375 19.578125 55.046875 
Q 24.21875 56 28.609375 56 
Q 40.484375 56 46.34375 49.84375 
Q 52.203125 43.703125 52.203125 31.203125 
z
" id="DejaVuSans-97"/>
      <path d="M 9.421875 54.6875 
L 18.40625 54.6875 
L 18.40625 0 
L 9.421875 0 
z
M 9.421875 75.984375 
L 18.40625 75.984375 
L 18.40625 64.59375 
L 9.421875 64.59375 
z
" id="DejaVuSans-105"/>
      <path d="M 54.890625 33.015625 
L 54.890625 0 
L 45.90625 0 
L 45.90625 32.71875 
Q 45.90625 40.484375 42.875 44.328125 
Q 39.84375 48.1875 33.796875 48.1875 
Q 26.515625 48.1875 22.3125 43.546875 
Q 18.109375 38.921875 18.109375 30.90625 
L 18.109375 0 
L 9.078125 0 
L 9.078125 54.6875 
L 18.109375 54.6875 
L 18.109375 46.1875 
Q 21.34375 51.125 25.703125 53.5625 
Q 30.078125 56 35.796875 56 
Q 45.21875 56 50.046875 50.171875 
Q 54.890625 44.34375 54.890625 33.015625 
z
" id="DejaVuSans-110"/>
      <path d="M 50.984375 -16.609375 
L 50.984375 -23.578125 
L -0.984375 -23.578125 
L -0.984375 -16.609375 
z
" id="DejaVuSans-95"/>
      <path d="M 37.109375 75.984375 
L 37.109375 68.5 
L 28.515625 68.5 
Q 23.6875 68.5 21.796875 66.546875 
Q 19.921875 64.59375 19.921875 59.515625 
L 19.921875 54.6875 
L 34.71875 54.6875 
L 34.71875 47.703125 
L 19.921875 47.703125 
L 19.921875 0 
L 10.890625 0 
L 10.890625 47.703125 
L 2.296875 47.703125 
L 2.296875 54.6875 
L 10.890625 54.6875 
L 10.890625 58.5 
Q 10.890625 67.625 15.140625 71.796875 
Q 19.390625 75.984375 28.609375 75.984375 
z
" id="DejaVuSans-102"/>
      <path d="M 52 44.1875 
Q 55.375 50.25 60.0625 53.125 
Q 64.75 56 71.09375 56 
Q 79.640625 56 84.28125 50.015625 
Q 88.921875 44.046875 88.921875 33.015625 
L 88.921875 0 
L 79.890625 0 
L 79.890625 32.71875 
Q 79.890625 40.578125 77.09375 44.375 
Q 74.3125 48.1875 68.609375 48.1875 
Q 61.625 48.1875 57.5625 43.546875 
Q 53.515625 38.921875 53.515625 30.90625 
L 53.515625 0 
L 44.484375 0 
L 44.484375 32.71875 
Q 44.484375 40.625 41.703125 44.40625 
Q 38.921875 48.1875 33.109375 48.1875 
Q 26.21875 48.1875 22.15625 43.53125 
Q 18.109375 38.875 18.109375 30.90625 
L 18.109375 0 
L 9.078125 0 
L 9.078125 54.6875 
L 18.109375 54.6875 
L 18.109375 46.1875 
Q 21.1875 51.21875 25.484375 53.609375 
Q 29.78125 56 35.6875 56 
Q 41.65625 56 45.828125 52.96875 
Q 50 49.953125 52 44.1875 
z
" id="DejaVuSans-109"/>
      <path d="M 56.203125 29.59375 
L 56.203125 25.203125 
L 14.890625 25.203125 
Q 15.484375 15.921875 20.484375 11.0625 
Q 25.484375 6.203125 34.421875 6.203125 
Q 39.59375 6.203125 44.453125 7.46875 
Q 49.3125 8.734375 54.109375 11.28125 
L 54.109375 2.78125 
Q 49.265625 0.734375 44.1875 -0.34375 
Q 39.109375 -1.421875 33.890625 -1.421875 
Q 20.796875 -1.421875 13.15625 6.1875 
Q 5.515625 13.8125 5.515625 26.8125 
Q 5.515625 40.234375 12.765625 48.109375 
Q 20.015625 56 32.328125 56 
Q 43.359375 56 49.78125 48.890625 
Q 56.203125 41.796875 56.203125 29.59375 
z
M 47.21875 32.234375 
Q 47.125 39.59375 43.09375 43.984375 
Q 39.0625 48.390625 32.421875 48.390625 
Q 24.90625 48.390625 20.390625 44.140625 
Q 15.875 39.890625 15.1875 32.171875 
z
" id="DejaVuSans-101"/>
     </defs>
     <g transform="translate(24.739062 179.038594)rotate(-90)scale(0.1 -0.1)">
      <use xlink:href="#DejaVuSans-116"/>
      <use x="39.208984" xlink:href="#DejaVuSans-114"/>
      <use x="80.322266" xlink:href="#DejaVuSans-97"/>
      <use x="141.601562" xlink:href="#DejaVuSans-105"/>
      <use x="169.384766" xlink:href="#DejaVuSans-110"/>
      <use x="232.763672" xlink:href="#DejaVuSans-95"/>
      <use x="282.763672" xlink:href="#DejaVuSans-102"/>
      <use x="317.96875" xlink:href="#DejaVuSans-49"/>
      <use x="381.591797" xlink:href="#DejaVuSans-95"/>
      <use x="431.591797" xlink:href="#DejaVuSans-109"/>
      <use x="529.003906" xlink:href="#DejaVuSans-101"/>
      <use x="590.527344" xlink:href="#DejaVuSans-97"/>
      <use x="651.806641" xlink:href="#DejaVuSans-110"/>
     </g>
    </g>
   </g>
   <g id="line2d_11">
    <path clip-path="url(#p65d376abbf)" d="M 95.85 110.316498 
L 95.85 54.556929 
" style="fill:none;stroke:#3d3d3d;stroke-linecap:square;stroke-width:1.5;"/>
   </g>
   <g id="line2d_12">
    <path clip-path="url(#p65d376abbf)" d="M 95.85 81.580047 
L 95.85 61.403661 
" style="fill:none;stroke:#3d3d3d;stroke-linecap:square;stroke-width:4.5;"/>
   </g>
   <g id="line2d_13">
    <path clip-path="url(#p65d376abbf)" d="M 179.55 119.393637 
L 179.55 62.854484 
" style="fill:none;stroke:#3d3d3d;stroke-linecap:square;stroke-width:1.5;"/>
   </g>
   <g id="line2d_14">
    <path clip-path="url(#p65d376abbf)" d="M 179.55 98.390087 
L 179.55 83.150551 
" style="fill:none;stroke:#3d3d3d;stroke-linecap:square;stroke-width:4.5;"/>
   </g>
   <g id="line2d_15">
    <path clip-path="url(#p65d376abbf)" d="M 263.25 122.008021 
L 263.25 74.8184 
" style="fill:none;stroke:#3d3d3d;stroke-linecap:square;stroke-width:1.5;"/>
   </g>
   <g id="line2d_16">
    <path clip-path="url(#p65d376abbf)" d="M 263.25 102.158099 
L 263.25 88.585895 
" style="fill:none;stroke:#3d3d3d;stroke-linecap:square;stroke-width:4.5;"/>
   </g>
   <g id="line2d_17">
    <path clip-path="url(#p65d376abbf)" d="M 346.95 139.447299 
L 346.95 73.131658 
" style="fill:none;stroke:#3d3d3d;stroke-linecap:square;stroke-width:1.5;"/>
   </g>
   <g id="line2d_18">
    <path clip-path="url(#p65d376abbf)" d="M 346.95 113.538655 
L 346.95 95.238369 
" style="fill:none;stroke:#3d3d3d;stroke-linecap:square;stroke-width:4.5;"/>
   </g>
   <g id="patch_3">
    <path d="M 54 252 
L 54 34.56 
" style="fill:none;stroke:#000000;stroke-linecap:square;stroke-linejoin:miter;stroke-width:0.8;"/>
   </g>
   <g id="patch_4">
    <path d="M 388.8 252 
L 388.8 34.56 
" style="fill:none;stroke:#000000;stroke-linecap:square;stroke-linejoin:miter;stroke-width:0.8;"/>
   </g>
   <g id="patch_5">
    <path d="M 54 252 
L 388.8 252 
" style="fill:none;stroke:#000000;stroke-linecap:square;stroke-linejoin:miter;stroke-width:0.8;"/>
   </g>
   <g id="patch_6">
    <path d="M 54 34.56 
L 388.8 34.56 
" style="fill:none;stroke:#000000;stroke-linecap:square;stroke-linejoin:miter;stroke-width:0.8;"/>
   </g>
   <g id="PathCollection_1">
    <defs>
     <path d="M 0 1.5 
C 0.397805 1.5 0.77937 1.341951 1.06066 1.06066 
C 1.341951 0.77937 1.5 0.397805 1.5 0 
C 1.5 -0.397805 1.341951 -0.77937 1.06066 -1.06066 
C 0.77937 -1.341951 0.397805 -1.5 0 -1.5 
C -0.397805 -1.5 -0.77937 -1.341951 -1.06066 -1.06066 
C -1.341951 -0.77937 -1.5 -0.397805 -1.5 0 
C -1.5 0.397805 -1.341951 0.77937 -1.06066 1.06066 
C -0.77937 1.341951 -0.397805 1.5 0 1.5 
z
" id="m17dde6e5ae" style="stroke:#3d3d3d;"/>
    </defs>
    <g clip-path="url(#p65d376abbf)">
     <use style="fill:#ffffff;stroke:#3d3d3d;" x="95.85" xlink:href="#m17dde6e5ae" y="69.323764"/>
    </g>
   </g>
   <g id="PathCollection_2">
    <g clip-path="url(#p65d376abbf)">
     <use style="fill:#ffffff;stroke:#3d3d3d;" x="179.55" xlink:href="#m17dde6e5ae" y="88.909989"/>
    </g>
   </g>
   <g id="PathCollection_3">
    <g clip-path="url(#p65d376abbf)">
     <use style="fill:#ffffff;stroke:#3d3d3d;" x="263.25" xlink:href="#m17dde6e5ae" y="95.079872"/>
    </g>
   </g>
   <g id="PathCollection_4">
    <g clip-path="url(#p65d376abbf)">
     <use style="fill:#ffffff;stroke:#3d3d3d;" x="346.95" xlink:href="#m17dde6e5ae" y="103.158112"/>
    </g>
   </g>
   <g id="text_13">
    <!-- Train F1 for each k -->
    <defs>
     <path d="M -0.296875 72.90625 
L 61.375 72.90625 
L 61.375 64.59375 
L 35.5 64.59375 
L 35.5 0 
L 25.59375 0 
L 25.59375 64.59375 
L -0.296875 64.59375 
z
" id="DejaVuSans-84"/>
     <path id="DejaVuSans-32"/>
     <path d="M 9.8125 72.90625 
L 51.703125 72.90625 
L 51.703125 64.59375 
L 19.671875 64.59375 
L 19.671875 43.109375 
L 48.578125 43.109375 
L 48.578125 34.8125 
L 19.671875 34.8125 
L 19.671875 0 
L 9.8125 0 
z
" id="DejaVuSans-70"/>
     <path d="M 30.609375 48.390625 
Q 23.390625 48.390625 19.1875 42.75 
Q 14.984375 37.109375 14.984375 27.296875 
Q 14.984375 17.484375 19.15625 11.84375 
Q 23.34375 6.203125 30.609375 6.203125 
Q 37.796875 6.203125 41.984375 11.859375 
Q 46.1875 17.53125 46.1875 27.296875 
Q 46.1875 37.015625 41.984375 42.703125 
Q 37.796875 48.390625 30.609375 48.390625 
z
M 30.609375 56 
Q 42.328125 56 49.015625 48.375 
Q 55.71875 40.765625 55.71875 27.296875 
Q 55.71875 13.875 49.015625 6.21875 
Q 42.328125 -1.421875 30.609375 -1.421875 
Q 18.84375 -1.421875 12.171875 6.21875 
Q 5.515625 13.875 5.515625 27.296875 
Q 5.515625 40.765625 12.171875 48.375 
Q 18.84375 56 30.609375 56 
z
" id="DejaVuSans-111"/>
     <path d="M 48.78125 52.59375 
L 48.78125 44.1875 
Q 44.96875 46.296875 41.140625 47.34375 
Q 37.3125 48.390625 33.40625 48.390625 
Q 24.65625 48.390625 19.8125 42.84375 
Q 14.984375 37.3125 14.984375 27.296875 
Q 14.984375 17.28125 19.8125 11.734375 
Q 24.65625 6.203125 33.40625 6.203125 
Q 37.3125 6.203125 41.140625 7.25 
Q 44.96875 8.296875 48.78125 10.40625 
L 48.78125 2.09375 
Q 45.015625 0.34375 40.984375 -0.53125 
Q 36.96875 -1.421875 32.421875 -1.421875 
Q 20.0625 -1.421875 12.78125 6.34375 
Q 5.515625 14.109375 5.515625 27.296875 
Q 5.515625 40.671875 12.859375 48.328125 
Q 20.21875 56 33.015625 56 
Q 37.15625 56 41.109375 55.140625 
Q 45.0625 54.296875 48.78125 52.59375 
z
" id="DejaVuSans-99"/>
     <path d="M 54.890625 33.015625 
L 54.890625 0 
L 45.90625 0 
L 45.90625 32.71875 
Q 45.90625 40.484375 42.875 44.328125 
Q 39.84375 48.1875 33.796875 48.1875 
Q 26.515625 48.1875 22.3125 43.546875 
Q 18.109375 38.921875 18.109375 30.90625 
L 18.109375 0 
L 9.078125 0 
L 9.078125 75.984375 
L 18.109375 75.984375 
L 18.109375 46.1875 
Q 21.34375 51.125 25.703125 53.5625 
Q 30.078125 56 35.796875 56 
Q 45.21875 56 50.046875 50.171875 
Q 54.890625 44.34375 54.890625 33.015625 
z
" id="DejaVuSans-104"/>
    </defs>
    <g transform="translate(165.045 28.56)scale(0.12 -0.12)">
     <use xlink:href="#DejaVuSans-84"/>
     <use x="60.865234" xlink:href="#DejaVuSans-114"/>
     <use x="101.978516" xlink:href="#DejaVuSans-97"/>
     <use x="163.257812" xlink:href="#DejaVuSans-105"/>
     <use x="191.041016" xlink:href="#DejaVuSans-110"/>
     <use x="254.419922" xlink:href="#DejaVuSans-32"/>
     <use x="286.207031" xlink:href="#DejaVuSans-70"/>
     <use x="343.726562" xlink:href="#DejaVuSans-49"/>
     <use x="407.349609" xlink:href="#DejaVuSans-32"/>
     <use x="439.136719" xlink:href="#DejaVuSans-102"/>
     <use x="474.341797" xlink:href="#DejaVuSans-111"/>
     <use x="535.523438" xlink:href="#DejaVuSans-114"/>
     <use x="576.636719" xlink:href="#DejaVuSans-32"/>
     <use x="608.423828" xlink:href="#DejaVuSans-101"/>
     <use x="669.947266" xlink:href="#DejaVuSans-97"/>
     <use x="731.226562" xlink:href="#DejaVuSans-99"/>
     <use x="786.207031" xlink:href="#DejaVuSans-104"/>
     <use x="849.585938" xlink:href="#DejaVuSans-32"/>
     <use x="881.373047" xlink:href="#DejaVuSans-107"/>
    </g>
   </g>
  </g>
 </g>
 <defs>
  <clipPath id="p65d376abbf">
   <rect height="217.44" width="334.8" x="54" y="34.56"/>
  </clipPath>
 </defs>
</svg>
