<?xml version="1.0" encoding="utf-8" standalone="no"?>
<!DOCTYPE svg PUBLIC "-//W3C//DTD SVG 1.1//EN"
  "http://www.w3.org/Graphics/SVG/1.1/DTD/svg11.dtd">
<!-- Created with matplotlib (https://matplotlib.org/) -->
<svg height="288pt" version="1.1" viewBox="0 0 432 288" width="432pt" xmlns="http://www.w3.org/2000/svg" xmlns:xlink="http://www.w3.org/1999/xlink">
 <defs>
  <style type="text/css">
*{stroke-linecap:butt;stroke-linejoin:round;white-space:pre;}
  </style>
 </defs>
 <g id="figure_1">
  <g id="patch_1">
   <path d="M 0 288 
L 432 288 
L 432 0 
L 0 0 
z
" style="fill:#ffffff;"/>
  </g>
  <g id="axes_1">
   <g id="patch_2">
    <path d="M 54 252 
L 388.8 252 
L 388.8 34.56 
L 54 34.56 
z
" style="fill:#ffffff;"/>
   </g>
   <g id="PolyCollection_1">
    <defs>
     <path d="M 96.123793 -149.921914 
L 95.576207 -149.921914 
L 95.570189 -150.867716 
L 95.567143 -151.813519 
L 95.565342 -152.759321 
L 95.562635 -153.705124 
L 95.556684 -154.650926 
L 95.545249 -155.596729 
L 95.526466 -156.542532 
L 95.499074 -157.488334 
L 95.462554 -158.434137 
L 95.417165 -159.379939 
L 95.363854 -160.325742 
L 95.304069 -161.271544 
L 95.239495 -162.217347 
L 95.171751 -163.163149 
L 95.102116 -164.108952 
L 95.031303 -165.054754 
L 94.959342 -166.000557 
L 94.885573 -166.946359 
L 94.808754 -167.892162 
L 94.727267 -168.837964 
L 94.639376 -169.783767 
L 94.543488 -170.729569 
L 94.438386 -171.675372 
L 94.323382 -172.621174 
L 94.198377 -173.566977 
L 94.063825 -174.512779 
L 93.920619 -175.458582 
L 93.76994 -176.404385 
L 93.613091 -177.350187 
L 93.45137 -178.29599 
L 93.285984 -179.241792 
L 93.118018 -180.187595 
L 92.94844 -181.133397 
L 92.778105 -182.0792 
L 92.607738 -183.025002 
L 92.437864 -183.970805 
L 92.268689 -184.916607 
L 92.099969 -185.86241 
L 91.930888 -186.808212 
L 91.760021 -187.754015 
L 91.585401 -188.699817 
L 91.404725 -189.64562 
L 91.215648 -190.591422 
L 91.016118 -191.537225 
L 90.804644 -192.483027 
L 90.580422 -193.42883 
L 90.343239 -194.374632 
L 90.093147 -195.320435 
L 89.829963 -196.266237 
L 89.552715 -197.21204 
L 89.259184 -198.157843 
L 88.945694 -199.103645 
L 88.607295 -200.049448 
L 88.238345 -200.99525 
L 87.833466 -201.941053 
L 87.388701 -202.886855 
L 86.902665 -203.832658 
L 86.377434 -204.77846 
L 85.818964 -205.724263 
L 85.236892 -206.670065 
L 84.643695 -207.615868 
L 84.0533 -208.56167 
L 83.479352 -209.507473 
L 82.933403 -210.453275 
L 82.42332 -211.399078 
L 81.952173 -212.34488 
L 81.517751 -213.290683 
L 81.112789 -214.236485 
L 80.725816 -215.182288 
L 80.342455 -216.12809 
L 79.946953 -217.073893 
L 79.523679 -218.019696 
L 79.058388 -218.965498 
L 78.539135 -219.911301 
L 77.956815 -220.857103 
L 77.305406 -221.802906 
L 76.582081 -222.748708 
L 75.787335 -223.694511 
L 74.925294 -224.640313 
L 74.004254 -225.586116 
L 73.037419 -226.531918 
L 72.043721 -227.477721 
L 71.048483 -228.423523 
L 70.083707 -229.369326 
L 69.187756 -230.315128 
L 68.404247 -231.260931 
L 67.780118 -232.206733 
L 67.36289 -233.152536 
L 67.197323 -234.098338 
L 67.32171 -235.044141 
L 67.764187 -235.989943 
L 68.539462 -236.935746 
L 69.646352 -237.881548 
L 71.066522 -238.827351 
L 72.76466 -239.773154 
L 74.690218 -240.718956 
L 76.780626 -241.664759 
L 78.965712 -242.610561 
L 81.172849 -243.556364 
L 110.527151 -243.556364 
L 110.527151 -243.556364 
L 112.734288 -242.610561 
L 114.919374 -241.664759 
L 117.009782 -240.718956 
L 118.93534 -239.773154 
L 120.633478 -238.827351 
L 122.053648 -237.881548 
L 123.160538 -236.935746 
L 123.935813 -235.989943 
L 124.37829 -235.044141 
L 124.502677 -234.098338 
L 124.33711 -233.152536 
L 123.919882 -232.206733 
L 123.295753 -231.260931 
L 122.512244 -230.315128 
L 121.616293 -229.369326 
L 120.651517 -228.423523 
L 119.656279 -227.477721 
L 118.662581 -226.531918 
L 117.695746 -225.586116 
L 116.774706 -224.640313 
L 115.912665 -223.694511 
L 115.117919 -222.748708 
L 114.394594 -221.802906 
L 113.743185 -220.857103 
L 113.160865 -219.911301 
L 112.641612 -218.965498 
L 112.176321 -218.019696 
L 111.753047 -217.073893 
L 111.357545 -216.12809 
L 110.974184 -215.182288 
L 110.587211 -214.236485 
L 110.182249 -213.290683 
L 109.747827 -212.34488 
L 109.27668 -211.399078 
L 108.766597 -210.453275 
L 108.220648 -209.507473 
L 107.6467 -208.56167 
L 107.056305 -207.615868 
L 106.463108 -206.670065 
L 105.881036 -205.724263 
L 105.322566 -204.77846 
L 104.797335 -203.832658 
L 104.311299 -202.886855 
L 103.866534 -201.941053 
L 103.461655 -200.99525 
L 103.092705 -200.049448 
L 102.754306 -199.103645 
L 102.440816 -198.157843 
L 102.147285 -197.21204 
L 101.870037 -196.266237 
L 101.606853 -195.320435 
L 101.356761 -194.374632 
L 101.119578 -193.42883 
L 100.895356 -192.483027 
L 100.683882 -191.537225 
L 100.484352 -190.591422 
L 100.295275 -189.64562 
L 100.114599 -188.699817 
L 99.939979 -187.754015 
L 99.769112 -186.808212 
L 99.600031 -185.86241 
L 99.431311 -184.916607 
L 99.262136 -183.970805 
L 99.092262 -183.025002 
L 98.921895 -182.0792 
L 98.75156 -181.133397 
L 98.581982 -180.187595 
L 98.414016 -179.241792 
L 98.24863 -178.29599 
L 98.086909 -177.350187 
L 97.93006 -176.404385 
L 97.779381 -175.458582 
L 97.636175 -174.512779 
L 97.501623 -173.566977 
L 97.376618 -172.621174 
L 97.261614 -171.675372 
L 97.156512 -170.729569 
L 97.060624 -169.783767 
L 96.972733 -168.837964 
L 96.891246 -167.892162 
L 96.814427 -166.946359 
L 96.740658 -166.000557 
L 96.668697 -165.054754 
L 96.597884 -164.108952 
L 96.528249 -163.163149 
L 96.460505 -162.217347 
L 96.395931 -161.271544 
L 96.336146 -160.325742 
L 96.282835 -159.379939 
L 96.237446 -158.434137 
L 96.200926 -157.488334 
L 96.173534 -156.542532 
L 96.154751 -155.596729 
L 96.143316 -154.650926 
L 96.137365 -153.705124 
L 96.134658 -152.759321 
L 96.132857 -151.813519 
L 96.129811 -150.867716 
L 96.123793 -149.921914 
z
" id="m06cc13fddd" style="stroke:#3d3d3d;stroke-width:1.5;"/>
    </defs>
    <g clip-path="url(#p9ab8c73568)">
     <use style="fill:#3274a1;stroke:#3d3d3d;stroke-width:1.5;" x="0" xlink:href="#m06cc13fddd" y="288"/>
    </g>
   </g>
   <g id="PolyCollection_2">
    <defs>
     <path d="M 179.941239 -149.921914 
L 179.158761 -149.921914 
L 179.148252 -150.772636 
L 179.145317 -151.623358 
L 179.146173 -152.474079 
L 179.146413 -153.324801 
L 179.142 -154.175523 
L 179.130108 -155.026245 
L 179.109575 -155.876967 
L 179.080866 -156.727689 
L 179.045602 -157.57841 
L 179.005885 -158.429132 
L 178.963653 -159.279854 
L 178.92028 -160.130576 
L 178.876474 -160.981298 
L 178.832367 -161.83202 
L 178.787607 -162.682742 
L 178.741237 -163.533463 
L 178.69127 -164.384185 
L 178.634057 -165.234907 
L 178.563702 -166.085629 
L 178.471898 -166.936351 
L 178.348481 -167.787073 
L 178.18285 -168.637794 
L 177.966091 -169.488516 
L 177.69338 -170.339238 
L 177.366038 -171.18996 
L 176.992576 -172.040682 
L 176.588231 -172.891404 
L 176.172837 -173.742126 
L 175.767307 -174.592847 
L 175.389373 -175.443569 
L 175.049501 -176.294291 
L 174.747914 -177.145013 
L 174.473413 -177.995735 
L 174.204311 -178.846457 
L 173.911341 -179.697178 
L 173.562002 -180.5479 
L 173.125588 -181.398622 
L 172.57807 -182.249344 
L 171.906093 -183.100066 
L 171.109447 -183.950788 
L 170.201604 -184.80151 
L 169.208101 -185.652231 
L 168.16287 -186.502953 
L 167.102945 -187.353675 
L 166.062361 -188.204397 
L 165.066296 -189.055119 
L 164.12661 -189.905841 
L 163.239707 -190.756562 
L 162.387272 -191.607284 
L 161.539847 -192.458006 
L 160.662621 -193.308728 
L 159.722344 -194.15945 
L 158.694016 -195.010172 
L 157.566014 -195.860894 
L 156.342712 -196.711615 
L 155.0442 -197.562337 
L 153.703409 -198.413059 
L 152.36152 -199.263781 
L 151.062838 -200.114503 
L 149.850252 -200.965225 
L 148.762026 -201.815946 
L 147.830106 -202.666668 
L 147.079659 -203.51739 
L 146.529218 -204.368112 
L 146.190852 -205.218834 
L 146.07 -206.069556 
L 146.165046 -206.920278 
L 146.467095 -207.770999 
L 146.960586 -208.621721 
L 147.625243 -209.472443 
L 148.439429 -210.323165 
L 149.384315 -211.173887 
L 150.447723 -212.024609 
L 151.626273 -212.87533 
L 152.924755 -213.726052 
L 154.352459 -214.576774 
L 155.917215 -215.427496 
L 157.618801 -216.278218 
L 159.443739 -217.12894 
L 161.363161 -217.979662 
L 163.334468 -218.830383 
L 165.306302 -219.681105 
L 167.225363 -220.531827 
L 169.043153 -221.382549 
L 170.720987 -222.233271 
L 172.232408 -223.083993 
L 173.563038 -223.934714 
L 174.708699 -224.785436 
L 175.6729 -225.636158 
L 176.464631 -226.48688 
L 177.096952 -227.337602 
L 177.586325 -228.188324 
L 177.952265 -229.039046 
L 178.216818 -229.889767 
L 178.403507 -230.740489 
L 178.535714 -231.591211 
L 178.634751 -232.441933 
L 178.718055 -233.292655 
L 178.79795 -234.143377 
L 180.30205 -234.143377 
L 180.30205 -234.143377 
L 180.381945 -233.292655 
L 180.465249 -232.441933 
L 180.564286 -231.591211 
L 180.696493 -230.740489 
L 180.883182 -229.889767 
L 181.147735 -229.039046 
L 181.513675 -228.188324 
L 182.003048 -227.337602 
L 182.635369 -226.48688 
L 183.4271 -225.636158 
L 184.391301 -224.785436 
L 185.536962 -223.934714 
L 186.867592 -223.083993 
L 188.379013 -222.233271 
L 190.056847 -221.382549 
L 191.874637 -220.531827 
L 193.793698 -219.681105 
L 195.765532 -218.830383 
L 197.736839 -217.979662 
L 199.656261 -217.12894 
L 201.481199 -216.278218 
L 203.182785 -215.427496 
L 204.747541 -214.576774 
L 206.175245 -213.726052 
L 207.473727 -212.87533 
L 208.652277 -212.024609 
L 209.715685 -211.173887 
L 210.660571 -210.323165 
L 211.474757 -209.472443 
L 212.139414 -208.621721 
L 212.632905 -207.770999 
L 212.934954 -206.920278 
L 213.03 -206.069556 
L 212.909148 -205.218834 
L 212.570782 -204.368112 
L 212.020341 -203.51739 
L 211.269894 -202.666668 
L 210.337974 -201.815946 
L 209.249748 -200.965225 
L 208.037162 -200.114503 
L 206.73848 -199.263781 
L 205.396591 -198.413059 
L 204.0558 -197.562337 
L 202.757288 -196.711615 
L 201.533986 -195.860894 
L 200.405984 -195.010172 
L 199.377656 -194.15945 
L 198.437379 -193.308728 
L 197.560153 -192.458006 
L 196.712728 -191.607284 
L 195.860293 -190.756562 
L 194.97339 -189.905841 
L 194.033704 -189.055119 
L 193.037639 -188.204397 
L 191.997055 -187.353675 
L 190.93713 -186.502953 
L 189.891899 -185.652231 
L 188.898396 -184.80151 
L 187.990553 -183.950788 
L 187.193907 -183.100066 
L 186.52193 -182.249344 
L 185.974412 -181.398622 
L 185.537998 -180.5479 
L 185.188659 -179.697178 
L 184.895689 -178.846457 
L 184.626587 -177.995735 
L 184.352086 -177.145013 
L 184.050499 -176.294291 
L 183.710627 -175.443569 
L 183.332693 -174.592847 
L 182.927163 -173.742126 
L 182.511769 -172.891404 
L 182.107424 -172.040682 
L 181.733962 -171.18996 
L 181.40662 -170.339238 
L 181.133909 -169.488516 
L 180.91715 -168.637794 
L 180.751519 -167.787073 
L 180.628102 -166.936351 
L 180.536298 -166.085629 
L 180.465943 -165.234907 
L 180.40873 -164.384185 
L 180.358763 -163.533463 
L 180.312393 -162.682742 
L 180.267633 -161.83202 
L 180.223526 -160.981298 
L 180.17972 -160.130576 
L 180.136347 -159.279854 
L 180.094115 -158.429132 
L 180.054398 -157.57841 
L 180.019134 -156.727689 
L 179.990425 -155.876967 
L 179.969892 -155.026245 
L 179.958 -154.175523 
L 179.953587 -153.324801 
L 179.953827 -152.474079 
L 179.954683 -151.623358 
L 179.951748 -150.772636 
L 179.941239 -149.921914 
z
" id="m588926649c" style="stroke:#3d3d3d;stroke-width:1.5;"/>
    </defs>
    <g clip-path="url(#p9ab8c73568)">
     <use style="fill:#e1812c;stroke:#3d3d3d;stroke-width:1.5;" x="0" xlink:href="#m588926649c" y="288"/>
    </g>
   </g>
   <g id="PolyCollection_3">
    <defs>
     <path d="M 263.523061 -45.883636 
L 262.976939 -45.883636 
L 262.993786 -47.78525 
L 263.038344 -49.686863 
L 263.096063 -51.588477 
L 263.151431 -53.490091 
L 263.194432 -55.391704 
L 263.22242 -57.293318 
L 263.237948 -59.194931 
L 263.245364 -61.096545 
L 263.24843 -62.998158 
L 263.249532 -64.899772 
L 263.249877 -66.801385 
L 263.249972 -68.702999 
L 263.249994 -70.604612 
L 263.249999 -72.506226 
L 263.25 -74.407839 
L 263.25 -76.309453 
L 263.25 -78.211067 
L 263.25 -80.11268 
L 263.25 -82.014294 
L 263.25 -83.915907 
L 263.25 -85.817521 
L 263.25 -87.719134 
L 263.25 -89.620748 
L 263.25 -91.522361 
L 263.25 -93.423975 
L 263.25 -95.325588 
L 263.25 -97.227202 
L 263.249998 -99.128815 
L 263.249989 -101.030429 
L 263.249947 -102.932043 
L 263.249781 -104.833656 
L 263.249209 -106.73527 
L 263.247487 -108.636883 
L 263.242966 -110.538497 
L 263.232664 -112.44011 
L 263.212377 -114.341724 
L 263.178075 -116.243337 
L 263.128789 -118.144951 
L 263.069647 -120.046564 
L 263.012216 -121.948178 
L 262.969993 -123.849791 
L 262.950459 -125.751405 
L 262.94911 -127.653018 
L 262.950824 -129.554632 
L 262.938782 -131.456246 
L 262.905046 -133.357859 
L 262.855559 -135.259473 
L 262.806907 -137.161086 
L 262.778002 -139.0627 
L 262.782011 -140.964313 
L 262.821721 -142.865927 
L 262.888604 -144.76754 
L 262.964695 -146.669154 
L 263.026236 -148.570767 
L 263.047721 -150.472381 
L 263.00508 -152.373994 
L 262.878243 -154.275608 
L 262.654834 -156.177222 
L 262.335639 -158.078835 
L 261.938619 -159.980449 
L 261.495093 -161.882062 
L 261.033996 -163.783676 
L 260.55868 -165.685289 
L 260.029718 -167.586903 
L 259.368055 -169.488516 
L 258.482463 -171.39013 
L 257.310402 -173.291743 
L 255.852433 -175.193357 
L 254.181756 -177.09497 
L 252.41959 -178.996584 
L 250.680647 -180.898198 
L 249.009484 -182.799811 
L 247.342142 -184.701425 
L 245.524988 -186.603038 
L 243.395533 -188.504652 
L 240.890276 -190.406265 
L 238.120527 -192.307879 
L 235.369816 -194.209492 
L 233.01119 -196.111106 
L 231.390258 -198.012719 
L 230.736359 -199.914333 
L 231.136864 -201.815946 
L 232.561815 -203.71756 
L 234.899127 -205.619174 
L 237.97349 -207.520787 
L 241.553273 -209.422401 
L 245.364768 -211.324014 
L 249.123397 -213.225628 
L 252.574878 -215.127241 
L 255.532237 -217.028855 
L 257.897121 -218.930468 
L 259.660099 -220.832082 
L 260.882038 -222.733695 
L 261.66552 -224.635309 
L 262.127462 -226.536922 
L 262.379733 -228.438536 
L 262.517542 -230.34015 
L 262.612083 -232.241763 
L 262.706028 -234.143377 
L 263.793972 -234.143377 
L 263.793972 -234.143377 
L 263.887917 -232.241763 
L 263.982458 -230.34015 
L 264.120267 -228.438536 
L 264.372538 -226.536922 
L 264.83448 -224.635309 
L 265.617962 -222.733695 
L 266.839901 -220.832082 
L 268.602879 -218.930468 
L 270.967763 -217.028855 
L 273.925122 -215.127241 
L 277.376603 -213.225628 
L 281.135232 -211.324014 
L 284.946727 -209.422401 
L 288.52651 -207.520787 
L 291.600873 -205.619174 
L 293.938185 -203.71756 
L 295.363136 -201.815946 
L 295.763641 -199.914333 
L 295.109742 -198.012719 
L 293.48881 -196.111106 
L 291.130184 -194.209492 
L 288.379473 -192.307879 
L 285.609724 -190.406265 
L 283.104467 -188.504652 
L 280.975012 -186.603038 
L 279.157858 -184.701425 
L 277.490516 -182.799811 
L 275.819353 -180.898198 
L 274.08041 -178.996584 
L 272.318244 -177.09497 
L 270.647567 -175.193357 
L 269.189598 -173.291743 
L 268.017537 -171.39013 
L 267.131945 -169.488516 
L 266.470282 -167.586903 
L 265.94132 -165.685289 
L 265.466004 -163.783676 
L 265.004907 -161.882062 
L 264.561381 -159.980449 
L 264.164361 -158.078835 
L 263.845166 -156.177222 
L 263.621757 -154.275608 
L 263.49492 -152.373994 
L 263.452279 -150.472381 
L 263.473764 -148.570767 
L 263.535305 -146.669154 
L 263.611396 -144.76754 
L 263.678279 -142.865927 
L 263.717989 -140.964313 
L 263.721998 -139.0627 
L 263.693093 -137.161086 
L 263.644441 -135.259473 
L 263.594954 -133.357859 
L 263.561218 -131.456246 
L 263.549176 -129.554632 
L 263.55089 -127.653018 
L 263.549541 -125.751405 
L 263.530007 -123.849791 
L 263.487784 -121.948178 
L 263.430353 -120.046564 
L 263.371211 -118.144951 
L 263.321925 -116.243337 
L 263.287623 -114.341724 
L 263.267336 -112.44011 
L 263.257034 -110.538497 
L 263.252513 -108.636883 
L 263.250791 -106.73527 
L 263.250219 -104.833656 
L 263.250053 -102.932043 
L 263.250011 -101.030429 
L 263.250002 -99.128815 
L 263.25 -97.227202 
L 263.25 -95.325588 
L 263.25 -93.423975 
L 263.25 -91.522361 
L 263.25 -89.620748 
L 263.25 -87.719134 
L 263.25 -85.817521 
L 263.25 -83.915907 
L 263.25 -82.014294 
L 263.25 -80.11268 
L 263.25 -78.211067 
L 263.25 -76.309453 
L 263.25 -74.407839 
L 263.250001 -72.506226 
L 263.250006 -70.604612 
L 263.250028 -68.702999 
L 263.250123 -66.801385 
L 263.250468 -64.899772 
L 263.25157 -62.998158 
L 263.254636 -61.096545 
L 263.262052 -59.194931 
L 263.27758 -57.293318 
L 263.305568 -55.391704 
L 263.348569 -53.490091 
L 263.403937 -51.588477 
L 263.461656 -49.686863 
L 263.506214 -47.78525 
L 263.523061 -45.883636 
z
" id="m1882133c35" style="stroke:#3d3d3d;stroke-width:1.5;"/>
    </defs>
    <g clip-path="url(#p9ab8c73568)">
     <use style="fill:#3a923a;stroke:#3d3d3d;stroke-width:1.5;" x="0" xlink:href="#m1882133c35" y="288"/>
    </g>
   </g>
   <g id="PolyCollection_4">
    <defs>
     <path d="M 347.523181 -45.883636 
L 346.376819 -45.883636 
L 346.394286 -47.78525 
L 346.443559 -49.686863 
L 346.516164 -51.588477 
L 346.600666 -53.490091 
L 346.685592 -55.391704 
L 346.761883 -57.293318 
L 346.824195 -59.194931 
L 346.870916 -61.096545 
L 346.90327 -62.998158 
L 346.924044 -64.899772 
L 346.936445 -66.801385 
L 346.943338 -68.702999 
L 346.946898 -70.604612 
L 346.948577 -72.506226 
L 346.94922 -74.407839 
L 346.949218 -76.309453 
L 346.948625 -78.211067 
L 346.947204 -80.11268 
L 346.944442 -82.014294 
L 346.93954 -83.915907 
L 346.931453 -85.817521 
L 346.919029 -87.719134 
L 346.901253 -89.620748 
L 346.877584 -91.522361 
L 346.848253 -93.423975 
L 346.814379 -95.325588 
L 346.777751 -97.227202 
L 346.740289 -99.128815 
L 346.703322 -101.030429 
L 346.667033 -102.932043 
L 346.630336 -104.833656 
L 346.591334 -106.73527 
L 346.548134 -108.636883 
L 346.499625 -110.538497 
L 346.445779 -112.44011 
L 346.387333 -114.341724 
L 346.325033 -116.243337 
L 346.258932 -118.144951 
L 346.188173 -120.046564 
L 346.111465 -121.948178 
L 346.028011 -123.849791 
L 345.938464 -125.751405 
L 345.845392 -127.653018 
L 345.753015 -129.554632 
L 345.666228 -131.456246 
L 345.589238 -133.357859 
L 345.524215 -135.259473 
L 345.470326 -137.161086 
L 345.423293 -139.0627 
L 345.375415 -140.964313 
L 345.315809 -142.865927 
L 345.230661 -144.76754 
L 345.103442 -146.669154 
L 344.9153 -148.570767 
L 344.646029 -150.472381 
L 344.275918 -152.373994 
L 343.788441 -154.275608 
L 343.173172 -156.177222 
L 342.427856 -158.078835 
L 341.55853 -159.980449 
L 340.577185 -161.882062 
L 339.497575 -163.783676 
L 338.330884 -165.685289 
L 337.083413 -167.586903 
L 335.757696 -169.488516 
L 334.356852 -171.39013 
L 332.89022 -173.291743 
L 331.377579 -175.193357 
L 329.850103 -177.09497 
L 328.348153 -178.996584 
L 326.917841 -180.898198 
L 325.608817 -182.799811 
L 324.474476 -184.701425 
L 323.573498 -186.603038 
L 322.969874 -188.504652 
L 322.728493 -190.406265 
L 322.905226 -192.307879 
L 323.533425 -194.209492 
L 324.611174 -196.111106 
L 326.094338 -198.012719 
L 327.898839 -199.914333 
L 329.912471 -201.815946 
L 332.013129 -203.71756 
L 334.088217 -205.619174 
L 336.049834 -207.520787 
L 337.84214 -209.422401 
L 339.440193 -211.324014 
L 340.842261 -213.225628 
L 342.059338 -215.127241 
L 343.105705 -217.028855 
L 343.993236 -218.930468 
L 344.730176 -220.832082 
L 345.323345 -222.733695 
L 345.781642 -224.635309 
L 346.118749 -226.536922 
L 346.353728 -228.438536 
L 346.509413 -230.34015 
L 346.60937 -232.241763 
L 346.67466 -234.143377 
L 347.22534 -234.143377 
L 347.22534 -234.143377 
L 347.29063 -232.241763 
L 347.390587 -230.34015 
L 347.546272 -228.438536 
L 347.781251 -226.536922 
L 348.118358 -224.635309 
L 348.576655 -222.733695 
L 349.169824 -220.832082 
L 349.906764 -218.930468 
L 350.794295 -217.028855 
L 351.840662 -215.127241 
L 353.057739 -213.225628 
L 354.459807 -211.324014 
L 356.05786 -209.422401 
L 357.850166 -207.520787 
L 359.811783 -205.619174 
L 361.886871 -203.71756 
L 363.987529 -201.815946 
L 366.001161 -199.914333 
L 367.805662 -198.012719 
L 369.288826 -196.111106 
L 370.366575 -194.209492 
L 370.994774 -192.307879 
L 371.171507 -190.406265 
L 370.930126 -188.504652 
L 370.326502 -186.603038 
L 369.425524 -184.701425 
L 368.291183 -182.799811 
L 366.982159 -180.898198 
L 365.551847 -178.996584 
L 364.049897 -177.09497 
L 362.522421 -175.193357 
L 361.00978 -173.291743 
L 359.543148 -171.39013 
L 358.142304 -169.488516 
L 356.816587 -167.586903 
L 355.569116 -165.685289 
L 354.402425 -163.783676 
L 353.322815 -161.882062 
L 352.34147 -159.980449 
L 351.472144 -158.078835 
L 350.726828 -156.177222 
L 350.111559 -154.275608 
L 349.624082 -152.373994 
L 349.253971 -150.472381 
L 348.9847 -148.570767 
L 348.796558 -146.669154 
L 348.669339 -144.76754 
L 348.584191 -142.865927 
L 348.524585 -140.964313 
L 348.476707 -139.0627 
L 348.429674 -137.161086 
L 348.375785 -135.259473 
L 348.310762 -133.357859 
L 348.233772 -131.456246 
L 348.146985 -129.554632 
L 348.054608 -127.653018 
L 347.961536 -125.751405 
L 347.871989 -123.849791 
L 347.788535 -121.948178 
L 347.711827 -120.046564 
L 347.641068 -118.144951 
L 347.574967 -116.243337 
L 347.512667 -114.341724 
L 347.454221 -112.44011 
L 347.400375 -110.538497 
L 347.351866 -108.636883 
L 347.308666 -106.73527 
L 347.269664 -104.833656 
L 347.232967 -102.932043 
L 347.196678 -101.030429 
L 347.159711 -99.128815 
L 347.122249 -97.227202 
L 347.085621 -95.325588 
L 347.051747 -93.423975 
L 347.022416 -91.522361 
L 346.998747 -89.620748 
L 346.980971 -87.719134 
L 346.968547 -85.817521 
L 346.96046 -83.915907 
L 346.955558 -82.014294 
L 346.952796 -80.11268 
L 346.951375 -78.211067 
L 346.950782 -76.309453 
L 346.95078 -74.407839 
L 346.951423 -72.506226 
L 346.953102 -70.604612 
L 346.956662 -68.702999 
L 346.963555 -66.801385 
L 346.975956 -64.899772 
L 346.99673 -62.998158 
L 347.029084 -61.096545 
L 347.075805 -59.194931 
L 347.138117 -57.293318 
L 347.214408 -55.391704 
L 347.299334 -53.490091 
L 347.383836 -51.588477 
L 347.456441 -49.686863 
L 347.505714 -47.78525 
L 347.523181 -45.883636 
z
" id="ma582644081" style="stroke:#3d3d3d;stroke-width:1.5;"/>
    </defs>
    <g clip-path="url(#p9ab8c73568)">
     <use style="fill:#c03d3e;stroke:#3d3d3d;stroke-width:1.5;" x="0" xlink:href="#ma582644081" y="288"/>
    </g>
   </g>
   <g id="matplotlib.axis_1">
    <g id="xtick_1">
     <g id="line2d_1">
      <defs>
       <path d="M 0 0 
L 0 3.5 
" id="mc3ab349ecd" style="stroke:#000000;stroke-width:0.8;"/>
      </defs>
      <g>
       <use style="stroke:#000000;stroke-width:0.8;" x="95.85" xlink:href="#mc3ab349ecd" y="252"/>
      </g>
     </g>
     <g id="text_1">
      <!-- 2 -->
      <defs>
       <path d="M 19.1875 8.296875 
L 53.609375 8.296875 
L 53.609375 0 
L 7.328125 0 
L 7.328125 8.296875 
Q 12.9375 14.109375 22.625 23.890625 
Q 32.328125 33.6875 34.8125 36.53125 
Q 39.546875 41.84375 41.421875 45.53125 
Q 43.3125 49.21875 43.3125 52.78125 
Q 43.3125 58.59375 39.234375 62.25 
Q 35.15625 65.921875 28.609375 65.921875 
Q 23.96875 65.921875 18.8125 64.3125 
Q 13.671875 62.703125 7.8125 59.421875 
L 7.8125 69.390625 
Q 13.765625 71.78125 18.9375 73 
Q 24.125 74.21875 28.421875 74.21875 
Q 39.75 74.21875 46.484375 68.546875 
Q 53.21875 62.890625 53.21875 53.421875 
Q 53.21875 48.921875 51.53125 44.890625 
Q 49.859375 40.875 45.40625 35.40625 
Q 44.1875 33.984375 37.640625 27.21875 
Q 31.109375 20.453125 19.1875 8.296875 
z
" id="DejaVuSans-50"/>
      </defs>
      <g transform="translate(92.66875 266.598437)scale(0.1 -0.1)">
       <use xlink:href="#DejaVuSans-50"/>
      </g>
     </g>
    </g>
    <g id="xtick_2">
     <g id="line2d_2">
      <g>
       <use style="stroke:#000000;stroke-width:0.8;" x="179.55" xlink:href="#mc3ab349ecd" y="252"/>
      </g>
     </g>
     <g id="text_2">
      <!-- 5 -->
      <defs>
       <path d="M 10.796875 72.90625 
L 49.515625 72.90625 
L 49.515625 64.59375 
L 19.828125 64.59375 
L 19.828125 46.734375 
Q 21.96875 47.46875 24.109375 47.828125 
Q 26.265625 48.1875 28.421875 48.1875 
Q 40.625 48.1875 47.75 41.5 
Q 54.890625 34.8125 54.890625 23.390625 
Q 54.890625 11.625 47.5625 5.09375 
Q 40.234375 -1.421875 26.90625 -1.421875 
Q 22.3125 -1.421875 17.546875 -0.640625 
Q 12.796875 0.140625 7.71875 1.703125 
L 7.71875 11.625 
Q 12.109375 9.234375 16.796875 8.0625 
Q 21.484375 6.890625 26.703125 6.890625 
Q 35.15625 6.890625 40.078125 11.328125 
Q 45.015625 15.765625 45.015625 23.390625 
Q 45.015625 31 40.078125 35.4375 
Q 35.15625 39.890625 26.703125 39.890625 
Q 22.75 39.890625 18.8125 39.015625 
Q 14.890625 38.140625 10.796875 36.28125 
z
" id="DejaVuSans-53"/>
      </defs>
      <g transform="translate(176.36875 266.598437)scale(0.1 -0.1)">
       <use xlink:href="#DejaVuSans-53"/>
      </g>
     </g>
    </g>
    <g id="xtick_3">
     <g id="line2d_3">
      <g>
       <use style="stroke:#000000;stroke-width:0.8;" x="263.25" xlink:href="#mc3ab349ecd" y="252"/>
      </g>
     </g>
     <g id="text_3">
      <!-- 7 -->
      <defs>
       <path d="M 8.203125 72.90625 
L 55.078125 72.90625 
L 55.078125 68.703125 
L 28.609375 0 
L 18.3125 0 
L 43.21875 64.59375 
L 8.203125 64.59375 
z
" id="DejaVuSans-55"/>
      </defs>
      <g transform="translate(260.06875 266.598437)scale(0.1 -0.1)">
       <use xlink:href="#DejaVuSans-55"/>
      </g>
     </g>
    </g>
    <g id="xtick_4">
     <g id="line2d_4">
      <g>
       <use style="stroke:#000000;stroke-width:0.8;" x="346.95" xlink:href="#mc3ab349ecd" y="252"/>
      </g>
     </g>
     <g id="text_4">
      <!-- 10 -->
      <defs>
       <path d="M 12.40625 8.296875 
L 28.515625 8.296875 
L 28.515625 63.921875 
L 10.984375 60.40625 
L 10.984375 69.390625 
L 28.421875 72.90625 
L 38.28125 72.90625 
L 38.28125 8.296875 
L 54.390625 8.296875 
L 54.390625 0 
L 12.40625 0 
z
" id="DejaVuSans-49"/>
       <path d="M 31.78125 66.40625 
Q 24.171875 66.40625 20.328125 58.90625 
Q 16.5 51.421875 16.5 36.375 
Q 16.5 21.390625 20.328125 13.890625 
Q 24.171875 6.390625 31.78125 6.390625 
Q 39.453125 6.390625 43.28125 13.890625 
Q 47.125 21.390625 47.125 36.375 
Q 47.125 51.421875 43.28125 58.90625 
Q 39.453125 66.40625 31.78125 66.40625 
z
M 31.78125 74.21875 
Q 44.046875 74.21875 50.515625 64.515625 
Q 56.984375 54.828125 56.984375 36.375 
Q 56.984375 17.96875 50.515625 8.265625 
Q 44.046875 -1.421875 31.78125 -1.421875 
Q 19.53125 -1.421875 13.0625 8.265625 
Q 6.59375 17.96875 6.59375 36.375 
Q 6.59375 54.828125 13.0625 64.515625 
Q 19.53125 74.21875 31.78125 74.21875 
z
" id="DejaVuSans-48"/>
      </defs>
      <g transform="translate(340.5875 266.598437)scale(0.1 -0.1)">
       <use xlink:href="#DejaVuSans-49"/>
       <use x="63.623047" xlink:href="#DejaVuSans-48"/>
      </g>
     </g>
    </g>
    <g id="text_5">
     <!-- k -->
     <defs>
      <path d="M 9.078125 75.984375 
L 18.109375 75.984375 
L 18.109375 31.109375 
L 44.921875 54.6875 
L 56.390625 54.6875 
L 27.390625 29.109375 
L 57.625 0 
L 45.90625 0 
L 18.109375 26.703125 
L 18.109375 0 
L 9.078125 0 
z
" id="DejaVuSans-107"/>
     </defs>
     <g transform="translate(218.504688 280.276563)scale(0.1 -0.1)">
      <use xlink:href="#DejaVuSans-107"/>
     </g>
    </g>
   </g>
   <g id="matplotlib.axis_2">
    <g id="ytick_1">
     <g id="line2d_5">
      <defs>
       <path d="M 0 0 
L -3.5 0 
" id="m18cebf29db" style="stroke:#000000;stroke-width:0.8;"/>
      </defs>
      <g>
       <use style="stroke:#000000;stroke-width:0.8;" x="54" xlink:href="#m18cebf29db" y="242.116364"/>
      </g>
     </g>
     <g id="text_6">
      <!-- 0.0 -->
      <defs>
       <path d="M 10.6875 12.40625 
L 21 12.40625 
L 21 0 
L 10.6875 0 
z
" id="DejaVuSans-46"/>
      </defs>
      <g transform="translate(31.096875 245.915582)scale(0.1 -0.1)">
       <use xlink:href="#DejaVuSans-48"/>
       <use x="63.623047" xlink:href="#DejaVuSans-46"/>
       <use x="95.410156" xlink:href="#DejaVuSans-48"/>
      </g>
     </g>
    </g>
    <g id="ytick_2">
     <g id="line2d_6">
      <g>
       <use style="stroke:#000000;stroke-width:0.8;" x="54" xlink:href="#m18cebf29db" y="202.581818"/>
      </g>
     </g>
     <g id="text_7">
      <!-- 0.2 -->
      <g transform="translate(31.096875 206.381037)scale(0.1 -0.1)">
       <use xlink:href="#DejaVuSans-48"/>
       <use x="63.623047" xlink:href="#DejaVuSans-46"/>
       <use x="95.410156" xlink:href="#DejaVuSans-50"/>
      </g>
     </g>
    </g>
    <g id="ytick_3">
     <g id="line2d_7">
      <g>
       <use style="stroke:#000000;stroke-width:0.8;" x="54" xlink:href="#m18cebf29db" y="163.047273"/>
      </g>
     </g>
     <g id="text_8">
      <!-- 0.4 -->
      <defs>
       <path d="M 37.796875 64.3125 
L 12.890625 25.390625 
L 37.796875 25.390625 
z
M 35.203125 72.90625 
L 47.609375 72.90625 
L 47.609375 25.390625 
L 58.015625 25.390625 
L 58.015625 17.1875 
L 47.609375 17.1875 
L 47.609375 0 
L 37.796875 0 
L 37.796875 17.1875 
L 4.890625 17.1875 
L 4.890625 26.703125 
z
" id="DejaVuSans-52"/>
      </defs>
      <g transform="translate(31.096875 166.846491)scale(0.1 -0.1)">
       <use xlink:href="#DejaVuSans-48"/>
       <use x="63.623047" xlink:href="#DejaVuSans-46"/>
       <use x="95.410156" xlink:href="#DejaVuSans-52"/>
      </g>
     </g>
    </g>
    <g id="ytick_4">
     <g id="line2d_8">
      <g>
       <use style="stroke:#000000;stroke-width:0.8;" x="54" xlink:href="#m18cebf29db" y="123.512727"/>
      </g>
     </g>
     <g id="text_9">
      <!-- 0.6 -->
      <defs>
       <path d="M 33.015625 40.375 
Q 26.375 40.375 22.484375 35.828125 
Q 18.609375 31.296875 18.609375 23.390625 
Q 18.609375 15.53125 22.484375 10.953125 
Q 26.375 6.390625 33.015625 6.390625 
Q 39.65625 6.390625 43.53125 10.953125 
Q 47.40625 15.53125 47.40625 23.390625 
Q 47.40625 31.296875 43.53125 35.828125 
Q 39.65625 40.375 33.015625 40.375 
z
M 52.59375 71.296875 
L 52.59375 62.3125 
Q 48.875 64.0625 45.09375 64.984375 
Q 41.3125 65.921875 37.59375 65.921875 
Q 27.828125 65.921875 22.671875 59.328125 
Q 17.53125 52.734375 16.796875 39.40625 
Q 19.671875 43.65625 24.015625 45.921875 
Q 28.375 48.1875 33.59375 48.1875 
Q 44.578125 48.1875 50.953125 41.515625 
Q 57.328125 34.859375 57.328125 23.390625 
Q 57.328125 12.15625 50.6875 5.359375 
Q 44.046875 -1.421875 33.015625 -1.421875 
Q 20.359375 -1.421875 13.671875 8.265625 
Q 6.984375 17.96875 6.984375 36.375 
Q 6.984375 53.65625 15.1875 63.9375 
Q 23.390625 74.21875 37.203125 74.21875 
Q 40.921875 74.21875 44.703125 73.484375 
Q 48.484375 72.75 52.59375 71.296875 
z
" id="DejaVuSans-54"/>
      </defs>
      <g transform="translate(31.096875 127.311946)scale(0.1 -0.1)">
       <use xlink:href="#DejaVuSans-48"/>
       <use x="63.623047" xlink:href="#DejaVuSans-46"/>
       <use x="95.410156" xlink:href="#DejaVuSans-54"/>
      </g>
     </g>
    </g>
    <g id="ytick_5">
     <g id="line2d_9">
      <g>
       <use style="stroke:#000000;stroke-width:0.8;" x="54" xlink:href="#m18cebf29db" y="83.978182"/>
      </g>
     </g>
     <g id="text_10">
      <!-- 0.8 -->
      <defs>
       <path d="M 31.78125 34.625 
Q 24.75 34.625 20.71875 30.859375 
Q 16.703125 27.09375 16.703125 20.515625 
Q 16.703125 13.921875 20.71875 10.15625 
Q 24.75 6.390625 31.78125 6.390625 
Q 38.8125 6.390625 42.859375 10.171875 
Q 46.921875 13.96875 46.921875 20.515625 
Q 46.921875 27.09375 42.890625 30.859375 
Q 38.875 34.625 31.78125 34.625 
z
M 21.921875 38.8125 
Q 15.578125 40.375 12.03125 44.71875 
Q 8.5 49.078125 8.5 55.328125 
Q 8.5 64.0625 14.71875 69.140625 
Q 20.953125 74.21875 31.78125 74.21875 
Q 42.671875 74.21875 48.875 69.140625 
Q 55.078125 64.0625 55.078125 55.328125 
Q 55.078125 49.078125 51.53125 44.71875 
Q 48 40.375 41.703125 38.8125 
Q 48.828125 37.15625 52.796875 32.3125 
Q 56.78125 27.484375 56.78125 20.515625 
Q 56.78125 9.90625 50.3125 4.234375 
Q 43.84375 -1.421875 31.78125 -1.421875 
Q 19.734375 -1.421875 13.25 4.234375 
Q 6.78125 9.90625 6.78125 20.515625 
Q 6.78125 27.484375 10.78125 32.3125 
Q 14.796875 37.15625 21.921875 38.8125 
z
M 18.3125 54.390625 
Q 18.3125 48.734375 21.84375 45.5625 
Q 25.390625 42.390625 31.78125 42.390625 
Q 38.140625 42.390625 41.71875 45.5625 
Q 45.3125 48.734375 45.3125 54.390625 
Q 45.3125 60.0625 41.71875 63.234375 
Q 38.140625 66.40625 31.78125 66.40625 
Q 25.390625 66.40625 21.84375 63.234375 
Q 18.3125 60.0625 18.3125 54.390625 
z
" id="DejaVuSans-56"/>
      </defs>
      <g transform="translate(31.096875 87.777401)scale(0.1 -0.1)">
       <use xlink:href="#DejaVuSans-48"/>
       <use x="63.623047" xlink:href="#DejaVuSans-46"/>
       <use x="95.410156" xlink:href="#DejaVuSans-56"/>
      </g>
     </g>
    </g>
    <g id="ytick_6">
     <g id="line2d_10">
      <g>
       <use style="stroke:#000000;stroke-width:0.8;" x="54" xlink:href="#m18cebf29db" y="44.443636"/>
      </g>
     </g>
     <g id="text_11">
      <!-- 1.0 -->
      <g transform="translate(31.096875 48.242855)scale(0.1 -0.1)">
       <use xlink:href="#DejaVuSans-49"/>
       <use x="63.623047" xlink:href="#DejaVuSans-46"/>
       <use x="95.410156" xlink:href="#DejaVuSans-48"/>
      </g>
     </g>
    </g>
    <g id="text_12">
     <!-- train_f1_mean -->
     <defs>
      <path d="M 18.3125 70.21875 
L 18.3125 54.6875 
L 36.8125 54.6875 
L 36.8125 47.703125 
L 18.3125 47.703125 
L 18.3125 18.015625 
Q 18.3125 11.328125 20.140625 9.421875 
Q 21.96875 7.515625 27.59375 7.515625 
L 36.8125 7.515625 
L 36.8125 0 
L 27.59375 0 
Q 17.1875 0 13.234375 3.875 
Q 9.28125 7.765625 9.28125 18.015625 
L 9.28125 47.703125 
L 2.6875 47.703125 
L 2.6875 54.6875 
L 9.28125 54.6875 
L 9.28125 70.21875 
z
" id="DejaVuSans-116"/>
      <path d="M 41.109375 46.296875 
Q 39.59375 47.171875 37.8125 47.578125 
Q 36.03125 48 33.890625 48 
Q 26.265625 48 22.1875 43.046875 
Q 18.109375 38.09375 18.109375 28.8125 
L 18.109375 0 
L 9.078125 0 
L 9.078125 54.6875 
L 18.109375 54.6875 
L 18.109375 46.1875 
Q 20.953125 51.171875 25.484375 53.578125 
Q 30.03125 56 36.53125 56 
Q 37.453125 56 38.578125 55.875 
Q 39.703125 55.765625 41.0625 55.515625 
z
" id="DejaVuSans-114"/>
      <path d="M 34.28125 27.484375 
Q 23.390625 27.484375 19.1875 25 
Q 14.984375 22.515625 14.984375 16.5 
Q 14.984375 11.71875 18.140625 8.90625 
Q 21.296875 6.109375 26.703125 6.109375 
Q 34.1875 6.109375 38.703125 11.40625 
Q 43.21875 16.703125 43.21875 25.484375 
L 43.21875 27.484375 
z
M 52.203125 31.203125 
L 52.203125 0 
L 43.21875 0 
L 43.21875 8.296875 
Q 40.140625 3.328125 35.546875 0.953125 
Q 30.953125 -1.421875 24.3125 -1.421875 
Q 15.921875 -1.421875 10.953125 3.296875 
Q 6 8.015625 6 15.921875 
Q 6 25.140625 12.171875 29.828125 
Q 18.359375 34.515625 30.609375 34.515625 
L 43.21875 34.515625 
L 43.21875 35.40625 
Q 43.21875 41.609375 39.140625 45 
Q 35.0625 48.390625 27.6875 48.390625 
Q 23 48.390625 18.546875 47.265625 
Q 14.109375 46.140625 10.015625 43.890625 
L 10.015625 52.203125 
Q 14.9375 54.109375 19.578125 55.046875 
Q 24.21875 56 28.609375 56 
Q 40.484375 56 46.34375 49.84375 
Q 52.203125 43.703125 52.203125 31.203125 
z
" id="DejaVuSans-97"/>
      <path d="M 9.421875 54.6875 
L 18.40625 54.6875 
L 18.40625 0 
L 9.421875 0 
z
M 9.421875 75.984375 
L 18.40625 75.984375 
L 18.40625 64.59375 
L 9.421875 64.59375 
z
" id="DejaVuSans-105"/>
      <path d="M 54.890625 33.015625 
L 54.890625 0 
L 45.90625 0 
L 45.90625 32.71875 
Q 45.90625 40.484375 42.875 44.328125 
Q 39.84375 48.1875 33.796875 48.1875 
Q 26.515625 48.1875 22.3125 43.546875 
Q 18.109375 38.921875 18.109375 30.90625 
L 18.109375 0 
L 9.078125 0 
L 9.078125 54.6875 
L 18.109375 54.6875 
L 18.109375 46.1875 
Q 21.34375 51.125 25.703125 53.5625 
Q 30.078125 56 35.796875 56 
Q 45.21875 56 50.046875 50.171875 
Q 54.890625 44.34375 54.890625 33.015625 
z
" id="DejaVuSans-110"/>
      <path d="M 50.984375 -16.609375 
L 50.984375 -23.578125 
L -0.984375 -23.578125 
L -0.984375 -16.609375 
z
" id="DejaVuSans-95"/>
      <path d="M 37.109375 75.984375 
L 37.109375 68.5 
L 28.515625 68.5 
Q 23.6875 68.5 21.796875 66.546875 
Q 19.921875 64.59375 19.921875 59.515625 
L 19.921875 54.6875 
L 34.71875 54.6875 
L 34.71875 47.703125 
L 19.921875 47.703125 
L 19.921875 0 
L 10.890625 0 
L 10.890625 47.703125 
L 2.296875 47.703125 
L 2.296875 54.6875 
L 10.890625 54.6875 
L 10.890625 58.5 
Q 10.890625 67.625 15.140625 71.796875 
Q 19.390625 75.984375 28.609375 75.984375 
z
" id="DejaVuSans-102"/>
      <path d="M 52 44.1875 
Q 55.375 50.25 60.0625 53.125 
Q 64.75 56 71.09375 56 
Q 79.640625 56 84.28125 50.015625 
Q 88.921875 44.046875 88.921875 33.015625 
L 88.921875 0 
L 79.890625 0 
L 79.890625 32.71875 
Q 79.890625 40.578125 77.09375 44.375 
Q 74.3125 48.1875 68.609375 48.1875 
Q 61.625 48.1875 57.5625 43.546875 
Q 53.515625 38.921875 53.515625 30.90625 
L 53.515625 0 
L 44.484375 0 
L 44.484375 32.71875 
Q 44.484375 40.625 41.703125 44.40625 
Q 38.921875 48.1875 33.109375 48.1875 
Q 26.21875 48.1875 22.15625 43.53125 
Q 18.109375 38.875 18.109375 30.90625 
L 18.109375 0 
L 9.078125 0 
L 9.078125 54.6875 
L 18.109375 54.6875 
L 18.109375 46.1875 
Q 21.1875 51.21875 25.484375 53.609375 
Q 29.78125 56 35.6875 56 
Q 41.65625 56 45.828125 52.96875 
Q 50 49.953125 52 44.1875 
z
" id="DejaVuSans-109"/>
      <path d="M 56.203125 29.59375 
L 56.203125 25.203125 
L 14.890625 25.203125 
Q 15.484375 15.921875 20.484375 11.0625 
Q 25.484375 6.203125 34.421875 6.203125 
Q 39.59375 6.203125 44.453125 7.46875 
Q 49.3125 8.734375 54.109375 11.28125 
L 54.109375 2.78125 
Q 49.265625 0.734375 44.1875 -0.34375 
Q 39.109375 -1.421875 33.890625 -1.421875 
Q 20.796875 -1.421875 13.15625 6.1875 
Q 5.515625 13.8125 5.515625 26.8125 
Q 5.515625 40.234375 12.765625 48.109375 
Q 20.015625 56 32.328125 56 
Q 43.359375 56 49.78125 48.890625 
Q 56.203125 41.796875 56.203125 29.59375 
z
M 47.21875 32.234375 
Q 47.125 39.59375 43.09375 43.984375 
Q 39.0625 48.390625 32.421875 48.390625 
Q 24.90625 48.390625 20.390625 44.140625 
Q 15.875 39.890625 15.1875 32.171875 
z
" id="DejaVuSans-101"/>
     </defs>
     <g transform="translate(24.739062 179.038594)rotate(-90)scale(0.1 -0.1)">
      <use xlink:href="#DejaVuSans-116"/>
      <use x="39.208984" xlink:href="#DejaVuSans-114"/>
      <use x="80.322266" xlink:href="#DejaVuSans-97"/>
      <use x="141.601562" xlink:href="#DejaVuSans-105"/>
      <use x="169.384766" xlink:href="#DejaVuSans-110"/>
      <use x="232.763672" xlink:href="#DejaVuSans-95"/>
      <use x="282.763672" xlink:href="#DejaVuSans-102"/>
      <use x="317.96875" xlink:href="#DejaVuSans-49"/>
      <use x="381.591797" xlink:href="#DejaVuSans-95"/>
      <use x="431.591797" xlink:href="#DejaVuSans-109"/>
      <use x="529.003906" xlink:href="#DejaVuSans-101"/>
      <use x="590.527344" xlink:href="#DejaVuSans-97"/>
      <use x="651.806641" xlink:href="#DejaVuSans-110"/>
     </g>
    </g>
   </g>
   <g id="line2d_11">
    <path clip-path="url(#p9ab8c73568)" d="M 95.85 106.866603 
L 95.85 44.443636 
" style="fill:none;stroke:#3d3d3d;stroke-linecap:square;stroke-width:1.5;"/>
   </g>
   <g id="line2d_12">
    <path clip-path="url(#p9ab8c73568)" d="M 95.85 75.560828 
L 95.85 52.579575 
" style="fill:none;stroke:#3d3d3d;stroke-linecap:square;stroke-width:4.5;"/>
   </g>
   <g id="line2d_13">
    <path clip-path="url(#p9ab8c73568)" d="M 179.55 114.727273 
L 179.55 53.856623 
" style="fill:none;stroke:#3d3d3d;stroke-linecap:square;stroke-width:1.5;"/>
   </g>
   <g id="line2d_14">
    <path clip-path="url(#p9ab8c73568)" d="M 179.55 92.114806 
L 179.55 76.808482 
" style="fill:none;stroke:#3d3d3d;stroke-linecap:square;stroke-width:4.5;"/>
   </g>
   <g id="line2d_15">
    <path clip-path="url(#p9ab8c73568)" d="M 263.25 122.100779 
L 263.25 64.210909 
" style="fill:none;stroke:#3d3d3d;stroke-linecap:square;stroke-width:1.5;"/>
   </g>
   <g id="line2d_16">
    <path clip-path="url(#p9ab8c73568)" d="M 263.25 99.119072 
L 263.25 83.099954 
" style="fill:none;stroke:#3d3d3d;stroke-linecap:square;stroke-width:4.5;"/>
   </g>
   <g id="line2d_17">
    <path clip-path="url(#p9ab8c73568)" d="M 346.95 141.342032 
L 346.95 70.8 
" style="fill:none;stroke:#3d3d3d;stroke-linecap:square;stroke-width:1.5;"/>
   </g>
   <g id="line2d_18">
    <path clip-path="url(#p9ab8c73568)" d="M 346.95 111.279232 
L 346.95 91.119425 
" style="fill:none;stroke:#3d3d3d;stroke-linecap:square;stroke-width:4.5;"/>
   </g>
   <g id="patch_3">
    <path d="M 54 252 
L 54 34.56 
" style="fill:none;stroke:#000000;stroke-linecap:square;stroke-linejoin:miter;stroke-width:0.8;"/>
   </g>
   <g id="patch_4">
    <path d="M 388.8 252 
L 388.8 34.56 
" style="fill:none;stroke:#000000;stroke-linecap:square;stroke-linejoin:miter;stroke-width:0.8;"/>
   </g>
   <g id="patch_5">
    <path d="M 54 252 
L 388.8 252 
" style="fill:none;stroke:#000000;stroke-linecap:square;stroke-linejoin:miter;stroke-width:0.8;"/>
   </g>
   <g id="patch_6">
    <path d="M 54 34.56 
L 388.8 34.56 
" style="fill:none;stroke:#000000;stroke-linecap:square;stroke-linejoin:miter;stroke-width:0.8;"/>
   </g>
   <g id="PathCollection_1">
    <defs>
     <path d="M 0 1.5 
C 0.397805 1.5 0.77937 1.341951 1.06066 1.06066 
C 1.341951 0.77937 1.5 0.397805 1.5 0 
C 1.5 -0.397805 1.341951 -0.77937 1.06066 -1.06066 
C 0.77937 -1.341951 0.397805 -1.5 0 -1.5 
C -0.397805 -1.5 -0.77937 -1.341951 -1.06066 -1.06066 
C -1.341951 -0.77937 -1.5 -0.397805 -1.5 0 
C -1.5 0.397805 -1.341951 0.77937 -1.06066 1.06066 
C -0.77937 1.341951 -0.397805 1.5 0 1.5 
z
" id="m85caf1baba" style="stroke:#3d3d3d;"/>
    </defs>
    <g clip-path="url(#p9ab8c73568)">
     <use style="fill:#ffffff;stroke:#3d3d3d;" x="95.85" xlink:href="#m85caf1baba" y="60.916364"/>
    </g>
   </g>
   <g id="PathCollection_2">
    <g clip-path="url(#p9ab8c73568)">
     <use style="fill:#ffffff;stroke:#3d3d3d;" x="179.55" xlink:href="#m85caf1baba" y="83.978182"/>
    </g>
   </g>
   <g id="PathCollection_3">
    <g clip-path="url(#p9ab8c73568)">
     <use style="fill:#ffffff;stroke:#3d3d3d;" x="263.25" xlink:href="#m85caf1baba" y="90.06042"/>
    </g>
   </g>
   <g id="PathCollection_4">
    <g clip-path="url(#p9ab8c73568)">
     <use style="fill:#ffffff;stroke:#3d3d3d;" x="346.95" xlink:href="#m85caf1baba" y="99.969988"/>
    </g>
   </g>
   <g id="text_13">
    <!-- Train F1 for each k -->
    <defs>
     <path d="M -0.296875 72.90625 
L 61.375 72.90625 
L 61.375 64.59375 
L 35.5 64.59375 
L 35.5 0 
L 25.59375 0 
L 25.59375 64.59375 
L -0.296875 64.59375 
z
" id="DejaVuSans-84"/>
     <path id="DejaVuSans-32"/>
     <path d="M 9.8125 72.90625 
L 51.703125 72.90625 
L 51.703125 64.59375 
L 19.671875 64.59375 
L 19.671875 43.109375 
L 48.578125 43.109375 
L 48.578125 34.8125 
L 19.671875 34.8125 
L 19.671875 0 
L 9.8125 0 
z
" id="DejaVuSans-70"/>
     <path d="M 30.609375 48.390625 
Q 23.390625 48.390625 19.1875 42.75 
Q 14.984375 37.109375 14.984375 27.296875 
Q 14.984375 17.484375 19.15625 11.84375 
Q 23.34375 6.203125 30.609375 6.203125 
Q 37.796875 6.203125 41.984375 11.859375 
Q 46.1875 17.53125 46.1875 27.296875 
Q 46.1875 37.015625 41.984375 42.703125 
Q 37.796875 48.390625 30.609375 48.390625 
z
M 30.609375 56 
Q 42.328125 56 49.015625 48.375 
Q 55.71875 40.765625 55.71875 27.296875 
Q 55.71875 13.875 49.015625 6.21875 
Q 42.328125 -1.421875 30.609375 -1.421875 
Q 18.84375 -1.421875 12.171875 6.21875 
Q 5.515625 13.875 5.515625 27.296875 
Q 5.515625 40.765625 12.171875 48.375 
Q 18.84375 56 30.609375 56 
z
" id="DejaVuSans-111"/>
     <path d="M 48.78125 52.59375 
L 48.78125 44.1875 
Q 44.96875 46.296875 41.140625 47.34375 
Q 37.3125 48.390625 33.40625 48.390625 
Q 24.65625 48.390625 19.8125 42.84375 
Q 14.984375 37.3125 14.984375 27.296875 
Q 14.984375 17.28125 19.8125 11.734375 
Q 24.65625 6.203125 33.40625 6.203125 
Q 37.3125 6.203125 41.140625 7.25 
Q 44.96875 8.296875 48.78125 10.40625 
L 48.78125 2.09375 
Q 45.015625 0.34375 40.984375 -0.53125 
Q 36.96875 -1.421875 32.421875 -1.421875 
Q 20.0625 -1.421875 12.78125 6.34375 
Q 5.515625 14.109375 5.515625 27.296875 
Q 5.515625 40.671875 12.859375 48.328125 
Q 20.21875 56 33.015625 56 
Q 37.15625 56 41.109375 55.140625 
Q 45.0625 54.296875 48.78125 52.59375 
z
" id="DejaVuSans-99"/>
     <path d="M 54.890625 33.015625 
L 54.890625 0 
L 45.90625 0 
L 45.90625 32.71875 
Q 45.90625 40.484375 42.875 44.328125 
Q 39.84375 48.1875 33.796875 48.1875 
Q 26.515625 48.1875 22.3125 43.546875 
Q 18.109375 38.921875 18.109375 30.90625 
L 18.109375 0 
L 9.078125 0 
L 9.078125 75.984375 
L 18.109375 75.984375 
L 18.109375 46.1875 
Q 21.34375 51.125 25.703125 53.5625 
Q 30.078125 56 35.796875 56 
Q 45.21875 56 50.046875 50.171875 
Q 54.890625 44.34375 54.890625 33.015625 
z
" id="DejaVuSans-104"/>
    </defs>
    <g transform="translate(165.045 28.56)scale(0.12 -0.12)">
     <use xlink:href="#DejaVuSans-84"/>
     <use x="60.865234" xlink:href="#DejaVuSans-114"/>
     <use x="101.978516" xlink:href="#DejaVuSans-97"/>
     <use x="163.257812" xlink:href="#DejaVuSans-105"/>
     <use x="191.041016" xlink:href="#DejaVuSans-110"/>
     <use x="254.419922" xlink:href="#DejaVuSans-32"/>
     <use x="286.207031" xlink:href="#DejaVuSans-70"/>
     <use x="343.726562" xlink:href="#DejaVuSans-49"/>
     <use x="407.349609" xlink:href="#DejaVuSans-32"/>
     <use x="439.136719" xlink:href="#DejaVuSans-102"/>
     <use x="474.341797" xlink:href="#DejaVuSans-111"/>
     <use x="535.523438" xlink:href="#DejaVuSans-114"/>
     <use x="576.636719" xlink:href="#DejaVuSans-32"/>
     <use x="608.423828" xlink:href="#DejaVuSans-101"/>
     <use x="669.947266" xlink:href="#DejaVuSans-97"/>
     <use x="731.226562" xlink:href="#DejaVuSans-99"/>
     <use x="786.207031" xlink:href="#DejaVuSans-104"/>
     <use x="849.585938" xlink:href="#DejaVuSans-32"/>
     <use x="881.373047" xlink:href="#DejaVuSans-107"/>
    </g>
   </g>
  </g>
 </g>
 <defs>
  <clipPath id="p9ab8c73568">
   <rect height="217.44" width="334.8" x="54" y="34.56"/>
  </clipPath>
 </defs>
</svg>
