<?xml version="1.0" encoding="utf-8" standalone="no"?>
<!DOCTYPE svg PUBLIC "-//W3C//DTD SVG 1.1//EN"
  "http://www.w3.org/Graphics/SVG/1.1/DTD/svg11.dtd">
<!-- Created with matplotlib (https://matplotlib.org/) -->
<svg height="288pt" version="1.1" viewBox="0 0 432 288" width="432pt" xmlns="http://www.w3.org/2000/svg" xmlns:xlink="http://www.w3.org/1999/xlink">
 <defs>
  <style type="text/css">
*{stroke-linecap:butt;stroke-linejoin:round;white-space:pre;}
  </style>
 </defs>
 <g id="figure_1">
  <g id="patch_1">
   <path d="M 0 288 
L 432 288 
L 432 0 
L 0 0 
z
" style="fill:#ffffff;"/>
  </g>
  <g id="axes_1">
   <g id="patch_2">
    <path d="M 54 252 
L 388.8 252 
L 388.8 34.56 
L 54 34.56 
z
" style="fill:#ffffff;"/>
   </g>
   <g id="PolyCollection_1">
    <defs>
     <path d="M 96.358728 -116.481039 
L 95.341272 -116.481039 
L 95.288656 -117.764628 
L 95.231645 -119.048217 
L 95.168902 -120.331806 
L 95.099023 -121.615396 
L 95.020646 -122.898985 
L 94.932562 -124.182574 
L 94.833774 -125.466163 
L 94.723521 -126.749752 
L 94.601269 -128.033341 
L 94.466657 -129.31693 
L 94.31945 -130.600519 
L 94.159484 -131.884109 
L 93.98665 -133.167698 
L 93.8009 -134.451287 
L 93.602299 -135.734876 
L 93.391095 -137.018465 
L 93.167795 -138.302054 
L 92.933239 -139.585643 
L 92.688631 -140.869233 
L 92.435537 -142.152822 
L 92.175825 -143.436411 
L 91.911554 -144.72 
L 91.64483 -146.003589 
L 91.377635 -147.287178 
L 91.111647 -148.570767 
L 90.848085 -149.854357 
L 90.58759 -151.137946 
L 90.330164 -152.421535 
L 90.075176 -153.705124 
L 89.821446 -154.988713 
L 89.567381 -156.272302 
L 89.31116 -157.555891 
L 89.050913 -158.839481 
L 88.784881 -160.12307 
L 88.511487 -161.406659 
L 88.229325 -162.690248 
L 87.937035 -163.973837 
L 87.633096 -165.257426 
L 87.315587 -166.541015 
L 86.981971 -167.824604 
L 86.628991 -169.108194 
L 86.252739 -170.391783 
L 85.848936 -171.675372 
L 85.413436 -172.958961 
L 84.942895 -174.24255 
L 84.435526 -175.526139 
L 83.891814 -176.809728 
L 83.315053 -178.093318 
L 82.711587 -179.376907 
L 82.090675 -180.660496 
L 81.46393 -181.944085 
L 80.844395 -183.227674 
L 80.245335 -184.511263 
L 79.678907 -185.794852 
L 79.154876 -187.078442 
L 78.679574 -188.362031 
L 78.255228 -189.64562 
L 77.879755 -190.929209 
L 77.547057 -192.212798 
L 77.247742 -193.496387 
L 76.970162 -194.779976 
L 76.701609 -196.063566 
L 76.429478 -197.347155 
L 76.142248 -198.630744 
L 75.830159 -199.914333 
L 75.48553 -201.197922 
L 75.102738 -202.481511 
L 74.677944 -203.7651 
L 74.208679 -205.048689 
L 73.693449 -206.332279 
L 73.131479 -207.615868 
L 72.52269 -208.899457 
L 71.867952 -210.183046 
L 71.16957 -211.466635 
L 70.431933 -212.750224 
L 69.662206 -214.033813 
L 68.870922 -215.317403 
L 68.07237 -216.600992 
L 67.284688 -217.884581 
L 66.529624 -219.16817 
L 65.831976 -220.451759 
L 65.218754 -221.735348 
L 64.718136 -223.018937 
L 64.358287 -224.302527 
L 64.166119 -225.586116 
L 64.166025 -226.869705 
L 64.378648 -228.153294 
L 64.819701 -229.436883 
L 65.498867 -230.720472 
L 66.418858 -232.004061 
L 67.574665 -233.287651 
L 68.953116 -234.57124 
L 70.53282 -235.854829 
L 72.284588 -237.138418 
L 74.172384 -238.422007 
L 76.154799 -239.705596 
L 78.187 -240.989185 
L 80.223001 -242.272774 
L 82.218104 -243.556364 
L 109.481896 -243.556364 
L 109.481896 -243.556364 
L 111.476999 -242.272774 
L 113.513 -240.989185 
L 115.545201 -239.705596 
L 117.527616 -238.422007 
L 119.415412 -237.138418 
L 121.16718 -235.854829 
L 122.746884 -234.57124 
L 124.125335 -233.287651 
L 125.281142 -232.004061 
L 126.201133 -230.720472 
L 126.880299 -229.436883 
L 127.321352 -228.153294 
L 127.533975 -226.869705 
L 127.533881 -225.586116 
L 127.341713 -224.302527 
L 126.981864 -223.018937 
L 126.481246 -221.735348 
L 125.868024 -220.451759 
L 125.170376 -219.16817 
L 124.415312 -217.884581 
L 123.62763 -216.600992 
L 122.829078 -215.317403 
L 122.037794 -214.033813 
L 121.268067 -212.750224 
L 120.53043 -211.466635 
L 119.832048 -210.183046 
L 119.17731 -208.899457 
L 118.568521 -207.615868 
L 118.006551 -206.332279 
L 117.491321 -205.048689 
L 117.022056 -203.7651 
L 116.597262 -202.481511 
L 116.21447 -201.197922 
L 115.869841 -199.914333 
L 115.557752 -198.630744 
L 115.270522 -197.347155 
L 114.998391 -196.063566 
L 114.729838 -194.779976 
L 114.452258 -193.496387 
L 114.152943 -192.212798 
L 113.820245 -190.929209 
L 113.444772 -189.64562 
L 113.020426 -188.362031 
L 112.545124 -187.078442 
L 112.021093 -185.794852 
L 111.454665 -184.511263 
L 110.855605 -183.227674 
L 110.23607 -181.944085 
L 109.609325 -180.660496 
L 108.988413 -179.376907 
L 108.384947 -178.093318 
L 107.808186 -176.809728 
L 107.264474 -175.526139 
L 106.757105 -174.24255 
L 106.286564 -172.958961 
L 105.851064 -171.675372 
L 105.447261 -170.391783 
L 105.071009 -169.108194 
L 104.718029 -167.824604 
L 104.384413 -166.541015 
L 104.066904 -165.257426 
L 103.762965 -163.973837 
L 103.470675 -162.690248 
L 103.188513 -161.406659 
L 102.915119 -160.12307 
L 102.649087 -158.839481 
L 102.38884 -157.555891 
L 102.132619 -156.272302 
L 101.878554 -154.988713 
L 101.624824 -153.705124 
L 101.369836 -152.421535 
L 101.11241 -151.137946 
L 100.851915 -149.854357 
L 100.588353 -148.570767 
L 100.322365 -147.287178 
L 100.05517 -146.003589 
L 99.788446 -144.72 
L 99.524175 -143.436411 
L 99.264463 -142.152822 
L 99.011369 -140.869233 
L 98.766761 -139.585643 
L 98.532205 -138.302054 
L 98.308905 -137.018465 
L 98.097701 -135.734876 
L 97.8991 -134.451287 
L 97.71335 -133.167698 
L 97.540516 -131.884109 
L 97.38055 -130.600519 
L 97.233343 -129.31693 
L 97.098731 -128.033341 
L 96.976479 -126.749752 
L 96.866226 -125.466163 
L 96.767438 -124.182574 
L 96.679354 -122.898985 
L 96.600977 -121.615396 
L 96.531098 -120.331806 
L 96.468355 -119.048217 
L 96.411344 -117.764628 
L 96.358728 -116.481039 
z
" id="mce384f8dcf" style="stroke:#3d3d3d;stroke-width:1.5;"/>
    </defs>
    <g clip-path="url(#pfbf5974802)">
     <use style="fill:#3274a1;stroke:#3d3d3d;stroke-width:1.5;" x="0" xlink:href="#mce384f8dcf" y="288"/>
    </g>
   </g>
   <g id="PolyCollection_2">
    <defs>
     <path d="M 179.90509 -45.883636 
L 179.19491 -45.883636 
L 179.204235 -47.680661 
L 179.230767 -49.477686 
L 179.270541 -51.274711 
L 179.318039 -53.071736 
L 179.367444 -54.86876 
L 179.413771 -56.665785 
L 179.453605 -58.46281 
L 179.485308 -60.259835 
L 179.508783 -62.05686 
L 179.524964 -63.853884 
L 179.535238 -65.650909 
L 179.540937 -67.447934 
L 179.542941 -69.244959 
L 179.54139 -71.041983 
L 179.535432 -72.839008 
L 179.522974 -74.636033 
L 179.500454 -76.433058 
L 179.462713 -78.230083 
L 179.403106 -80.027107 
L 179.314017 -81.824132 
L 179.18785 -83.621157 
L 179.018454 -85.418182 
L 178.802697 -87.215207 
L 178.541738 -89.012231 
L 178.241447 -90.809256 
L 177.911572 -92.606281 
L 177.56358 -94.403306 
L 177.207558 -96.200331 
L 176.849049 -97.997355 
L 176.486861 -99.79438 
L 176.112794 -101.591405 
L 175.713688 -103.38843 
L 175.275458 -105.185455 
L 174.788052 -106.982479 
L 174.249804 -108.779504 
L 173.669733 -110.576529 
L 173.066845 -112.373554 
L 172.466311 -114.170579 
L 171.893318 -115.967603 
L 171.366006 -117.764628 
L 170.889226 -119.561653 
L 170.450732 -121.358678 
L 170.020928 -123.155702 
L 169.556492 -124.952727 
L 169.007304 -126.749752 
L 168.325261 -128.546777 
L 167.473095 -130.343802 
L 166.431379 -132.140826 
L 165.202415 -133.937851 
L 163.810508 -135.734876 
L 162.29881 -137.531901 
L 160.723306 -139.328926 
L 159.144688 -141.12595 
L 157.619078 -142.922975 
L 156.188977 -144.72 
L 154.876403 -146.517025 
L 153.680371 -148.31405 
L 152.580261 -150.111074 
L 151.54506 -151.908099 
L 150.546414 -153.705124 
L 149.571823 -155.502149 
L 148.633872 -157.299174 
L 147.772486 -159.096198 
L 147.049312 -160.893223 
L 146.535692 -162.690248 
L 146.297515 -164.487273 
L 146.38103 -166.284298 
L 146.803349 -168.081322 
L 147.5501 -169.878347 
L 148.580696 -171.675372 
L 149.839453 -173.472397 
L 151.269015 -175.269421 
L 152.821803 -177.066446 
L 154.465983 -178.863471 
L 156.184535 -180.660496 
L 157.968645 -182.457521 
L 159.808724 -184.254545 
L 161.687011 -186.05157 
L 163.57469 -187.848595 
L 165.434324 -189.64562 
L 167.226101 -191.442645 
L 168.91504 -193.239669 
L 170.476228 -195.036694 
L 171.896424 -196.833719 
L 173.172058 -198.630744 
L 174.30511 -200.427769 
L 175.298945 -202.224793 
L 176.155762 -204.021818 
L 176.876372 -205.818843 
L 177.46194 -207.615868 
L 177.916599 -209.412893 
L 178.249734 -211.209917 
L 178.476979 -213.006942 
L 178.619568 -214.803967 
L 178.702172 -216.600992 
L 178.749829 -218.398017 
L 178.784724 -220.195041 
L 178.823586 -221.992066 
L 178.876255 -223.789091 
L 180.223745 -223.789091 
L 180.223745 -223.789091 
L 180.276414 -221.992066 
L 180.315276 -220.195041 
L 180.350171 -218.398017 
L 180.397828 -216.600992 
L 180.480432 -214.803967 
L 180.623021 -213.006942 
L 180.850266 -211.209917 
L 181.183401 -209.412893 
L 181.63806 -207.615868 
L 182.223628 -205.818843 
L 182.944238 -204.021818 
L 183.801055 -202.224793 
L 184.79489 -200.427769 
L 185.927942 -198.630744 
L 187.203576 -196.833719 
L 188.623772 -195.036694 
L 190.18496 -193.239669 
L 191.873899 -191.442645 
L 193.665676 -189.64562 
L 195.52531 -187.848595 
L 197.412989 -186.05157 
L 199.291276 -184.254545 
L 201.131355 -182.457521 
L 202.915465 -180.660496 
L 204.634017 -178.863471 
L 206.278197 -177.066446 
L 207.830985 -175.269421 
L 209.260547 -173.472397 
L 210.519304 -171.675372 
L 211.5499 -169.878347 
L 212.296651 -168.081322 
L 212.71897 -166.284298 
L 212.802485 -164.487273 
L 212.564308 -162.690248 
L 212.050688 -160.893223 
L 211.327514 -159.096198 
L 210.466128 -157.299174 
L 209.528177 -155.502149 
L 208.553586 -153.705124 
L 207.55494 -151.908099 
L 206.519739 -150.111074 
L 205.419629 -148.31405 
L 204.223597 -146.517025 
L 202.911023 -144.72 
L 201.480922 -142.922975 
L 199.955312 -141.12595 
L 198.376694 -139.328926 
L 196.80119 -137.531901 
L 195.289492 -135.734876 
L 193.897585 -133.937851 
L 192.668621 -132.140826 
L 191.626905 -130.343802 
L 190.774739 -128.546777 
L 190.092696 -126.749752 
L 189.543508 -124.952727 
L 189.079072 -123.155702 
L 188.649268 -121.358678 
L 188.210774 -119.561653 
L 187.733994 -117.764628 
L 187.206682 -115.967603 
L 186.633689 -114.170579 
L 186.033155 -112.373554 
L 185.430267 -110.576529 
L 184.850196 -108.779504 
L 184.311948 -106.982479 
L 183.824542 -105.185455 
L 183.386312 -103.38843 
L 182.987206 -101.591405 
L 182.613139 -99.79438 
L 182.250951 -97.997355 
L 181.892442 -96.200331 
L 181.53642 -94.403306 
L 181.188428 -92.606281 
L 180.858553 -90.809256 
L 180.558262 -89.012231 
L 180.297303 -87.215207 
L 180.081546 -85.418182 
L 179.91215 -83.621157 
L 179.785983 -81.824132 
L 179.696894 -80.027107 
L 179.637287 -78.230083 
L 179.599546 -76.433058 
L 179.577026 -74.636033 
L 179.564568 -72.839008 
L 179.55861 -71.041983 
L 179.557059 -69.244959 
L 179.559063 -67.447934 
L 179.564762 -65.650909 
L 179.575036 -63.853884 
L 179.591217 -62.05686 
L 179.614692 -60.259835 
L 179.646395 -58.46281 
L 179.686229 -56.665785 
L 179.732556 -54.86876 
L 179.781961 -53.071736 
L 179.829459 -51.274711 
L 179.869233 -49.477686 
L 179.895765 -47.680661 
L 179.90509 -45.883636 
z
" id="mc9a79e1c13" style="stroke:#3d3d3d;stroke-width:1.5;"/>
    </defs>
    <g clip-path="url(#pfbf5974802)">
     <use style="fill:#e1812c;stroke:#3d3d3d;stroke-width:1.5;" x="0" xlink:href="#mc9a79e1c13" y="288"/>
    </g>
   </g>
   <g id="PolyCollection_3">
    <defs>
     <path d="M 263.847454 -45.883636 
L 262.652546 -45.883636 
L 262.608964 -47.680661 
L 262.582445 -49.477686 
L 262.570864 -51.274711 
L 262.568748 -53.071736 
L 262.568106 -54.86876 
L 262.559958 -56.665785 
L 262.536248 -58.46281 
L 262.491714 -60.259835 
L 262.425202 -62.05686 
L 262.340049 -63.853884 
L 262.243345 -65.650909 
L 262.144221 -67.447934 
L 262.051562 -69.244959 
L 261.971691 -71.041983 
L 261.906582 -72.839008 
L 261.852958 -74.636033 
L 261.802427 -76.433058 
L 261.742545 -78.230083 
L 261.65859 -80.027107 
L 261.535745 -81.824132 
L 261.361356 -83.621157 
L 261.126868 -85.418182 
L 260.829021 -87.215207 
L 260.46987 -89.012231 
L 260.055406 -90.809256 
L 259.592932 -92.606281 
L 259.087862 -94.403306 
L 258.54101 -96.200331 
L 257.947497 -97.997355 
L 257.298047 -99.79438 
L 256.582607 -101.591405 
L 255.795333 -103.38843 
L 254.939253 -105.185455 
L 254.028791 -106.982479 
L 253.088868 -108.779504 
L 252.150354 -110.576529 
L 251.242907 -112.373554 
L 250.387174 -114.170579 
L 249.588652 -115.967603 
L 248.834989 -117.764628 
L 248.097418 -119.561653 
L 247.335719 -121.358678 
L 246.505205 -123.155702 
L 245.563977 -124.952727 
L 244.479207 -126.749752 
L 243.232046 -128.546777 
L 241.82132 -130.343802 
L 240.266233 -132.140826 
L 238.607686 -133.937851 
L 236.907114 -135.734876 
L 235.241644 -137.531901 
L 233.695138 -139.328926 
L 232.346335 -141.12595 
L 231.256871 -142.922975 
L 230.462758 -144.72 
L 229.972123 -146.517025 
L 229.77 -148.31405 
L 229.828463 -150.111074 
L 230.11851 -151.908099 
L 230.619691 -153.705124 
L 231.324536 -155.502149 
L 232.236901 -157.299174 
L 233.365473 -159.096198 
L 234.715143 -160.893223 
L 236.279286 -162.690248 
L 238.035349 -164.487273 
L 239.944791 -166.284298 
L 241.956982 -168.081322 
L 244.015546 -169.878347 
L 246.06517 -171.675372 
L 248.057161 -173.472397 
L 249.952775 -175.269421 
L 251.724183 -177.066446 
L 253.35361 -178.863471 
L 254.83147 -180.660496 
L 256.154222 -182.457521 
L 257.322504 -184.254545 
L 258.339822 -186.05157 
L 259.21186 -187.848595 
L 259.946332 -189.64562 
L 260.553146 -191.442645 
L 261.044559 -193.239669 
L 261.435005 -195.036694 
L 261.740407 -196.833719 
L 261.97697 -198.630744 
L 262.159719 -200.427769 
L 262.301126 -202.224793 
L 262.410255 -204.021818 
L 262.492677 -205.818843 
L 262.551215 -207.615868 
L 262.587319 -209.412893 
L 262.602681 -211.209917 
L 262.600591 -213.006942 
L 262.586624 -214.803967 
L 262.56842 -216.600992 
L 262.554636 -218.398017 
L 262.553361 -220.195041 
L 262.57051 -221.992066 
L 262.608651 -223.789091 
L 263.891349 -223.789091 
L 263.891349 -223.789091 
L 263.92949 -221.992066 
L 263.946639 -220.195041 
L 263.945364 -218.398017 
L 263.93158 -216.600992 
L 263.913376 -214.803967 
L 263.899409 -213.006942 
L 263.897319 -211.209917 
L 263.912681 -209.412893 
L 263.948785 -207.615868 
L 264.007323 -205.818843 
L 264.089745 -204.021818 
L 264.198874 -202.224793 
L 264.340281 -200.427769 
L 264.52303 -198.630744 
L 264.759593 -196.833719 
L 265.064995 -195.036694 
L 265.455441 -193.239669 
L 265.946854 -191.442645 
L 266.553668 -189.64562 
L 267.28814 -187.848595 
L 268.160178 -186.05157 
L 269.177496 -184.254545 
L 270.345778 -182.457521 
L 271.66853 -180.660496 
L 273.14639 -178.863471 
L 274.775817 -177.066446 
L 276.547225 -175.269421 
L 278.442839 -173.472397 
L 280.43483 -171.675372 
L 282.484454 -169.878347 
L 284.543018 -168.081322 
L 286.555209 -166.284298 
L 288.464651 -164.487273 
L 290.220714 -162.690248 
L 291.784857 -160.893223 
L 293.134527 -159.096198 
L 294.263099 -157.299174 
L 295.175464 -155.502149 
L 295.880309 -153.705124 
L 296.38149 -151.908099 
L 296.671537 -150.111074 
L 296.73 -148.31405 
L 296.527877 -146.517025 
L 296.037242 -144.72 
L 295.243129 -142.922975 
L 294.153665 -141.12595 
L 292.804862 -139.328926 
L 291.258356 -137.531901 
L 289.592886 -135.734876 
L 287.892314 -133.937851 
L 286.233767 -132.140826 
L 284.67868 -130.343802 
L 283.267954 -128.546777 
L 282.020793 -126.749752 
L 280.936023 -124.952727 
L 279.994795 -123.155702 
L 279.164281 -121.358678 
L 278.402582 -119.561653 
L 277.665011 -117.764628 
L 276.911348 -115.967603 
L 276.112826 -114.170579 
L 275.257093 -112.373554 
L 274.349646 -110.576529 
L 273.411132 -108.779504 
L 272.471209 -106.982479 
L 271.560747 -105.185455 
L 270.704667 -103.38843 
L 269.917393 -101.591405 
L 269.201953 -99.79438 
L 268.552503 -97.997355 
L 267.95899 -96.200331 
L 267.412138 -94.403306 
L 266.907068 -92.606281 
L 266.444594 -90.809256 
L 266.03013 -89.012231 
L 265.670979 -87.215207 
L 265.373132 -85.418182 
L 265.138644 -83.621157 
L 264.964255 -81.824132 
L 264.84141 -80.027107 
L 264.757455 -78.230083 
L 264.697573 -76.433058 
L 264.647042 -74.636033 
L 264.593418 -72.839008 
L 264.528309 -71.041983 
L 264.448438 -69.244959 
L 264.355779 -67.447934 
L 264.256655 -65.650909 
L 264.159951 -63.853884 
L 264.074798 -62.05686 
L 264.008286 -60.259835 
L 263.963752 -58.46281 
L 263.940042 -56.665785 
L 263.931894 -54.86876 
L 263.931252 -53.071736 
L 263.929136 -51.274711 
L 263.917555 -49.477686 
L 263.891036 -47.680661 
L 263.847454 -45.883636 
z
" id="m3b390efbab" style="stroke:#3d3d3d;stroke-width:1.5;"/>
    </defs>
    <g clip-path="url(#pfbf5974802)">
     <use style="fill:#3a923a;stroke:#3d3d3d;stroke-width:1.5;" x="0" xlink:href="#m3b390efbab" y="288"/>
    </g>
   </g>
   <g id="PolyCollection_4">
    <defs>
     <path d="M 348.991195 -45.883636 
L 344.908805 -45.883636 
L 344.777022 -47.680661 
L 344.686736 -49.477686 
L 344.633928 -51.274711 
L 344.610574 -53.071736 
L 344.606531 -54.86876 
L 344.611503 -56.665785 
L 344.616552 -58.46281 
L 344.614854 -60.259835 
L 344.60166 -62.05686 
L 344.57367 -63.853884 
L 344.52817 -65.650909 
L 344.46221 -67.447934 
L 344.372023 -69.244959 
L 344.252695 -71.041983 
L 344.098083 -72.839008 
L 343.900938 -74.636033 
L 343.6533 -76.433058 
L 343.347249 -78.230083 
L 342.976031 -80.027107 
L 342.535458 -81.824132 
L 342.025244 -83.621157 
L 341.449805 -85.418182 
L 340.818069 -87.215207 
L 340.142016 -89.012231 
L 339.43407 -90.809256 
L 338.703825 -92.606281 
L 337.954918 -94.403306 
L 337.18291 -96.200331 
L 336.374853 -97.997355 
L 335.510845 -99.79438 
L 334.56741 -101.591405 
L 333.522159 -103.38843 
L 332.3589 -105.185455 
L 331.072293 -106.982479 
L 329.671223 -108.779504 
L 328.180182 -110.576529 
L 326.638292 -112.373554 
L 325.095877 -114.170579 
L 323.608931 -115.967603 
L 322.232198 -117.764628 
L 321.011942 -119.561653 
L 319.979664 -121.358678 
L 319.148025 -123.155702 
L 318.509947 -124.952727 
L 318.041395 -126.749752 
L 317.707623 -128.546777 
L 317.471914 -130.343802 
L 317.305135 -132.140826 
L 317.194044 -133.937851 
L 317.146262 -135.734876 
L 317.190467 -137.531901 
L 317.371384 -139.328926 
L 317.740489 -141.12595 
L 318.344494 -142.922975 
L 319.214375 -144.72 
L 320.357526 -146.517025 
L 321.754802 -148.31405 
L 323.362806 -150.111074 
L 325.12042 -151.908099 
L 326.957677 -153.705124 
L 328.804766 -155.502149 
L 330.599454 -157.299174 
L 332.29196 -159.096198 
L 333.847203 -160.893223 
L 335.244916 -162.690248 
L 336.478346 -164.487273 
L 337.55215 -166.284298 
L 338.479894 -168.081322 
L 339.281356 -169.878347 
L 339.979763 -171.675372 
L 340.599106 -173.472397 
L 341.161737 -175.269421 
L 341.686476 -177.066446 
L 342.187394 -178.863471 
L 342.673344 -180.660496 
L 343.148182 -182.457521 
L 343.611512 -184.254545 
L 344.059775 -186.05157 
L 344.487459 -187.848595 
L 344.888279 -189.64562 
L 345.256196 -191.442645 
L 345.58621 -193.239669 
L 345.87488 -195.036694 
L 346.120573 -196.833719 
L 346.323452 -198.630744 
L 346.485253 -200.427769 
L 346.608929 -202.224793 
L 346.698226 -204.021818 
L 346.757302 -205.818843 
L 346.790441 -207.615868 
L 346.801919 -209.412893 
L 346.795999 -211.209917 
L 346.777017 -213.006942 
L 346.749475 -214.803967 
L 346.718032 -216.600992 
L 346.687353 -218.398017 
L 346.661791 -220.195041 
L 346.644956 -221.992066 
L 346.639285 -223.789091 
L 347.260715 -223.789091 
L 347.260715 -223.789091 
L 347.255044 -221.992066 
L 347.238209 -220.195041 
L 347.212647 -218.398017 
L 347.181968 -216.600992 
L 347.150525 -214.803967 
L 347.122983 -213.006942 
L 347.104001 -211.209917 
L 347.098081 -209.412893 
L 347.109559 -207.615868 
L 347.142698 -205.818843 
L 347.201774 -204.021818 
L 347.291071 -202.224793 
L 347.414747 -200.427769 
L 347.576548 -198.630744 
L 347.779427 -196.833719 
L 348.02512 -195.036694 
L 348.31379 -193.239669 
L 348.643804 -191.442645 
L 349.011721 -189.64562 
L 349.412541 -187.848595 
L 349.840225 -186.05157 
L 350.288488 -184.254545 
L 350.751818 -182.457521 
L 351.226656 -180.660496 
L 351.712606 -178.863471 
L 352.213524 -177.066446 
L 352.738263 -175.269421 
L 353.300894 -173.472397 
L 353.920237 -171.675372 
L 354.618644 -169.878347 
L 355.420106 -168.081322 
L 356.34785 -166.284298 
L 357.421654 -164.487273 
L 358.655084 -162.690248 
L 360.052797 -160.893223 
L 361.60804 -159.096198 
L 363.300546 -157.299174 
L 365.095234 -155.502149 
L 366.942323 -153.705124 
L 368.77958 -151.908099 
L 370.537194 -150.111074 
L 372.145198 -148.31405 
L 373.542474 -146.517025 
L 374.685625 -144.72 
L 375.555506 -142.922975 
L 376.159511 -141.12595 
L 376.528616 -139.328926 
L 376.709533 -137.531901 
L 376.753738 -135.734876 
L 376.705956 -133.937851 
L 376.594865 -132.140826 
L 376.428086 -130.343802 
L 376.192377 -128.546777 
L 375.858605 -126.749752 
L 375.390053 -124.952727 
L 374.751975 -123.155702 
L 373.920336 -121.358678 
L 372.888058 -119.561653 
L 371.667802 -117.764628 
L 370.291069 -115.967603 
L 368.804123 -114.170579 
L 367.261708 -112.373554 
L 365.719818 -110.576529 
L 364.228777 -108.779504 
L 362.827707 -106.982479 
L 361.5411 -105.185455 
L 360.377841 -103.38843 
L 359.33259 -101.591405 
L 358.389155 -99.79438 
L 357.525147 -97.997355 
L 356.71709 -96.200331 
L 355.945082 -94.403306 
L 355.196175 -92.606281 
L 354.46593 -90.809256 
L 353.757984 -89.012231 
L 353.081931 -87.215207 
L 352.450195 -85.418182 
L 351.874756 -83.621157 
L 351.364542 -81.824132 
L 350.923969 -80.027107 
L 350.552751 -78.230083 
L 350.2467 -76.433058 
L 349.999062 -74.636033 
L 349.801917 -72.839008 
L 349.647305 -71.041983 
L 349.527977 -69.244959 
L 349.43779 -67.447934 
L 349.37183 -65.650909 
L 349.32633 -63.853884 
L 349.29834 -62.05686 
L 349.285146 -60.259835 
L 349.283448 -58.46281 
L 349.288497 -56.665785 
L 349.293469 -54.86876 
L 349.289426 -53.071736 
L 349.266072 -51.274711 
L 349.213264 -49.477686 
L 349.122978 -47.680661 
L 348.991195 -45.883636 
z
" id="m3705f2d3a5" style="stroke:#3d3d3d;stroke-width:1.5;"/>
    </defs>
    <g clip-path="url(#pfbf5974802)">
     <use style="fill:#c03d3e;stroke:#3d3d3d;stroke-width:1.5;" x="0" xlink:href="#m3705f2d3a5" y="288"/>
    </g>
   </g>
   <g id="matplotlib.axis_1">
    <g id="xtick_1">
     <g id="line2d_1">
      <defs>
       <path d="M 0 0 
L 0 3.5 
" id="m6e75ca66de" style="stroke:#000000;stroke-width:0.8;"/>
      </defs>
      <g>
       <use style="stroke:#000000;stroke-width:0.8;" x="95.85" xlink:href="#m6e75ca66de" y="252"/>
      </g>
     </g>
     <g id="text_1">
      <!-- 2 -->
      <defs>
       <path d="M 19.1875 8.296875 
L 53.609375 8.296875 
L 53.609375 0 
L 7.328125 0 
L 7.328125 8.296875 
Q 12.9375 14.109375 22.625 23.890625 
Q 32.328125 33.6875 34.8125 36.53125 
Q 39.546875 41.84375 41.421875 45.53125 
Q 43.3125 49.21875 43.3125 52.78125 
Q 43.3125 58.59375 39.234375 62.25 
Q 35.15625 65.921875 28.609375 65.921875 
Q 23.96875 65.921875 18.8125 64.3125 
Q 13.671875 62.703125 7.8125 59.421875 
L 7.8125 69.390625 
Q 13.765625 71.78125 18.9375 73 
Q 24.125 74.21875 28.421875 74.21875 
Q 39.75 74.21875 46.484375 68.546875 
Q 53.21875 62.890625 53.21875 53.421875 
Q 53.21875 48.921875 51.53125 44.890625 
Q 49.859375 40.875 45.40625 35.40625 
Q 44.1875 33.984375 37.640625 27.21875 
Q 31.109375 20.453125 19.1875 8.296875 
z
" id="DejaVuSans-50"/>
      </defs>
      <g transform="translate(92.66875 266.598437)scale(0.1 -0.1)">
       <use xlink:href="#DejaVuSans-50"/>
      </g>
     </g>
    </g>
    <g id="xtick_2">
     <g id="line2d_2">
      <g>
       <use style="stroke:#000000;stroke-width:0.8;" x="179.55" xlink:href="#m6e75ca66de" y="252"/>
      </g>
     </g>
     <g id="text_2">
      <!-- 5 -->
      <defs>
       <path d="M 10.796875 72.90625 
L 49.515625 72.90625 
L 49.515625 64.59375 
L 19.828125 64.59375 
L 19.828125 46.734375 
Q 21.96875 47.46875 24.109375 47.828125 
Q 26.265625 48.1875 28.421875 48.1875 
Q 40.625 48.1875 47.75 41.5 
Q 54.890625 34.8125 54.890625 23.390625 
Q 54.890625 11.625 47.5625 5.09375 
Q 40.234375 -1.421875 26.90625 -1.421875 
Q 22.3125 -1.421875 17.546875 -0.640625 
Q 12.796875 0.140625 7.71875 1.703125 
L 7.71875 11.625 
Q 12.109375 9.234375 16.796875 8.0625 
Q 21.484375 6.890625 26.703125 6.890625 
Q 35.15625 6.890625 40.078125 11.328125 
Q 45.015625 15.765625 45.015625 23.390625 
Q 45.015625 31 40.078125 35.4375 
Q 35.15625 39.890625 26.703125 39.890625 
Q 22.75 39.890625 18.8125 39.015625 
Q 14.890625 38.140625 10.796875 36.28125 
z
" id="DejaVuSans-53"/>
      </defs>
      <g transform="translate(176.36875 266.598437)scale(0.1 -0.1)">
       <use xlink:href="#DejaVuSans-53"/>
      </g>
     </g>
    </g>
    <g id="xtick_3">
     <g id="line2d_3">
      <g>
       <use style="stroke:#000000;stroke-width:0.8;" x="263.25" xlink:href="#m6e75ca66de" y="252"/>
      </g>
     </g>
     <g id="text_3">
      <!-- 7 -->
      <defs>
       <path d="M 8.203125 72.90625 
L 55.078125 72.90625 
L 55.078125 68.703125 
L 28.609375 0 
L 18.3125 0 
L 43.21875 64.59375 
L 8.203125 64.59375 
z
" id="DejaVuSans-55"/>
      </defs>
      <g transform="translate(260.06875 266.598437)scale(0.1 -0.1)">
       <use xlink:href="#DejaVuSans-55"/>
      </g>
     </g>
    </g>
    <g id="xtick_4">
     <g id="line2d_4">
      <g>
       <use style="stroke:#000000;stroke-width:0.8;" x="346.95" xlink:href="#m6e75ca66de" y="252"/>
      </g>
     </g>
     <g id="text_4">
      <!-- 10 -->
      <defs>
       <path d="M 12.40625 8.296875 
L 28.515625 8.296875 
L 28.515625 63.921875 
L 10.984375 60.40625 
L 10.984375 69.390625 
L 28.421875 72.90625 
L 38.28125 72.90625 
L 38.28125 8.296875 
L 54.390625 8.296875 
L 54.390625 0 
L 12.40625 0 
z
" id="DejaVuSans-49"/>
       <path d="M 31.78125 66.40625 
Q 24.171875 66.40625 20.328125 58.90625 
Q 16.5 51.421875 16.5 36.375 
Q 16.5 21.390625 20.328125 13.890625 
Q 24.171875 6.390625 31.78125 6.390625 
Q 39.453125 6.390625 43.28125 13.890625 
Q 47.125 21.390625 47.125 36.375 
Q 47.125 51.421875 43.28125 58.90625 
Q 39.453125 66.40625 31.78125 66.40625 
z
M 31.78125 74.21875 
Q 44.046875 74.21875 50.515625 64.515625 
Q 56.984375 54.828125 56.984375 36.375 
Q 56.984375 17.96875 50.515625 8.265625 
Q 44.046875 -1.421875 31.78125 -1.421875 
Q 19.53125 -1.421875 13.0625 8.265625 
Q 6.59375 17.96875 6.59375 36.375 
Q 6.59375 54.828125 13.0625 64.515625 
Q 19.53125 74.21875 31.78125 74.21875 
z
" id="DejaVuSans-48"/>
      </defs>
      <g transform="translate(340.5875 266.598437)scale(0.1 -0.1)">
       <use xlink:href="#DejaVuSans-49"/>
       <use x="63.623047" xlink:href="#DejaVuSans-48"/>
      </g>
     </g>
    </g>
    <g id="text_5">
     <!-- k -->
     <defs>
      <path d="M 9.078125 75.984375 
L 18.109375 75.984375 
L 18.109375 31.109375 
L 44.921875 54.6875 
L 56.390625 54.6875 
L 27.390625 29.109375 
L 57.625 0 
L 45.90625 0 
L 18.109375 26.703125 
L 18.109375 0 
L 9.078125 0 
z
" id="DejaVuSans-107"/>
     </defs>
     <g transform="translate(218.504688 280.276563)scale(0.1 -0.1)">
      <use xlink:href="#DejaVuSans-107"/>
     </g>
    </g>
   </g>
   <g id="matplotlib.axis_2">
    <g id="ytick_1">
     <g id="line2d_5">
      <defs>
       <path d="M 0 0 
L -3.5 0 
" id="m208ca2e3cf" style="stroke:#000000;stroke-width:0.8;"/>
      </defs>
      <g>
       <use style="stroke:#000000;stroke-width:0.8;" x="54" xlink:href="#m208ca2e3cf" y="242.116364"/>
      </g>
     </g>
     <g id="text_6">
      <!-- 0.5 -->
      <defs>
       <path d="M 10.6875 12.40625 
L 21 12.40625 
L 21 0 
L 10.6875 0 
z
" id="DejaVuSans-46"/>
      </defs>
      <g transform="translate(31.096875 245.915582)scale(0.1 -0.1)">
       <use xlink:href="#DejaVuSans-48"/>
       <use x="63.623047" xlink:href="#DejaVuSans-46"/>
       <use x="95.410156" xlink:href="#DejaVuSans-53"/>
      </g>
     </g>
    </g>
    <g id="ytick_2">
     <g id="line2d_6">
      <g>
       <use style="stroke:#000000;stroke-width:0.8;" x="54" xlink:href="#m208ca2e3cf" y="202.581818"/>
      </g>
     </g>
     <g id="text_7">
      <!-- 0.6 -->
      <defs>
       <path d="M 33.015625 40.375 
Q 26.375 40.375 22.484375 35.828125 
Q 18.609375 31.296875 18.609375 23.390625 
Q 18.609375 15.53125 22.484375 10.953125 
Q 26.375 6.390625 33.015625 6.390625 
Q 39.65625 6.390625 43.53125 10.953125 
Q 47.40625 15.53125 47.40625 23.390625 
Q 47.40625 31.296875 43.53125 35.828125 
Q 39.65625 40.375 33.015625 40.375 
z
M 52.59375 71.296875 
L 52.59375 62.3125 
Q 48.875 64.0625 45.09375 64.984375 
Q 41.3125 65.921875 37.59375 65.921875 
Q 27.828125 65.921875 22.671875 59.328125 
Q 17.53125 52.734375 16.796875 39.40625 
Q 19.671875 43.65625 24.015625 45.921875 
Q 28.375 48.1875 33.59375 48.1875 
Q 44.578125 48.1875 50.953125 41.515625 
Q 57.328125 34.859375 57.328125 23.390625 
Q 57.328125 12.15625 50.6875 5.359375 
Q 44.046875 -1.421875 33.015625 -1.421875 
Q 20.359375 -1.421875 13.671875 8.265625 
Q 6.984375 17.96875 6.984375 36.375 
Q 6.984375 53.65625 15.1875 63.9375 
Q 23.390625 74.21875 37.203125 74.21875 
Q 40.921875 74.21875 44.703125 73.484375 
Q 48.484375 72.75 52.59375 71.296875 
z
" id="DejaVuSans-54"/>
      </defs>
      <g transform="translate(31.096875 206.381037)scale(0.1 -0.1)">
       <use xlink:href="#DejaVuSans-48"/>
       <use x="63.623047" xlink:href="#DejaVuSans-46"/>
       <use x="95.410156" xlink:href="#DejaVuSans-54"/>
      </g>
     </g>
    </g>
    <g id="ytick_3">
     <g id="line2d_7">
      <g>
       <use style="stroke:#000000;stroke-width:0.8;" x="54" xlink:href="#m208ca2e3cf" y="163.047273"/>
      </g>
     </g>
     <g id="text_8">
      <!-- 0.7 -->
      <g transform="translate(31.096875 166.846491)scale(0.1 -0.1)">
       <use xlink:href="#DejaVuSans-48"/>
       <use x="63.623047" xlink:href="#DejaVuSans-46"/>
       <use x="95.410156" xlink:href="#DejaVuSans-55"/>
      </g>
     </g>
    </g>
    <g id="ytick_4">
     <g id="line2d_8">
      <g>
       <use style="stroke:#000000;stroke-width:0.8;" x="54" xlink:href="#m208ca2e3cf" y="123.512727"/>
      </g>
     </g>
     <g id="text_9">
      <!-- 0.8 -->
      <defs>
       <path d="M 31.78125 34.625 
Q 24.75 34.625 20.71875 30.859375 
Q 16.703125 27.09375 16.703125 20.515625 
Q 16.703125 13.921875 20.71875 10.15625 
Q 24.75 6.390625 31.78125 6.390625 
Q 38.8125 6.390625 42.859375 10.171875 
Q 46.921875 13.96875 46.921875 20.515625 
Q 46.921875 27.09375 42.890625 30.859375 
Q 38.875 34.625 31.78125 34.625 
z
M 21.921875 38.8125 
Q 15.578125 40.375 12.03125 44.71875 
Q 8.5 49.078125 8.5 55.328125 
Q 8.5 64.0625 14.71875 69.140625 
Q 20.953125 74.21875 31.78125 74.21875 
Q 42.671875 74.21875 48.875 69.140625 
Q 55.078125 64.0625 55.078125 55.328125 
Q 55.078125 49.078125 51.53125 44.71875 
Q 48 40.375 41.703125 38.8125 
Q 48.828125 37.15625 52.796875 32.3125 
Q 56.78125 27.484375 56.78125 20.515625 
Q 56.78125 9.90625 50.3125 4.234375 
Q 43.84375 -1.421875 31.78125 -1.421875 
Q 19.734375 -1.421875 13.25 4.234375 
Q 6.78125 9.90625 6.78125 20.515625 
Q 6.78125 27.484375 10.78125 32.3125 
Q 14.796875 37.15625 21.921875 38.8125 
z
M 18.3125 54.390625 
Q 18.3125 48.734375 21.84375 45.5625 
Q 25.390625 42.390625 31.78125 42.390625 
Q 38.140625 42.390625 41.71875 45.5625 
Q 45.3125 48.734375 45.3125 54.390625 
Q 45.3125 60.0625 41.71875 63.234375 
Q 38.140625 66.40625 31.78125 66.40625 
Q 25.390625 66.40625 21.84375 63.234375 
Q 18.3125 60.0625 18.3125 54.390625 
z
" id="DejaVuSans-56"/>
      </defs>
      <g transform="translate(31.096875 127.311946)scale(0.1 -0.1)">
       <use xlink:href="#DejaVuSans-48"/>
       <use x="63.623047" xlink:href="#DejaVuSans-46"/>
       <use x="95.410156" xlink:href="#DejaVuSans-56"/>
      </g>
     </g>
    </g>
    <g id="ytick_5">
     <g id="line2d_9">
      <g>
       <use style="stroke:#000000;stroke-width:0.8;" x="54" xlink:href="#m208ca2e3cf" y="83.978182"/>
      </g>
     </g>
     <g id="text_10">
      <!-- 0.9 -->
      <defs>
       <path d="M 10.984375 1.515625 
L 10.984375 10.5 
Q 14.703125 8.734375 18.5 7.8125 
Q 22.3125 6.890625 25.984375 6.890625 
Q 35.75 6.890625 40.890625 13.453125 
Q 46.046875 20.015625 46.78125 33.40625 
Q 43.953125 29.203125 39.59375 26.953125 
Q 35.25 24.703125 29.984375 24.703125 
Q 19.046875 24.703125 12.671875 31.3125 
Q 6.296875 37.9375 6.296875 49.421875 
Q 6.296875 60.640625 12.9375 67.421875 
Q 19.578125 74.21875 30.609375 74.21875 
Q 43.265625 74.21875 49.921875 64.515625 
Q 56.59375 54.828125 56.59375 36.375 
Q 56.59375 19.140625 48.40625 8.859375 
Q 40.234375 -1.421875 26.421875 -1.421875 
Q 22.703125 -1.421875 18.890625 -0.6875 
Q 15.09375 0.046875 10.984375 1.515625 
z
M 30.609375 32.421875 
Q 37.25 32.421875 41.125 36.953125 
Q 45.015625 41.5 45.015625 49.421875 
Q 45.015625 57.28125 41.125 61.84375 
Q 37.25 66.40625 30.609375 66.40625 
Q 23.96875 66.40625 20.09375 61.84375 
Q 16.21875 57.28125 16.21875 49.421875 
Q 16.21875 41.5 20.09375 36.953125 
Q 23.96875 32.421875 30.609375 32.421875 
z
" id="DejaVuSans-57"/>
      </defs>
      <g transform="translate(31.096875 87.777401)scale(0.1 -0.1)">
       <use xlink:href="#DejaVuSans-48"/>
       <use x="63.623047" xlink:href="#DejaVuSans-46"/>
       <use x="95.410156" xlink:href="#DejaVuSans-57"/>
      </g>
     </g>
    </g>
    <g id="ytick_6">
     <g id="line2d_10">
      <g>
       <use style="stroke:#000000;stroke-width:0.8;" x="54" xlink:href="#m208ca2e3cf" y="44.443636"/>
      </g>
     </g>
     <g id="text_11">
      <!-- 1.0 -->
      <g transform="translate(31.096875 48.242855)scale(0.1 -0.1)">
       <use xlink:href="#DejaVuSans-49"/>
       <use x="63.623047" xlink:href="#DejaVuSans-46"/>
       <use x="95.410156" xlink:href="#DejaVuSans-48"/>
      </g>
     </g>
    </g>
    <g id="text_12">
     <!-- train_accuracy_mean -->
     <defs>
      <path d="M 18.3125 70.21875 
L 18.3125 54.6875 
L 36.8125 54.6875 
L 36.8125 47.703125 
L 18.3125 47.703125 
L 18.3125 18.015625 
Q 18.3125 11.328125 20.140625 9.421875 
Q 21.96875 7.515625 27.59375 7.515625 
L 36.8125 7.515625 
L 36.8125 0 
L 27.59375 0 
Q 17.1875 0 13.234375 3.875 
Q 9.28125 7.765625 9.28125 18.015625 
L 9.28125 47.703125 
L 2.6875 47.703125 
L 2.6875 54.6875 
L 9.28125 54.6875 
L 9.28125 70.21875 
z
" id="DejaVuSans-116"/>
      <path d="M 41.109375 46.296875 
Q 39.59375 47.171875 37.8125 47.578125 
Q 36.03125 48 33.890625 48 
Q 26.265625 48 22.1875 43.046875 
Q 18.109375 38.09375 18.109375 28.8125 
L 18.109375 0 
L 9.078125 0 
L 9.078125 54.6875 
L 18.109375 54.6875 
L 18.109375 46.1875 
Q 20.953125 51.171875 25.484375 53.578125 
Q 30.03125 56 36.53125 56 
Q 37.453125 56 38.578125 55.875 
Q 39.703125 55.765625 41.0625 55.515625 
z
" id="DejaVuSans-114"/>
      <path d="M 34.28125 27.484375 
Q 23.390625 27.484375 19.1875 25 
Q 14.984375 22.515625 14.984375 16.5 
Q 14.984375 11.71875 18.140625 8.90625 
Q 21.296875 6.109375 26.703125 6.109375 
Q 34.1875 6.109375 38.703125 11.40625 
Q 43.21875 16.703125 43.21875 25.484375 
L 43.21875 27.484375 
z
M 52.203125 31.203125 
L 52.203125 0 
L 43.21875 0 
L 43.21875 8.296875 
Q 40.140625 3.328125 35.546875 0.953125 
Q 30.953125 -1.421875 24.3125 -1.421875 
Q 15.921875 -1.421875 10.953125 3.296875 
Q 6 8.015625 6 15.921875 
Q 6 25.140625 12.171875 29.828125 
Q 18.359375 34.515625 30.609375 34.515625 
L 43.21875 34.515625 
L 43.21875 35.40625 
Q 43.21875 41.609375 39.140625 45 
Q 35.0625 48.390625 27.6875 48.390625 
Q 23 48.390625 18.546875 47.265625 
Q 14.109375 46.140625 10.015625 43.890625 
L 10.015625 52.203125 
Q 14.9375 54.109375 19.578125 55.046875 
Q 24.21875 56 28.609375 56 
Q 40.484375 56 46.34375 49.84375 
Q 52.203125 43.703125 52.203125 31.203125 
z
" id="DejaVuSans-97"/>
      <path d="M 9.421875 54.6875 
L 18.40625 54.6875 
L 18.40625 0 
L 9.421875 0 
z
M 9.421875 75.984375 
L 18.40625 75.984375 
L 18.40625 64.59375 
L 9.421875 64.59375 
z
" id="DejaVuSans-105"/>
      <path d="M 54.890625 33.015625 
L 54.890625 0 
L 45.90625 0 
L 45.90625 32.71875 
Q 45.90625 40.484375 42.875 44.328125 
Q 39.84375 48.1875 33.796875 48.1875 
Q 26.515625 48.1875 22.3125 43.546875 
Q 18.109375 38.921875 18.109375 30.90625 
L 18.109375 0 
L 9.078125 0 
L 9.078125 54.6875 
L 18.109375 54.6875 
L 18.109375 46.1875 
Q 21.34375 51.125 25.703125 53.5625 
Q 30.078125 56 35.796875 56 
Q 45.21875 56 50.046875 50.171875 
Q 54.890625 44.34375 54.890625 33.015625 
z
" id="DejaVuSans-110"/>
      <path d="M 50.984375 -16.609375 
L 50.984375 -23.578125 
L -0.984375 -23.578125 
L -0.984375 -16.609375 
z
" id="DejaVuSans-95"/>
      <path d="M 48.78125 52.59375 
L 48.78125 44.1875 
Q 44.96875 46.296875 41.140625 47.34375 
Q 37.3125 48.390625 33.40625 48.390625 
Q 24.65625 48.390625 19.8125 42.84375 
Q 14.984375 37.3125 14.984375 27.296875 
Q 14.984375 17.28125 19.8125 11.734375 
Q 24.65625 6.203125 33.40625 6.203125 
Q 37.3125 6.203125 41.140625 7.25 
Q 44.96875 8.296875 48.78125 10.40625 
L 48.78125 2.09375 
Q 45.015625 0.34375 40.984375 -0.53125 
Q 36.96875 -1.421875 32.421875 -1.421875 
Q 20.0625 -1.421875 12.78125 6.34375 
Q 5.515625 14.109375 5.515625 27.296875 
Q 5.515625 40.671875 12.859375 48.328125 
Q 20.21875 56 33.015625 56 
Q 37.15625 56 41.109375 55.140625 
Q 45.0625 54.296875 48.78125 52.59375 
z
" id="DejaVuSans-99"/>
      <path d="M 8.5 21.578125 
L 8.5 54.6875 
L 17.484375 54.6875 
L 17.484375 21.921875 
Q 17.484375 14.15625 20.5 10.265625 
Q 23.53125 6.390625 29.59375 6.390625 
Q 36.859375 6.390625 41.078125 11.03125 
Q 45.3125 15.671875 45.3125 23.6875 
L 45.3125 54.6875 
L 54.296875 54.6875 
L 54.296875 0 
L 45.3125 0 
L 45.3125 8.40625 
Q 42.046875 3.421875 37.71875 1 
Q 33.40625 -1.421875 27.6875 -1.421875 
Q 18.265625 -1.421875 13.375 4.4375 
Q 8.5 10.296875 8.5 21.578125 
z
M 31.109375 56 
z
" id="DejaVuSans-117"/>
      <path d="M 32.171875 -5.078125 
Q 28.375 -14.84375 24.75 -17.8125 
Q 21.140625 -20.796875 15.09375 -20.796875 
L 7.90625 -20.796875 
L 7.90625 -13.28125 
L 13.1875 -13.28125 
Q 16.890625 -13.28125 18.9375 -11.515625 
Q 21 -9.765625 23.484375 -3.21875 
L 25.09375 0.875 
L 2.984375 54.6875 
L 12.5 54.6875 
L 29.59375 11.921875 
L 46.6875 54.6875 
L 56.203125 54.6875 
z
" id="DejaVuSans-121"/>
      <path d="M 52 44.1875 
Q 55.375 50.25 60.0625 53.125 
Q 64.75 56 71.09375 56 
Q 79.640625 56 84.28125 50.015625 
Q 88.921875 44.046875 88.921875 33.015625 
L 88.921875 0 
L 79.890625 0 
L 79.890625 32.71875 
Q 79.890625 40.578125 77.09375 44.375 
Q 74.3125 48.1875 68.609375 48.1875 
Q 61.625 48.1875 57.5625 43.546875 
Q 53.515625 38.921875 53.515625 30.90625 
L 53.515625 0 
L 44.484375 0 
L 44.484375 32.71875 
Q 44.484375 40.625 41.703125 44.40625 
Q 38.921875 48.1875 33.109375 48.1875 
Q 26.21875 48.1875 22.15625 43.53125 
Q 18.109375 38.875 18.109375 30.90625 
L 18.109375 0 
L 9.078125 0 
L 9.078125 54.6875 
L 18.109375 54.6875 
L 18.109375 46.1875 
Q 21.1875 51.21875 25.484375 53.609375 
Q 29.78125 56 35.6875 56 
Q 41.65625 56 45.828125 52.96875 
Q 50 49.953125 52 44.1875 
z
" id="DejaVuSans-109"/>
      <path d="M 56.203125 29.59375 
L 56.203125 25.203125 
L 14.890625 25.203125 
Q 15.484375 15.921875 20.484375 11.0625 
Q 25.484375 6.203125 34.421875 6.203125 
Q 39.59375 6.203125 44.453125 7.46875 
Q 49.3125 8.734375 54.109375 11.28125 
L 54.109375 2.78125 
Q 49.265625 0.734375 44.1875 -0.34375 
Q 39.109375 -1.421875 33.890625 -1.421875 
Q 20.796875 -1.421875 13.15625 6.1875 
Q 5.515625 13.8125 5.515625 26.8125 
Q 5.515625 40.234375 12.765625 48.109375 
Q 20.015625 56 32.328125 56 
Q 43.359375 56 49.78125 48.890625 
Q 56.203125 41.796875 56.203125 29.59375 
z
M 47.21875 32.234375 
Q 47.125 39.59375 43.09375 43.984375 
Q 39.0625 48.390625 32.421875 48.390625 
Q 24.90625 48.390625 20.390625 44.140625 
Q 15.875 39.890625 15.1875 32.171875 
z
" id="DejaVuSans-101"/>
     </defs>
     <g transform="translate(24.739062 196.656563)rotate(-90)scale(0.1 -0.1)">
      <use xlink:href="#DejaVuSans-116"/>
      <use x="39.208984" xlink:href="#DejaVuSans-114"/>
      <use x="80.322266" xlink:href="#DejaVuSans-97"/>
      <use x="141.601562" xlink:href="#DejaVuSans-105"/>
      <use x="169.384766" xlink:href="#DejaVuSans-110"/>
      <use x="232.763672" xlink:href="#DejaVuSans-95"/>
      <use x="282.763672" xlink:href="#DejaVuSans-97"/>
      <use x="344.042969" xlink:href="#DejaVuSans-99"/>
      <use x="399.023438" xlink:href="#DejaVuSans-99"/>
      <use x="454.003906" xlink:href="#DejaVuSans-117"/>
      <use x="517.382812" xlink:href="#DejaVuSans-114"/>
      <use x="558.496094" xlink:href="#DejaVuSans-97"/>
      <use x="619.775391" xlink:href="#DejaVuSans-99"/>
      <use x="674.755859" xlink:href="#DejaVuSans-121"/>
      <use x="733.935547" xlink:href="#DejaVuSans-95"/>
      <use x="783.935547" xlink:href="#DejaVuSans-109"/>
      <use x="881.347656" xlink:href="#DejaVuSans-101"/>
      <use x="942.871094" xlink:href="#DejaVuSans-97"/>
      <use x="1004.150391" xlink:href="#DejaVuSans-110"/>
     </g>
    </g>
   </g>
   <g id="line2d_11">
    <path clip-path="url(#pfbf5974802)" d="M 95.85 155.634545 
L 95.85 44.443636 
" style="fill:none;stroke:#3d3d3d;stroke-linecap:square;stroke-width:1.5;"/>
   </g>
   <g id="line2d_12">
    <path clip-path="url(#pfbf5974802)" d="M 95.85 98.595592 
L 95.85 60.179168 
" style="fill:none;stroke:#3d3d3d;stroke-linecap:square;stroke-width:4.5;"/>
   </g>
   <g id="line2d_13">
    <path clip-path="url(#pfbf5974802)" d="M 179.55 185.638442 
L 179.55 83.978182 
" style="fill:none;stroke:#3d3d3d;stroke-linecap:square;stroke-width:1.5;"/>
   </g>
   <g id="line2d_14">
    <path clip-path="url(#pfbf5974802)" d="M 179.55 143.28 
L 179.55 114.626763 
" style="fill:none;stroke:#3d3d3d;stroke-linecap:square;stroke-width:4.5;"/>
   </g>
   <g id="line2d_15">
    <path clip-path="url(#pfbf5974802)" d="M 263.25 194.846798 
L 263.25 90.954866 
" style="fill:none;stroke:#3d3d3d;stroke-linecap:square;stroke-width:1.5;"/>
   </g>
   <g id="line2d_16">
    <path clip-path="url(#pfbf5974802)" d="M 263.25 157.841269 
L 263.25 128.498369 
" style="fill:none;stroke:#3d3d3d;stroke-linecap:square;stroke-width:4.5;"/>
   </g>
   <g id="line2d_17">
    <path clip-path="url(#pfbf5974802)" d="M 346.95 214.85116 
L 346.95 102.299069 
" style="fill:none;stroke:#3d3d3d;stroke-linecap:square;stroke-width:1.5;"/>
   </g>
   <g id="line2d_18">
    <path clip-path="url(#pfbf5974802)" d="M 346.95 172.175277 
L 346.95 142.439311 
" style="fill:none;stroke:#3d3d3d;stroke-linecap:square;stroke-width:4.5;"/>
   </g>
   <g id="patch_3">
    <path d="M 54 252 
L 54 34.56 
" style="fill:none;stroke:#000000;stroke-linecap:square;stroke-linejoin:miter;stroke-width:0.8;"/>
   </g>
   <g id="patch_4">
    <path d="M 388.8 252 
L 388.8 34.56 
" style="fill:none;stroke:#000000;stroke-linecap:square;stroke-linejoin:miter;stroke-width:0.8;"/>
   </g>
   <g id="patch_5">
    <path d="M 54 252 
L 388.8 252 
" style="fill:none;stroke:#000000;stroke-linecap:square;stroke-linejoin:miter;stroke-width:0.8;"/>
   </g>
   <g id="patch_6">
    <path d="M 54 34.56 
L 388.8 34.56 
" style="fill:none;stroke:#000000;stroke-linecap:square;stroke-linejoin:miter;stroke-width:0.8;"/>
   </g>
   <g id="PathCollection_1">
    <defs>
     <path d="M 0 1.5 
C 0.397805 1.5 0.77937 1.341951 1.06066 1.06066 
C 1.341951 0.77937 1.5 0.397805 1.5 0 
C 1.5 -0.397805 1.341951 -0.77937 1.06066 -1.06066 
C 0.77937 -1.341951 0.397805 -1.5 0 -1.5 
C -0.397805 -1.5 -0.77937 -1.341951 -1.06066 -1.06066 
C -1.341951 -0.77937 -1.5 -0.397805 -1.5 0 
C -1.5 0.397805 -1.341951 0.77937 -1.06066 1.06066 
C -0.77937 1.341951 -0.397805 1.5 0 1.5 
z
" id="m386438cc08" style="stroke:#3d3d3d;"/>
    </defs>
    <g clip-path="url(#pfbf5974802)">
     <use style="fill:#ffffff;stroke:#3d3d3d;" x="95.85" xlink:href="#m386438cc08" y="75.65512"/>
    </g>
   </g>
   <g id="PathCollection_2">
    <g clip-path="url(#pfbf5974802)">
     <use style="fill:#ffffff;stroke:#3d3d3d;" x="179.55" xlink:href="#m386438cc08" y="127.466182"/>
    </g>
   </g>
   <g id="PathCollection_3">
    <g clip-path="url(#pfbf5974802)">
     <use style="fill:#ffffff;stroke:#3d3d3d;" x="263.25" xlink:href="#m386438cc08" y="142.612187"/>
    </g>
   </g>
   <g id="PathCollection_4">
    <g clip-path="url(#pfbf5974802)">
     <use style="fill:#ffffff;stroke:#3d3d3d;" x="346.95" xlink:href="#m386438cc08" y="157.635178"/>
    </g>
   </g>
   <g id="text_13">
    <!-- Train accuracies for each k -->
    <defs>
     <path d="M -0.296875 72.90625 
L 61.375 72.90625 
L 61.375 64.59375 
L 35.5 64.59375 
L 35.5 0 
L 25.59375 0 
L 25.59375 64.59375 
L -0.296875 64.59375 
z
" id="DejaVuSans-84"/>
     <path id="DejaVuSans-32"/>
     <path d="M 44.28125 53.078125 
L 44.28125 44.578125 
Q 40.484375 46.53125 36.375 47.5 
Q 32.28125 48.484375 27.875 48.484375 
Q 21.1875 48.484375 17.84375 46.4375 
Q 14.5 44.390625 14.5 40.28125 
Q 14.5 37.15625 16.890625 35.375 
Q 19.28125 33.59375 26.515625 31.984375 
L 29.59375 31.296875 
Q 39.15625 29.25 43.1875 25.515625 
Q 47.21875 21.78125 47.21875 15.09375 
Q 47.21875 7.46875 41.1875 3.015625 
Q 35.15625 -1.421875 24.609375 -1.421875 
Q 20.21875 -1.421875 15.453125 -0.5625 
Q 10.6875 0.296875 5.421875 2 
L 5.421875 11.28125 
Q 10.40625 8.6875 15.234375 7.390625 
Q 20.0625 6.109375 24.8125 6.109375 
Q 31.15625 6.109375 34.5625 8.28125 
Q 37.984375 10.453125 37.984375 14.40625 
Q 37.984375 18.0625 35.515625 20.015625 
Q 33.0625 21.96875 24.703125 23.78125 
L 21.578125 24.515625 
Q 13.234375 26.265625 9.515625 29.90625 
Q 5.8125 33.546875 5.8125 39.890625 
Q 5.8125 47.609375 11.28125 51.796875 
Q 16.75 56 26.8125 56 
Q 31.78125 56 36.171875 55.265625 
Q 40.578125 54.546875 44.28125 53.078125 
z
" id="DejaVuSans-115"/>
     <path d="M 37.109375 75.984375 
L 37.109375 68.5 
L 28.515625 68.5 
Q 23.6875 68.5 21.796875 66.546875 
Q 19.921875 64.59375 19.921875 59.515625 
L 19.921875 54.6875 
L 34.71875 54.6875 
L 34.71875 47.703125 
L 19.921875 47.703125 
L 19.921875 0 
L 10.890625 0 
L 10.890625 47.703125 
L 2.296875 47.703125 
L 2.296875 54.6875 
L 10.890625 54.6875 
L 10.890625 58.5 
Q 10.890625 67.625 15.140625 71.796875 
Q 19.390625 75.984375 28.609375 75.984375 
z
" id="DejaVuSans-102"/>
     <path d="M 30.609375 48.390625 
Q 23.390625 48.390625 19.1875 42.75 
Q 14.984375 37.109375 14.984375 27.296875 
Q 14.984375 17.484375 19.15625 11.84375 
Q 23.34375 6.203125 30.609375 6.203125 
Q 37.796875 6.203125 41.984375 11.859375 
Q 46.1875 17.53125 46.1875 27.296875 
Q 46.1875 37.015625 41.984375 42.703125 
Q 37.796875 48.390625 30.609375 48.390625 
z
M 30.609375 56 
Q 42.328125 56 49.015625 48.375 
Q 55.71875 40.765625 55.71875 27.296875 
Q 55.71875 13.875 49.015625 6.21875 
Q 42.328125 -1.421875 30.609375 -1.421875 
Q 18.84375 -1.421875 12.171875 6.21875 
Q 5.515625 13.875 5.515625 27.296875 
Q 5.515625 40.765625 12.171875 48.375 
Q 18.84375 56 30.609375 56 
z
" id="DejaVuSans-111"/>
     <path d="M 54.890625 33.015625 
L 54.890625 0 
L 45.90625 0 
L 45.90625 32.71875 
Q 45.90625 40.484375 42.875 44.328125 
Q 39.84375 48.1875 33.796875 48.1875 
Q 26.515625 48.1875 22.3125 43.546875 
Q 18.109375 38.921875 18.109375 30.90625 
L 18.109375 0 
L 9.078125 0 
L 9.078125 75.984375 
L 18.109375 75.984375 
L 18.109375 46.1875 
Q 21.34375 51.125 25.703125 53.5625 
Q 30.078125 56 35.796875 56 
Q 45.21875 56 50.046875 50.171875 
Q 54.890625 44.34375 54.890625 33.015625 
z
" id="DejaVuSans-104"/>
    </defs>
    <g transform="translate(140.309063 28.56)scale(0.12 -0.12)">
     <use xlink:href="#DejaVuSans-84"/>
     <use x="60.865234" xlink:href="#DejaVuSans-114"/>
     <use x="101.978516" xlink:href="#DejaVuSans-97"/>
     <use x="163.257812" xlink:href="#DejaVuSans-105"/>
     <use x="191.041016" xlink:href="#DejaVuSans-110"/>
     <use x="254.419922" xlink:href="#DejaVuSans-32"/>
     <use x="286.207031" xlink:href="#DejaVuSans-97"/>
     <use x="347.486328" xlink:href="#DejaVuSans-99"/>
     <use x="402.466797" xlink:href="#DejaVuSans-99"/>
     <use x="457.447266" xlink:href="#DejaVuSans-117"/>
     <use x="520.826172" xlink:href="#DejaVuSans-114"/>
     <use x="561.939453" xlink:href="#DejaVuSans-97"/>
     <use x="623.21875" xlink:href="#DejaVuSans-99"/>
     <use x="678.199219" xlink:href="#DejaVuSans-105"/>
     <use x="705.982422" xlink:href="#DejaVuSans-101"/>
     <use x="767.505859" xlink:href="#DejaVuSans-115"/>
     <use x="819.605469" xlink:href="#DejaVuSans-32"/>
     <use x="851.392578" xlink:href="#DejaVuSans-102"/>
     <use x="886.597656" xlink:href="#DejaVuSans-111"/>
     <use x="947.779297" xlink:href="#DejaVuSans-114"/>
     <use x="988.892578" xlink:href="#DejaVuSans-32"/>
     <use x="1020.679688" xlink:href="#DejaVuSans-101"/>
     <use x="1082.203125" xlink:href="#DejaVuSans-97"/>
     <use x="1143.482422" xlink:href="#DejaVuSans-99"/>
     <use x="1198.462891" xlink:href="#DejaVuSans-104"/>
     <use x="1261.841797" xlink:href="#DejaVuSans-32"/>
     <use x="1293.628906" xlink:href="#DejaVuSans-107"/>
    </g>
   </g>
  </g>
 </g>
 <defs>
  <clipPath id="pfbf5974802">
   <rect height="217.44" width="334.8" x="54" y="34.56"/>
  </clipPath>
 </defs>
</svg>
